G04 #@! TF.GenerationSoftware,KiCad,Pcbnew,(5.1.10)-1*
G04 #@! TF.CreationDate,2021-10-05T03:14:11+03:00*
G04 #@! TF.ProjectId,programming_board,70726f67-7261-46d6-9d69-6e675f626f61,rev?*
G04 #@! TF.SameCoordinates,Original*
G04 #@! TF.FileFunction,Copper,L1,Top*
G04 #@! TF.FilePolarity,Positive*
%FSLAX46Y46*%
G04 Gerber Fmt 4.6, Leading zero omitted, Abs format (unit mm)*
G04 Created by KiCad (PCBNEW (5.1.10)-1) date 2021-10-05 03:14:11*
%MOMM*%
%LPD*%
G01*
G04 APERTURE LIST*
G04 #@! TA.AperFunction,NonConductor*
%ADD10C,0.250000*%
G04 #@! TD*
G04 #@! TA.AperFunction,ComponentPad*
%ADD11C,1.000000*%
G04 #@! TD*
G04 #@! TA.AperFunction,ComponentPad*
%ADD12C,1.700000*%
G04 #@! TD*
G04 #@! TA.AperFunction,SMDPad,CuDef*
%ADD13R,3.350000X3.350000*%
G04 #@! TD*
G04 #@! TA.AperFunction,ComponentPad*
%ADD14O,1.700000X1.700000*%
G04 #@! TD*
G04 #@! TA.AperFunction,ComponentPad*
%ADD15R,1.700000X1.700000*%
G04 #@! TD*
G04 #@! TA.AperFunction,SMDPad,CuDef*
%ADD16R,0.500000X0.375000*%
G04 #@! TD*
G04 #@! TA.AperFunction,SMDPad,CuDef*
%ADD17R,0.650000X0.300000*%
G04 #@! TD*
G04 #@! TA.AperFunction,SMDPad,CuDef*
%ADD18R,2.000000X1.500000*%
G04 #@! TD*
G04 #@! TA.AperFunction,SMDPad,CuDef*
%ADD19R,2.000000X3.800000*%
G04 #@! TD*
G04 #@! TA.AperFunction,SMDPad,CuDef*
%ADD20R,0.900000X0.800000*%
G04 #@! TD*
G04 #@! TA.AperFunction,SMDPad,CuDef*
%ADD21R,1.450000X0.600000*%
G04 #@! TD*
G04 #@! TA.AperFunction,SMDPad,CuDef*
%ADD22R,1.450000X0.300000*%
G04 #@! TD*
G04 #@! TA.AperFunction,ComponentPad*
%ADD23O,2.100000X1.000000*%
G04 #@! TD*
G04 #@! TA.AperFunction,ComponentPad*
%ADD24O,1.600000X1.000000*%
G04 #@! TD*
G04 #@! TA.AperFunction,ComponentPad*
%ADD25C,0.800000*%
G04 #@! TD*
G04 #@! TA.AperFunction,ComponentPad*
%ADD26C,6.400000*%
G04 #@! TD*
G04 #@! TA.AperFunction,ViaPad*
%ADD27C,0.800000*%
G04 #@! TD*
G04 #@! TA.AperFunction,Conductor*
%ADD28C,0.750000*%
G04 #@! TD*
G04 #@! TA.AperFunction,Conductor*
%ADD29C,0.500000*%
G04 #@! TD*
G04 #@! TA.AperFunction,Conductor*
%ADD30C,0.250000*%
G04 #@! TD*
G04 #@! TA.AperFunction,Conductor*
%ADD31C,0.350000*%
G04 #@! TD*
G04 APERTURE END LIST*
D10*
X166321428Y-110328571D02*
X166321428Y-111828571D01*
X166321428Y-110400000D02*
X166464285Y-110328571D01*
X166750000Y-110328571D01*
X166892857Y-110400000D01*
X166964285Y-110471428D01*
X167035714Y-110614285D01*
X167035714Y-111042857D01*
X166964285Y-111185714D01*
X166892857Y-111257142D01*
X166750000Y-111328571D01*
X166464285Y-111328571D01*
X166321428Y-111257142D01*
X167678571Y-111328571D02*
X167678571Y-110328571D01*
X167678571Y-110614285D02*
X167750000Y-110471428D01*
X167821428Y-110400000D01*
X167964285Y-110328571D01*
X168107142Y-110328571D01*
X168821428Y-111328571D02*
X168678571Y-111257142D01*
X168607142Y-111185714D01*
X168535714Y-111042857D01*
X168535714Y-110614285D01*
X168607142Y-110471428D01*
X168678571Y-110400000D01*
X168821428Y-110328571D01*
X169035714Y-110328571D01*
X169178571Y-110400000D01*
X169250000Y-110471428D01*
X169321428Y-110614285D01*
X169321428Y-111042857D01*
X169250000Y-111185714D01*
X169178571Y-111257142D01*
X169035714Y-111328571D01*
X168821428Y-111328571D01*
X170607142Y-110328571D02*
X170607142Y-111542857D01*
X170535714Y-111685714D01*
X170464285Y-111757142D01*
X170321428Y-111828571D01*
X170107142Y-111828571D01*
X169964285Y-111757142D01*
X170607142Y-111257142D02*
X170464285Y-111328571D01*
X170178571Y-111328571D01*
X170035714Y-111257142D01*
X169964285Y-111185714D01*
X169892857Y-111042857D01*
X169892857Y-110614285D01*
X169964285Y-110471428D01*
X170035714Y-110400000D01*
X170178571Y-110328571D01*
X170464285Y-110328571D01*
X170607142Y-110400000D01*
X171321428Y-111328571D02*
X171321428Y-110328571D01*
X171321428Y-110614285D02*
X171392857Y-110471428D01*
X171464285Y-110400000D01*
X171607142Y-110328571D01*
X171750000Y-110328571D01*
X172892857Y-111328571D02*
X172892857Y-110542857D01*
X172821428Y-110400000D01*
X172678571Y-110328571D01*
X172392857Y-110328571D01*
X172250000Y-110400000D01*
X172892857Y-111257142D02*
X172750000Y-111328571D01*
X172392857Y-111328571D01*
X172250000Y-111257142D01*
X172178571Y-111114285D01*
X172178571Y-110971428D01*
X172250000Y-110828571D01*
X172392857Y-110757142D01*
X172750000Y-110757142D01*
X172892857Y-110685714D01*
X173607142Y-111328571D02*
X173607142Y-110328571D01*
X173607142Y-110471428D02*
X173678571Y-110400000D01*
X173821428Y-110328571D01*
X174035714Y-110328571D01*
X174178571Y-110400000D01*
X174250000Y-110542857D01*
X174250000Y-111328571D01*
X174250000Y-110542857D02*
X174321428Y-110400000D01*
X174464285Y-110328571D01*
X174678571Y-110328571D01*
X174821428Y-110400000D01*
X174892857Y-110542857D01*
X174892857Y-111328571D01*
X175607142Y-111328571D02*
X175607142Y-110328571D01*
X175607142Y-110471428D02*
X175678571Y-110400000D01*
X175821428Y-110328571D01*
X176035714Y-110328571D01*
X176178571Y-110400000D01*
X176250000Y-110542857D01*
X176250000Y-111328571D01*
X176250000Y-110542857D02*
X176321428Y-110400000D01*
X176464285Y-110328571D01*
X176678571Y-110328571D01*
X176821428Y-110400000D01*
X176892857Y-110542857D01*
X176892857Y-111328571D01*
X177607142Y-111328571D02*
X177607142Y-110328571D01*
X177607142Y-109828571D02*
X177535714Y-109900000D01*
X177607142Y-109971428D01*
X177678571Y-109900000D01*
X177607142Y-109828571D01*
X177607142Y-109971428D01*
X178321428Y-110328571D02*
X178321428Y-111328571D01*
X178321428Y-110471428D02*
X178392857Y-110400000D01*
X178535714Y-110328571D01*
X178750000Y-110328571D01*
X178892857Y-110400000D01*
X178964285Y-110542857D01*
X178964285Y-111328571D01*
X180321428Y-110328571D02*
X180321428Y-111542857D01*
X180250000Y-111685714D01*
X180178571Y-111757142D01*
X180035714Y-111828571D01*
X179821428Y-111828571D01*
X179678571Y-111757142D01*
X180321428Y-111257142D02*
X180178571Y-111328571D01*
X179892857Y-111328571D01*
X179750000Y-111257142D01*
X179678571Y-111185714D01*
X179607142Y-111042857D01*
X179607142Y-110614285D01*
X179678571Y-110471428D01*
X179750000Y-110400000D01*
X179892857Y-110328571D01*
X180178571Y-110328571D01*
X180321428Y-110400000D01*
X182178571Y-111328571D02*
X182178571Y-109828571D01*
X182178571Y-110400000D02*
X182321428Y-110328571D01*
X182607142Y-110328571D01*
X182750000Y-110400000D01*
X182821428Y-110471428D01*
X182892857Y-110614285D01*
X182892857Y-111042857D01*
X182821428Y-111185714D01*
X182750000Y-111257142D01*
X182607142Y-111328571D01*
X182321428Y-111328571D01*
X182178571Y-111257142D01*
X183750000Y-111328571D02*
X183607142Y-111257142D01*
X183535714Y-111185714D01*
X183464285Y-111042857D01*
X183464285Y-110614285D01*
X183535714Y-110471428D01*
X183607142Y-110400000D01*
X183750000Y-110328571D01*
X183964285Y-110328571D01*
X184107142Y-110400000D01*
X184178571Y-110471428D01*
X184250000Y-110614285D01*
X184250000Y-111042857D01*
X184178571Y-111185714D01*
X184107142Y-111257142D01*
X183964285Y-111328571D01*
X183750000Y-111328571D01*
X185535714Y-111328571D02*
X185535714Y-110542857D01*
X185464285Y-110400000D01*
X185321428Y-110328571D01*
X185035714Y-110328571D01*
X184892857Y-110400000D01*
X185535714Y-111257142D02*
X185392857Y-111328571D01*
X185035714Y-111328571D01*
X184892857Y-111257142D01*
X184821428Y-111114285D01*
X184821428Y-110971428D01*
X184892857Y-110828571D01*
X185035714Y-110757142D01*
X185392857Y-110757142D01*
X185535714Y-110685714D01*
X186250000Y-111328571D02*
X186250000Y-110328571D01*
X186250000Y-110614285D02*
X186321428Y-110471428D01*
X186392857Y-110400000D01*
X186535714Y-110328571D01*
X186678571Y-110328571D01*
X187821428Y-111328571D02*
X187821428Y-109828571D01*
X187821428Y-111257142D02*
X187678571Y-111328571D01*
X187392857Y-111328571D01*
X187250000Y-111257142D01*
X187178571Y-111185714D01*
X187107142Y-111042857D01*
X187107142Y-110614285D01*
X187178571Y-110471428D01*
X187250000Y-110400000D01*
X187392857Y-110328571D01*
X187678571Y-110328571D01*
X187821428Y-110400000D01*
X189535714Y-110328571D02*
X189892857Y-111328571D01*
X190250000Y-110328571D01*
X191607142Y-111328571D02*
X190750000Y-111328571D01*
X191178571Y-111328571D02*
X191178571Y-109828571D01*
X191035714Y-110042857D01*
X190892857Y-110185714D01*
X190750000Y-110257142D01*
X192250000Y-111185714D02*
X192321428Y-111257142D01*
X192250000Y-111328571D01*
X192178571Y-111257142D01*
X192250000Y-111185714D01*
X192250000Y-111328571D01*
X193250000Y-109828571D02*
X193392857Y-109828571D01*
X193535714Y-109900000D01*
X193607142Y-109971428D01*
X193678571Y-110114285D01*
X193750000Y-110400000D01*
X193750000Y-110757142D01*
X193678571Y-111042857D01*
X193607142Y-111185714D01*
X193535714Y-111257142D01*
X193392857Y-111328571D01*
X193250000Y-111328571D01*
X193107142Y-111257142D01*
X193035714Y-111185714D01*
X192964285Y-111042857D01*
X192892857Y-110757142D01*
X192892857Y-110400000D01*
X192964285Y-110114285D01*
X193035714Y-109971428D01*
X193107142Y-109900000D01*
X193250000Y-109828571D01*
D11*
X189400000Y-68660000D03*
X190670000Y-68660000D03*
X189400000Y-69930000D03*
X190670000Y-69930000D03*
X189400000Y-71200000D03*
X190670000Y-71200000D03*
X189400000Y-53620000D03*
X190670000Y-53620000D03*
X189400000Y-54890000D03*
X190670000Y-54890000D03*
X189400000Y-56160000D03*
X190670000Y-56160000D03*
X189400000Y-57430000D03*
X190670000Y-57430000D03*
X189400000Y-58700000D03*
X190670000Y-58700000D03*
X196800000Y-56160000D03*
X198070000Y-56160000D03*
X196800000Y-57430000D03*
X198070000Y-57430000D03*
X196800000Y-58700000D03*
X198070000Y-58700000D03*
D12*
X163340000Y-82460000D03*
X163340000Y-79920000D03*
X163340000Y-77380000D03*
X163340000Y-74840000D03*
X163340000Y-72300000D03*
X163340000Y-69760000D03*
X163340000Y-67220000D03*
X163340000Y-64680000D03*
X163340000Y-62140000D03*
X163340000Y-59600000D03*
X160800000Y-82460000D03*
X160800000Y-79920000D03*
X160800000Y-77380000D03*
X160800000Y-74840000D03*
X160800000Y-72300000D03*
X160800000Y-69760000D03*
X160800000Y-67220000D03*
X160800000Y-64680000D03*
X160800000Y-62140000D03*
G04 #@! TA.AperFunction,ComponentPad*
G36*
G01*
X159950000Y-60200000D02*
X159950000Y-59000000D01*
G75*
G02*
X160200000Y-58750000I250000J0D01*
G01*
X161400000Y-58750000D01*
G75*
G02*
X161650000Y-59000000I0J-250000D01*
G01*
X161650000Y-60200000D01*
G75*
G02*
X161400000Y-60450000I-250000J0D01*
G01*
X160200000Y-60450000D01*
G75*
G02*
X159950000Y-60200000I0J250000D01*
G01*
G37*
G04 #@! TD.AperFunction*
D11*
X196800000Y-68660000D03*
X198070000Y-68660000D03*
X196800000Y-69930000D03*
X198070000Y-69930000D03*
X196800000Y-71200000D03*
X198070000Y-71200000D03*
D13*
X177800000Y-96200000D03*
G04 #@! TA.AperFunction,SMDPad,CuDef*
G36*
G01*
X176175000Y-94087500D02*
X176175000Y-93412500D01*
G75*
G02*
X176237500Y-93350000I62500J0D01*
G01*
X176362500Y-93350000D01*
G75*
G02*
X176425000Y-93412500I0J-62500D01*
G01*
X176425000Y-94087500D01*
G75*
G02*
X176362500Y-94150000I-62500J0D01*
G01*
X176237500Y-94150000D01*
G75*
G02*
X176175000Y-94087500I0J62500D01*
G01*
G37*
G04 #@! TD.AperFunction*
G04 #@! TA.AperFunction,SMDPad,CuDef*
G36*
G01*
X176675000Y-94087500D02*
X176675000Y-93412500D01*
G75*
G02*
X176737500Y-93350000I62500J0D01*
G01*
X176862500Y-93350000D01*
G75*
G02*
X176925000Y-93412500I0J-62500D01*
G01*
X176925000Y-94087500D01*
G75*
G02*
X176862500Y-94150000I-62500J0D01*
G01*
X176737500Y-94150000D01*
G75*
G02*
X176675000Y-94087500I0J62500D01*
G01*
G37*
G04 #@! TD.AperFunction*
G04 #@! TA.AperFunction,SMDPad,CuDef*
G36*
G01*
X177175000Y-94087500D02*
X177175000Y-93412500D01*
G75*
G02*
X177237500Y-93350000I62500J0D01*
G01*
X177362500Y-93350000D01*
G75*
G02*
X177425000Y-93412500I0J-62500D01*
G01*
X177425000Y-94087500D01*
G75*
G02*
X177362500Y-94150000I-62500J0D01*
G01*
X177237500Y-94150000D01*
G75*
G02*
X177175000Y-94087500I0J62500D01*
G01*
G37*
G04 #@! TD.AperFunction*
G04 #@! TA.AperFunction,SMDPad,CuDef*
G36*
G01*
X177675000Y-94087500D02*
X177675000Y-93412500D01*
G75*
G02*
X177737500Y-93350000I62500J0D01*
G01*
X177862500Y-93350000D01*
G75*
G02*
X177925000Y-93412500I0J-62500D01*
G01*
X177925000Y-94087500D01*
G75*
G02*
X177862500Y-94150000I-62500J0D01*
G01*
X177737500Y-94150000D01*
G75*
G02*
X177675000Y-94087500I0J62500D01*
G01*
G37*
G04 #@! TD.AperFunction*
G04 #@! TA.AperFunction,SMDPad,CuDef*
G36*
G01*
X178175000Y-94087500D02*
X178175000Y-93412500D01*
G75*
G02*
X178237500Y-93350000I62500J0D01*
G01*
X178362500Y-93350000D01*
G75*
G02*
X178425000Y-93412500I0J-62500D01*
G01*
X178425000Y-94087500D01*
G75*
G02*
X178362500Y-94150000I-62500J0D01*
G01*
X178237500Y-94150000D01*
G75*
G02*
X178175000Y-94087500I0J62500D01*
G01*
G37*
G04 #@! TD.AperFunction*
G04 #@! TA.AperFunction,SMDPad,CuDef*
G36*
G01*
X178675000Y-94087500D02*
X178675000Y-93412500D01*
G75*
G02*
X178737500Y-93350000I62500J0D01*
G01*
X178862500Y-93350000D01*
G75*
G02*
X178925000Y-93412500I0J-62500D01*
G01*
X178925000Y-94087500D01*
G75*
G02*
X178862500Y-94150000I-62500J0D01*
G01*
X178737500Y-94150000D01*
G75*
G02*
X178675000Y-94087500I0J62500D01*
G01*
G37*
G04 #@! TD.AperFunction*
G04 #@! TA.AperFunction,SMDPad,CuDef*
G36*
G01*
X179175000Y-94087500D02*
X179175000Y-93412500D01*
G75*
G02*
X179237500Y-93350000I62500J0D01*
G01*
X179362500Y-93350000D01*
G75*
G02*
X179425000Y-93412500I0J-62500D01*
G01*
X179425000Y-94087500D01*
G75*
G02*
X179362500Y-94150000I-62500J0D01*
G01*
X179237500Y-94150000D01*
G75*
G02*
X179175000Y-94087500I0J62500D01*
G01*
G37*
G04 #@! TD.AperFunction*
G04 #@! TA.AperFunction,SMDPad,CuDef*
G36*
G01*
X179850000Y-94762500D02*
X179850000Y-94637500D01*
G75*
G02*
X179912500Y-94575000I62500J0D01*
G01*
X180587500Y-94575000D01*
G75*
G02*
X180650000Y-94637500I0J-62500D01*
G01*
X180650000Y-94762500D01*
G75*
G02*
X180587500Y-94825000I-62500J0D01*
G01*
X179912500Y-94825000D01*
G75*
G02*
X179850000Y-94762500I0J62500D01*
G01*
G37*
G04 #@! TD.AperFunction*
G04 #@! TA.AperFunction,SMDPad,CuDef*
G36*
G01*
X179850000Y-95262500D02*
X179850000Y-95137500D01*
G75*
G02*
X179912500Y-95075000I62500J0D01*
G01*
X180587500Y-95075000D01*
G75*
G02*
X180650000Y-95137500I0J-62500D01*
G01*
X180650000Y-95262500D01*
G75*
G02*
X180587500Y-95325000I-62500J0D01*
G01*
X179912500Y-95325000D01*
G75*
G02*
X179850000Y-95262500I0J62500D01*
G01*
G37*
G04 #@! TD.AperFunction*
G04 #@! TA.AperFunction,SMDPad,CuDef*
G36*
G01*
X179850000Y-95762500D02*
X179850000Y-95637500D01*
G75*
G02*
X179912500Y-95575000I62500J0D01*
G01*
X180587500Y-95575000D01*
G75*
G02*
X180650000Y-95637500I0J-62500D01*
G01*
X180650000Y-95762500D01*
G75*
G02*
X180587500Y-95825000I-62500J0D01*
G01*
X179912500Y-95825000D01*
G75*
G02*
X179850000Y-95762500I0J62500D01*
G01*
G37*
G04 #@! TD.AperFunction*
G04 #@! TA.AperFunction,SMDPad,CuDef*
G36*
G01*
X179850000Y-96262500D02*
X179850000Y-96137500D01*
G75*
G02*
X179912500Y-96075000I62500J0D01*
G01*
X180587500Y-96075000D01*
G75*
G02*
X180650000Y-96137500I0J-62500D01*
G01*
X180650000Y-96262500D01*
G75*
G02*
X180587500Y-96325000I-62500J0D01*
G01*
X179912500Y-96325000D01*
G75*
G02*
X179850000Y-96262500I0J62500D01*
G01*
G37*
G04 #@! TD.AperFunction*
G04 #@! TA.AperFunction,SMDPad,CuDef*
G36*
G01*
X179850000Y-96762500D02*
X179850000Y-96637500D01*
G75*
G02*
X179912500Y-96575000I62500J0D01*
G01*
X180587500Y-96575000D01*
G75*
G02*
X180650000Y-96637500I0J-62500D01*
G01*
X180650000Y-96762500D01*
G75*
G02*
X180587500Y-96825000I-62500J0D01*
G01*
X179912500Y-96825000D01*
G75*
G02*
X179850000Y-96762500I0J62500D01*
G01*
G37*
G04 #@! TD.AperFunction*
G04 #@! TA.AperFunction,SMDPad,CuDef*
G36*
G01*
X179850000Y-97262500D02*
X179850000Y-97137500D01*
G75*
G02*
X179912500Y-97075000I62500J0D01*
G01*
X180587500Y-97075000D01*
G75*
G02*
X180650000Y-97137500I0J-62500D01*
G01*
X180650000Y-97262500D01*
G75*
G02*
X180587500Y-97325000I-62500J0D01*
G01*
X179912500Y-97325000D01*
G75*
G02*
X179850000Y-97262500I0J62500D01*
G01*
G37*
G04 #@! TD.AperFunction*
G04 #@! TA.AperFunction,SMDPad,CuDef*
G36*
G01*
X179850000Y-97762500D02*
X179850000Y-97637500D01*
G75*
G02*
X179912500Y-97575000I62500J0D01*
G01*
X180587500Y-97575000D01*
G75*
G02*
X180650000Y-97637500I0J-62500D01*
G01*
X180650000Y-97762500D01*
G75*
G02*
X180587500Y-97825000I-62500J0D01*
G01*
X179912500Y-97825000D01*
G75*
G02*
X179850000Y-97762500I0J62500D01*
G01*
G37*
G04 #@! TD.AperFunction*
G04 #@! TA.AperFunction,SMDPad,CuDef*
G36*
G01*
X179175000Y-98987500D02*
X179175000Y-98312500D01*
G75*
G02*
X179237500Y-98250000I62500J0D01*
G01*
X179362500Y-98250000D01*
G75*
G02*
X179425000Y-98312500I0J-62500D01*
G01*
X179425000Y-98987500D01*
G75*
G02*
X179362500Y-99050000I-62500J0D01*
G01*
X179237500Y-99050000D01*
G75*
G02*
X179175000Y-98987500I0J62500D01*
G01*
G37*
G04 #@! TD.AperFunction*
G04 #@! TA.AperFunction,SMDPad,CuDef*
G36*
G01*
X178675000Y-98987500D02*
X178675000Y-98312500D01*
G75*
G02*
X178737500Y-98250000I62500J0D01*
G01*
X178862500Y-98250000D01*
G75*
G02*
X178925000Y-98312500I0J-62500D01*
G01*
X178925000Y-98987500D01*
G75*
G02*
X178862500Y-99050000I-62500J0D01*
G01*
X178737500Y-99050000D01*
G75*
G02*
X178675000Y-98987500I0J62500D01*
G01*
G37*
G04 #@! TD.AperFunction*
G04 #@! TA.AperFunction,SMDPad,CuDef*
G36*
G01*
X178175000Y-98987500D02*
X178175000Y-98312500D01*
G75*
G02*
X178237500Y-98250000I62500J0D01*
G01*
X178362500Y-98250000D01*
G75*
G02*
X178425000Y-98312500I0J-62500D01*
G01*
X178425000Y-98987500D01*
G75*
G02*
X178362500Y-99050000I-62500J0D01*
G01*
X178237500Y-99050000D01*
G75*
G02*
X178175000Y-98987500I0J62500D01*
G01*
G37*
G04 #@! TD.AperFunction*
G04 #@! TA.AperFunction,SMDPad,CuDef*
G36*
G01*
X177675000Y-98987500D02*
X177675000Y-98312500D01*
G75*
G02*
X177737500Y-98250000I62500J0D01*
G01*
X177862500Y-98250000D01*
G75*
G02*
X177925000Y-98312500I0J-62500D01*
G01*
X177925000Y-98987500D01*
G75*
G02*
X177862500Y-99050000I-62500J0D01*
G01*
X177737500Y-99050000D01*
G75*
G02*
X177675000Y-98987500I0J62500D01*
G01*
G37*
G04 #@! TD.AperFunction*
G04 #@! TA.AperFunction,SMDPad,CuDef*
G36*
G01*
X177175000Y-98987500D02*
X177175000Y-98312500D01*
G75*
G02*
X177237500Y-98250000I62500J0D01*
G01*
X177362500Y-98250000D01*
G75*
G02*
X177425000Y-98312500I0J-62500D01*
G01*
X177425000Y-98987500D01*
G75*
G02*
X177362500Y-99050000I-62500J0D01*
G01*
X177237500Y-99050000D01*
G75*
G02*
X177175000Y-98987500I0J62500D01*
G01*
G37*
G04 #@! TD.AperFunction*
G04 #@! TA.AperFunction,SMDPad,CuDef*
G36*
G01*
X176675000Y-98987500D02*
X176675000Y-98312500D01*
G75*
G02*
X176737500Y-98250000I62500J0D01*
G01*
X176862500Y-98250000D01*
G75*
G02*
X176925000Y-98312500I0J-62500D01*
G01*
X176925000Y-98987500D01*
G75*
G02*
X176862500Y-99050000I-62500J0D01*
G01*
X176737500Y-99050000D01*
G75*
G02*
X176675000Y-98987500I0J62500D01*
G01*
G37*
G04 #@! TD.AperFunction*
G04 #@! TA.AperFunction,SMDPad,CuDef*
G36*
G01*
X176175000Y-98987500D02*
X176175000Y-98312500D01*
G75*
G02*
X176237500Y-98250000I62500J0D01*
G01*
X176362500Y-98250000D01*
G75*
G02*
X176425000Y-98312500I0J-62500D01*
G01*
X176425000Y-98987500D01*
G75*
G02*
X176362500Y-99050000I-62500J0D01*
G01*
X176237500Y-99050000D01*
G75*
G02*
X176175000Y-98987500I0J62500D01*
G01*
G37*
G04 #@! TD.AperFunction*
G04 #@! TA.AperFunction,SMDPad,CuDef*
G36*
G01*
X174950000Y-97762500D02*
X174950000Y-97637500D01*
G75*
G02*
X175012500Y-97575000I62500J0D01*
G01*
X175687500Y-97575000D01*
G75*
G02*
X175750000Y-97637500I0J-62500D01*
G01*
X175750000Y-97762500D01*
G75*
G02*
X175687500Y-97825000I-62500J0D01*
G01*
X175012500Y-97825000D01*
G75*
G02*
X174950000Y-97762500I0J62500D01*
G01*
G37*
G04 #@! TD.AperFunction*
G04 #@! TA.AperFunction,SMDPad,CuDef*
G36*
G01*
X174950000Y-97262500D02*
X174950000Y-97137500D01*
G75*
G02*
X175012500Y-97075000I62500J0D01*
G01*
X175687500Y-97075000D01*
G75*
G02*
X175750000Y-97137500I0J-62500D01*
G01*
X175750000Y-97262500D01*
G75*
G02*
X175687500Y-97325000I-62500J0D01*
G01*
X175012500Y-97325000D01*
G75*
G02*
X174950000Y-97262500I0J62500D01*
G01*
G37*
G04 #@! TD.AperFunction*
G04 #@! TA.AperFunction,SMDPad,CuDef*
G36*
G01*
X174950000Y-96762500D02*
X174950000Y-96637500D01*
G75*
G02*
X175012500Y-96575000I62500J0D01*
G01*
X175687500Y-96575000D01*
G75*
G02*
X175750000Y-96637500I0J-62500D01*
G01*
X175750000Y-96762500D01*
G75*
G02*
X175687500Y-96825000I-62500J0D01*
G01*
X175012500Y-96825000D01*
G75*
G02*
X174950000Y-96762500I0J62500D01*
G01*
G37*
G04 #@! TD.AperFunction*
G04 #@! TA.AperFunction,SMDPad,CuDef*
G36*
G01*
X174950000Y-96262500D02*
X174950000Y-96137500D01*
G75*
G02*
X175012500Y-96075000I62500J0D01*
G01*
X175687500Y-96075000D01*
G75*
G02*
X175750000Y-96137500I0J-62500D01*
G01*
X175750000Y-96262500D01*
G75*
G02*
X175687500Y-96325000I-62500J0D01*
G01*
X175012500Y-96325000D01*
G75*
G02*
X174950000Y-96262500I0J62500D01*
G01*
G37*
G04 #@! TD.AperFunction*
G04 #@! TA.AperFunction,SMDPad,CuDef*
G36*
G01*
X174950000Y-95762500D02*
X174950000Y-95637500D01*
G75*
G02*
X175012500Y-95575000I62500J0D01*
G01*
X175687500Y-95575000D01*
G75*
G02*
X175750000Y-95637500I0J-62500D01*
G01*
X175750000Y-95762500D01*
G75*
G02*
X175687500Y-95825000I-62500J0D01*
G01*
X175012500Y-95825000D01*
G75*
G02*
X174950000Y-95762500I0J62500D01*
G01*
G37*
G04 #@! TD.AperFunction*
G04 #@! TA.AperFunction,SMDPad,CuDef*
G36*
G01*
X174950000Y-95262500D02*
X174950000Y-95137500D01*
G75*
G02*
X175012500Y-95075000I62500J0D01*
G01*
X175687500Y-95075000D01*
G75*
G02*
X175750000Y-95137500I0J-62500D01*
G01*
X175750000Y-95262500D01*
G75*
G02*
X175687500Y-95325000I-62500J0D01*
G01*
X175012500Y-95325000D01*
G75*
G02*
X174950000Y-95262500I0J62500D01*
G01*
G37*
G04 #@! TD.AperFunction*
G04 #@! TA.AperFunction,SMDPad,CuDef*
G36*
G01*
X174950000Y-94762500D02*
X174950000Y-94637500D01*
G75*
G02*
X175012500Y-94575000I62500J0D01*
G01*
X175687500Y-94575000D01*
G75*
G02*
X175750000Y-94637500I0J-62500D01*
G01*
X175750000Y-94762500D01*
G75*
G02*
X175687500Y-94825000I-62500J0D01*
G01*
X175012500Y-94825000D01*
G75*
G02*
X174950000Y-94762500I0J62500D01*
G01*
G37*
G04 #@! TD.AperFunction*
D14*
X198200000Y-82100000D03*
D15*
X198200000Y-84640000D03*
D16*
X170050000Y-95862500D03*
X170050000Y-96937500D03*
D17*
X168275000Y-96400000D03*
X170125000Y-96400000D03*
D16*
X168350000Y-96937500D03*
X168350000Y-95862500D03*
D18*
X182550000Y-103600000D03*
X182550000Y-108200000D03*
X182550000Y-105900000D03*
D19*
X188850000Y-105900000D03*
G04 #@! TA.AperFunction,SMDPad,CuDef*
G36*
G01*
X167050001Y-99350000D02*
X166149999Y-99350000D01*
G75*
G02*
X165900000Y-99100001I0J249999D01*
G01*
X165900000Y-98449999D01*
G75*
G02*
X166149999Y-98200000I249999J0D01*
G01*
X167050001Y-98200000D01*
G75*
G02*
X167300000Y-98449999I0J-249999D01*
G01*
X167300000Y-99100001D01*
G75*
G02*
X167050001Y-99350000I-249999J0D01*
G01*
G37*
G04 #@! TD.AperFunction*
G04 #@! TA.AperFunction,SMDPad,CuDef*
G36*
G01*
X167050001Y-101400000D02*
X166149999Y-101400000D01*
G75*
G02*
X165900000Y-101150001I0J249999D01*
G01*
X165900000Y-100499999D01*
G75*
G02*
X166149999Y-100250000I249999J0D01*
G01*
X167050001Y-100250000D01*
G75*
G02*
X167300000Y-100499999I0J-249999D01*
G01*
X167300000Y-101150001D01*
G75*
G02*
X167050001Y-101400000I-249999J0D01*
G01*
G37*
G04 #@! TD.AperFunction*
G04 #@! TA.AperFunction,SMDPad,CuDef*
G36*
G01*
X172650000Y-86250001D02*
X172650000Y-85349999D01*
G75*
G02*
X172899999Y-85100000I249999J0D01*
G01*
X173550001Y-85100000D01*
G75*
G02*
X173800000Y-85349999I0J-249999D01*
G01*
X173800000Y-86250001D01*
G75*
G02*
X173550001Y-86500000I-249999J0D01*
G01*
X172899999Y-86500000D01*
G75*
G02*
X172650000Y-86250001I0J249999D01*
G01*
G37*
G04 #@! TD.AperFunction*
G04 #@! TA.AperFunction,SMDPad,CuDef*
G36*
G01*
X170600000Y-86250001D02*
X170600000Y-85349999D01*
G75*
G02*
X170849999Y-85100000I249999J0D01*
G01*
X171500001Y-85100000D01*
G75*
G02*
X171750000Y-85349999I0J-249999D01*
G01*
X171750000Y-86250001D01*
G75*
G02*
X171500001Y-86500000I-249999J0D01*
G01*
X170849999Y-86500000D01*
G75*
G02*
X170600000Y-86250001I0J249999D01*
G01*
G37*
G04 #@! TD.AperFunction*
G04 #@! TA.AperFunction,SMDPad,CuDef*
G36*
G01*
X166149999Y-93450000D02*
X167050001Y-93450000D01*
G75*
G02*
X167300000Y-93699999I0J-249999D01*
G01*
X167300000Y-94350001D01*
G75*
G02*
X167050001Y-94600000I-249999J0D01*
G01*
X166149999Y-94600000D01*
G75*
G02*
X165900000Y-94350001I0J249999D01*
G01*
X165900000Y-93699999D01*
G75*
G02*
X166149999Y-93450000I249999J0D01*
G01*
G37*
G04 #@! TD.AperFunction*
G04 #@! TA.AperFunction,SMDPad,CuDef*
G36*
G01*
X166149999Y-91400000D02*
X167050001Y-91400000D01*
G75*
G02*
X167300000Y-91649999I0J-249999D01*
G01*
X167300000Y-92300001D01*
G75*
G02*
X167050001Y-92550000I-249999J0D01*
G01*
X166149999Y-92550000D01*
G75*
G02*
X165900000Y-92300001I0J249999D01*
G01*
X165900000Y-91649999D01*
G75*
G02*
X166149999Y-91400000I249999J0D01*
G01*
G37*
G04 #@! TD.AperFunction*
G04 #@! TA.AperFunction,SMDPad,CuDef*
G36*
G01*
X177650000Y-86250001D02*
X177650000Y-85349999D01*
G75*
G02*
X177899999Y-85100000I249999J0D01*
G01*
X178550001Y-85100000D01*
G75*
G02*
X178800000Y-85349999I0J-249999D01*
G01*
X178800000Y-86250001D01*
G75*
G02*
X178550001Y-86500000I-249999J0D01*
G01*
X177899999Y-86500000D01*
G75*
G02*
X177650000Y-86250001I0J249999D01*
G01*
G37*
G04 #@! TD.AperFunction*
G04 #@! TA.AperFunction,SMDPad,CuDef*
G36*
G01*
X175600000Y-86250001D02*
X175600000Y-85349999D01*
G75*
G02*
X175849999Y-85100000I249999J0D01*
G01*
X176500001Y-85100000D01*
G75*
G02*
X176750000Y-85349999I0J-249999D01*
G01*
X176750000Y-86250001D01*
G75*
G02*
X176500001Y-86500000I-249999J0D01*
G01*
X175849999Y-86500000D01*
G75*
G02*
X175600000Y-86250001I0J249999D01*
G01*
G37*
G04 #@! TD.AperFunction*
G04 #@! TA.AperFunction,SMDPad,CuDef*
G36*
G01*
X176950000Y-100549999D02*
X176950000Y-101450001D01*
G75*
G02*
X176700001Y-101700000I-249999J0D01*
G01*
X176049999Y-101700000D01*
G75*
G02*
X175800000Y-101450001I0J249999D01*
G01*
X175800000Y-100549999D01*
G75*
G02*
X176049999Y-100300000I249999J0D01*
G01*
X176700001Y-100300000D01*
G75*
G02*
X176950000Y-100549999I0J-249999D01*
G01*
G37*
G04 #@! TD.AperFunction*
G04 #@! TA.AperFunction,SMDPad,CuDef*
G36*
G01*
X179000000Y-100549999D02*
X179000000Y-101450001D01*
G75*
G02*
X178750001Y-101700000I-249999J0D01*
G01*
X178099999Y-101700000D01*
G75*
G02*
X177850000Y-101450001I0J249999D01*
G01*
X177850000Y-100549999D01*
G75*
G02*
X178099999Y-100300000I249999J0D01*
G01*
X178750001Y-100300000D01*
G75*
G02*
X179000000Y-100549999I0J-249999D01*
G01*
G37*
G04 #@! TD.AperFunction*
G04 #@! TA.AperFunction,SMDPad,CuDef*
G36*
G01*
X182450000Y-91650001D02*
X182450000Y-90749999D01*
G75*
G02*
X182699999Y-90500000I249999J0D01*
G01*
X183350001Y-90500000D01*
G75*
G02*
X183600000Y-90749999I0J-249999D01*
G01*
X183600000Y-91650001D01*
G75*
G02*
X183350001Y-91900000I-249999J0D01*
G01*
X182699999Y-91900000D01*
G75*
G02*
X182450000Y-91650001I0J249999D01*
G01*
G37*
G04 #@! TD.AperFunction*
G04 #@! TA.AperFunction,SMDPad,CuDef*
G36*
G01*
X180400000Y-91650001D02*
X180400000Y-90749999D01*
G75*
G02*
X180649999Y-90500000I249999J0D01*
G01*
X181300001Y-90500000D01*
G75*
G02*
X181550000Y-90749999I0J-249999D01*
G01*
X181550000Y-91650001D01*
G75*
G02*
X181300001Y-91900000I-249999J0D01*
G01*
X180649999Y-91900000D01*
G75*
G02*
X180400000Y-91650001I0J249999D01*
G01*
G37*
G04 #@! TD.AperFunction*
G04 #@! TA.AperFunction,SMDPad,CuDef*
G36*
G01*
X177850000Y-103650001D02*
X177850000Y-102749999D01*
G75*
G02*
X178099999Y-102500000I249999J0D01*
G01*
X178750001Y-102500000D01*
G75*
G02*
X179000000Y-102749999I0J-249999D01*
G01*
X179000000Y-103650001D01*
G75*
G02*
X178750001Y-103900000I-249999J0D01*
G01*
X178099999Y-103900000D01*
G75*
G02*
X177850000Y-103650001I0J249999D01*
G01*
G37*
G04 #@! TD.AperFunction*
G04 #@! TA.AperFunction,SMDPad,CuDef*
G36*
G01*
X175800000Y-103650001D02*
X175800000Y-102749999D01*
G75*
G02*
X176049999Y-102500000I249999J0D01*
G01*
X176700001Y-102500000D01*
G75*
G02*
X176950000Y-102749999I0J-249999D01*
G01*
X176950000Y-103650001D01*
G75*
G02*
X176700001Y-103900000I-249999J0D01*
G01*
X176049999Y-103900000D01*
G75*
G02*
X175800000Y-103650001I0J249999D01*
G01*
G37*
G04 #@! TD.AperFunction*
G04 #@! TA.AperFunction,SMDPad,CuDef*
G36*
G01*
X193149999Y-89650000D02*
X194050001Y-89650000D01*
G75*
G02*
X194300000Y-89899999I0J-249999D01*
G01*
X194300000Y-90550001D01*
G75*
G02*
X194050001Y-90800000I-249999J0D01*
G01*
X193149999Y-90800000D01*
G75*
G02*
X192900000Y-90550001I0J249999D01*
G01*
X192900000Y-89899999D01*
G75*
G02*
X193149999Y-89650000I249999J0D01*
G01*
G37*
G04 #@! TD.AperFunction*
G04 #@! TA.AperFunction,SMDPad,CuDef*
G36*
G01*
X193149999Y-87600000D02*
X194050001Y-87600000D01*
G75*
G02*
X194300000Y-87849999I0J-249999D01*
G01*
X194300000Y-88500001D01*
G75*
G02*
X194050001Y-88750000I-249999J0D01*
G01*
X193149999Y-88750000D01*
G75*
G02*
X192900000Y-88500001I0J249999D01*
G01*
X192900000Y-87849999D01*
G75*
G02*
X193149999Y-87600000I249999J0D01*
G01*
G37*
G04 #@! TD.AperFunction*
G04 #@! TA.AperFunction,SMDPad,CuDef*
G36*
G01*
X190649999Y-89650000D02*
X191550001Y-89650000D01*
G75*
G02*
X191800000Y-89899999I0J-249999D01*
G01*
X191800000Y-90550001D01*
G75*
G02*
X191550001Y-90800000I-249999J0D01*
G01*
X190649999Y-90800000D01*
G75*
G02*
X190400000Y-90550001I0J249999D01*
G01*
X190400000Y-89899999D01*
G75*
G02*
X190649999Y-89650000I249999J0D01*
G01*
G37*
G04 #@! TD.AperFunction*
G04 #@! TA.AperFunction,SMDPad,CuDef*
G36*
G01*
X190649999Y-87600000D02*
X191550001Y-87600000D01*
G75*
G02*
X191800000Y-87849999I0J-249999D01*
G01*
X191800000Y-88500001D01*
G75*
G02*
X191550001Y-88750000I-249999J0D01*
G01*
X190649999Y-88750000D01*
G75*
G02*
X190400000Y-88500001I0J249999D01*
G01*
X190400000Y-87849999D01*
G75*
G02*
X190649999Y-87600000I249999J0D01*
G01*
G37*
G04 #@! TD.AperFunction*
G04 #@! TA.AperFunction,SMDPad,CuDef*
G36*
G01*
X188049999Y-89650000D02*
X188950001Y-89650000D01*
G75*
G02*
X189200000Y-89899999I0J-249999D01*
G01*
X189200000Y-90550001D01*
G75*
G02*
X188950001Y-90800000I-249999J0D01*
G01*
X188049999Y-90800000D01*
G75*
G02*
X187800000Y-90550001I0J249999D01*
G01*
X187800000Y-89899999D01*
G75*
G02*
X188049999Y-89650000I249999J0D01*
G01*
G37*
G04 #@! TD.AperFunction*
G04 #@! TA.AperFunction,SMDPad,CuDef*
G36*
G01*
X188049999Y-87600000D02*
X188950001Y-87600000D01*
G75*
G02*
X189200000Y-87849999I0J-249999D01*
G01*
X189200000Y-88500001D01*
G75*
G02*
X188950001Y-88750000I-249999J0D01*
G01*
X188049999Y-88750000D01*
G75*
G02*
X187800000Y-88500001I0J249999D01*
G01*
X187800000Y-87849999D01*
G75*
G02*
X188049999Y-87600000I249999J0D01*
G01*
G37*
G04 #@! TD.AperFunction*
G04 #@! TA.AperFunction,SMDPad,CuDef*
G36*
G01*
X185449999Y-89650000D02*
X186350001Y-89650000D01*
G75*
G02*
X186600000Y-89899999I0J-249999D01*
G01*
X186600000Y-90550001D01*
G75*
G02*
X186350001Y-90800000I-249999J0D01*
G01*
X185449999Y-90800000D01*
G75*
G02*
X185200000Y-90550001I0J249999D01*
G01*
X185200000Y-89899999D01*
G75*
G02*
X185449999Y-89650000I249999J0D01*
G01*
G37*
G04 #@! TD.AperFunction*
G04 #@! TA.AperFunction,SMDPad,CuDef*
G36*
G01*
X185449999Y-87600000D02*
X186350001Y-87600000D01*
G75*
G02*
X186600000Y-87849999I0J-249999D01*
G01*
X186600000Y-88500001D01*
G75*
G02*
X186350001Y-88750000I-249999J0D01*
G01*
X185449999Y-88750000D01*
G75*
G02*
X185200000Y-88500001I0J249999D01*
G01*
X185200000Y-87849999D01*
G75*
G02*
X185449999Y-87600000I249999J0D01*
G01*
G37*
G04 #@! TD.AperFunction*
D20*
X173200000Y-89200000D03*
X171200000Y-90150000D03*
X171200000Y-88250000D03*
X178200000Y-89200000D03*
X176200000Y-90150000D03*
X176200000Y-88250000D03*
D21*
X163845000Y-99650000D03*
X163845000Y-98850000D03*
X163845000Y-93950000D03*
X163845000Y-93150000D03*
X163845000Y-93150000D03*
X163845000Y-93950000D03*
X163845000Y-98850000D03*
X163845000Y-99650000D03*
D22*
X163845000Y-94650000D03*
X163845000Y-95150000D03*
X163845000Y-95650000D03*
X163845000Y-96650000D03*
X163845000Y-97150000D03*
X163845000Y-97650000D03*
X163845000Y-98150000D03*
X163845000Y-96150000D03*
D23*
X162930000Y-100720000D03*
X162930000Y-92080000D03*
D24*
X158750000Y-92080000D03*
X158750000Y-100720000D03*
D14*
X179000000Y-56660000D03*
X179000000Y-54120000D03*
X179000000Y-51580000D03*
X179000000Y-49040000D03*
D15*
X179000000Y-46500000D03*
D14*
X170600000Y-56660000D03*
X170600000Y-54120000D03*
X170600000Y-51580000D03*
X170600000Y-49040000D03*
D15*
X170600000Y-46500000D03*
D12*
X173660000Y-67640000D03*
X173660000Y-70180000D03*
X173660000Y-72720000D03*
X173660000Y-75260000D03*
X173660000Y-77800000D03*
X176200000Y-67640000D03*
X176200000Y-70180000D03*
X176200000Y-72720000D03*
X176200000Y-75260000D03*
G04 #@! TA.AperFunction,ComponentPad*
G36*
G01*
X177050000Y-77200000D02*
X177050000Y-78400000D01*
G75*
G02*
X176800000Y-78650000I-250000J0D01*
G01*
X175600000Y-78650000D01*
G75*
G02*
X175350000Y-78400000I0J250000D01*
G01*
X175350000Y-77200000D01*
G75*
G02*
X175600000Y-76950000I250000J0D01*
G01*
X176800000Y-76950000D01*
G75*
G02*
X177050000Y-77200000I0J-250000D01*
G01*
G37*
G04 #@! TD.AperFunction*
D14*
X193620000Y-82160000D03*
X193620000Y-84700000D03*
X191080000Y-82160000D03*
X191080000Y-84700000D03*
X188540000Y-82160000D03*
X188540000Y-84700000D03*
X186000000Y-82160000D03*
D15*
X186000000Y-84700000D03*
D25*
X195302944Y-106302944D03*
X194600000Y-108000000D03*
X195302944Y-109697056D03*
X197000000Y-110400000D03*
X198697056Y-109697056D03*
X199400000Y-108000000D03*
X198697056Y-106302944D03*
X197000000Y-105600000D03*
D26*
X197000000Y-108000000D03*
D25*
X198697056Y-46302944D03*
X197000000Y-45600000D03*
X195302944Y-46302944D03*
X194600000Y-48000000D03*
X195302944Y-49697056D03*
X197000000Y-50400000D03*
X198697056Y-49697056D03*
X199400000Y-48000000D03*
D26*
X197000000Y-48000000D03*
D25*
X160302944Y-106302944D03*
X159600000Y-108000000D03*
X160302944Y-109697056D03*
X162000000Y-110400000D03*
X163697056Y-109697056D03*
X164400000Y-108000000D03*
X163697056Y-106302944D03*
X162000000Y-105600000D03*
D26*
X162000000Y-108000000D03*
D25*
X163697056Y-46302944D03*
X162000000Y-45600000D03*
X160302944Y-46302944D03*
X159600000Y-48000000D03*
X160302944Y-49697056D03*
X162000000Y-50400000D03*
X163697056Y-49697056D03*
X164400000Y-48000000D03*
D26*
X162000000Y-48000000D03*
G04 #@! TA.AperFunction,SMDPad,CuDef*
G36*
G01*
X194056250Y-94450000D02*
X193143750Y-94450000D01*
G75*
G02*
X192900000Y-94206250I0J243750D01*
G01*
X192900000Y-93718750D01*
G75*
G02*
X193143750Y-93475000I243750J0D01*
G01*
X194056250Y-93475000D01*
G75*
G02*
X194300000Y-93718750I0J-243750D01*
G01*
X194300000Y-94206250D01*
G75*
G02*
X194056250Y-94450000I-243750J0D01*
G01*
G37*
G04 #@! TD.AperFunction*
G04 #@! TA.AperFunction,SMDPad,CuDef*
G36*
G01*
X194056250Y-96325000D02*
X193143750Y-96325000D01*
G75*
G02*
X192900000Y-96081250I0J243750D01*
G01*
X192900000Y-95593750D01*
G75*
G02*
X193143750Y-95350000I243750J0D01*
G01*
X194056250Y-95350000D01*
G75*
G02*
X194300000Y-95593750I0J-243750D01*
G01*
X194300000Y-96081250D01*
G75*
G02*
X194056250Y-96325000I-243750J0D01*
G01*
G37*
G04 #@! TD.AperFunction*
G04 #@! TA.AperFunction,SMDPad,CuDef*
G36*
G01*
X191556250Y-94450000D02*
X190643750Y-94450000D01*
G75*
G02*
X190400000Y-94206250I0J243750D01*
G01*
X190400000Y-93718750D01*
G75*
G02*
X190643750Y-93475000I243750J0D01*
G01*
X191556250Y-93475000D01*
G75*
G02*
X191800000Y-93718750I0J-243750D01*
G01*
X191800000Y-94206250D01*
G75*
G02*
X191556250Y-94450000I-243750J0D01*
G01*
G37*
G04 #@! TD.AperFunction*
G04 #@! TA.AperFunction,SMDPad,CuDef*
G36*
G01*
X191556250Y-96325000D02*
X190643750Y-96325000D01*
G75*
G02*
X190400000Y-96081250I0J243750D01*
G01*
X190400000Y-95593750D01*
G75*
G02*
X190643750Y-95350000I243750J0D01*
G01*
X191556250Y-95350000D01*
G75*
G02*
X191800000Y-95593750I0J-243750D01*
G01*
X191800000Y-96081250D01*
G75*
G02*
X191556250Y-96325000I-243750J0D01*
G01*
G37*
G04 #@! TD.AperFunction*
G04 #@! TA.AperFunction,SMDPad,CuDef*
G36*
G01*
X188956250Y-94450000D02*
X188043750Y-94450000D01*
G75*
G02*
X187800000Y-94206250I0J243750D01*
G01*
X187800000Y-93718750D01*
G75*
G02*
X188043750Y-93475000I243750J0D01*
G01*
X188956250Y-93475000D01*
G75*
G02*
X189200000Y-93718750I0J-243750D01*
G01*
X189200000Y-94206250D01*
G75*
G02*
X188956250Y-94450000I-243750J0D01*
G01*
G37*
G04 #@! TD.AperFunction*
G04 #@! TA.AperFunction,SMDPad,CuDef*
G36*
G01*
X188956250Y-96325000D02*
X188043750Y-96325000D01*
G75*
G02*
X187800000Y-96081250I0J243750D01*
G01*
X187800000Y-95593750D01*
G75*
G02*
X188043750Y-95350000I243750J0D01*
G01*
X188956250Y-95350000D01*
G75*
G02*
X189200000Y-95593750I0J-243750D01*
G01*
X189200000Y-96081250D01*
G75*
G02*
X188956250Y-96325000I-243750J0D01*
G01*
G37*
G04 #@! TD.AperFunction*
G04 #@! TA.AperFunction,SMDPad,CuDef*
G36*
G01*
X186356250Y-94450000D02*
X185443750Y-94450000D01*
G75*
G02*
X185200000Y-94206250I0J243750D01*
G01*
X185200000Y-93718750D01*
G75*
G02*
X185443750Y-93475000I243750J0D01*
G01*
X186356250Y-93475000D01*
G75*
G02*
X186600000Y-93718750I0J-243750D01*
G01*
X186600000Y-94206250D01*
G75*
G02*
X186356250Y-94450000I-243750J0D01*
G01*
G37*
G04 #@! TD.AperFunction*
G04 #@! TA.AperFunction,SMDPad,CuDef*
G36*
G01*
X186356250Y-96325000D02*
X185443750Y-96325000D01*
G75*
G02*
X185200000Y-96081250I0J243750D01*
G01*
X185200000Y-95593750D01*
G75*
G02*
X185443750Y-95350000I243750J0D01*
G01*
X186356250Y-95350000D01*
G75*
G02*
X186600000Y-95593750I0J-243750D01*
G01*
X186600000Y-96081250D01*
G75*
G02*
X186356250Y-96325000I-243750J0D01*
G01*
G37*
G04 #@! TD.AperFunction*
G04 #@! TA.AperFunction,SMDPad,CuDef*
G36*
G01*
X172149999Y-97850000D02*
X173050001Y-97850000D01*
G75*
G02*
X173300000Y-98099999I0J-249999D01*
G01*
X173300000Y-98750001D01*
G75*
G02*
X173050001Y-99000000I-249999J0D01*
G01*
X172149999Y-99000000D01*
G75*
G02*
X171900000Y-98750001I0J249999D01*
G01*
X171900000Y-98099999D01*
G75*
G02*
X172149999Y-97850000I249999J0D01*
G01*
G37*
G04 #@! TD.AperFunction*
G04 #@! TA.AperFunction,SMDPad,CuDef*
G36*
G01*
X172149999Y-95800000D02*
X173050001Y-95800000D01*
G75*
G02*
X173300000Y-96049999I0J-249999D01*
G01*
X173300000Y-96700001D01*
G75*
G02*
X173050001Y-96950000I-249999J0D01*
G01*
X172149999Y-96950000D01*
G75*
G02*
X171900000Y-96700001I0J249999D01*
G01*
X171900000Y-96049999D01*
G75*
G02*
X172149999Y-95800000I249999J0D01*
G01*
G37*
G04 #@! TD.AperFunction*
G04 #@! TA.AperFunction,SMDPad,CuDef*
G36*
G01*
X182450000Y-89250001D02*
X182450000Y-88349999D01*
G75*
G02*
X182699999Y-88100000I249999J0D01*
G01*
X183350001Y-88100000D01*
G75*
G02*
X183600000Y-88349999I0J-249999D01*
G01*
X183600000Y-89250001D01*
G75*
G02*
X183350001Y-89500000I-249999J0D01*
G01*
X182699999Y-89500000D01*
G75*
G02*
X182450000Y-89250001I0J249999D01*
G01*
G37*
G04 #@! TD.AperFunction*
G04 #@! TA.AperFunction,SMDPad,CuDef*
G36*
G01*
X180400000Y-89250001D02*
X180400000Y-88349999D01*
G75*
G02*
X180649999Y-88100000I249999J0D01*
G01*
X181300001Y-88100000D01*
G75*
G02*
X181550000Y-88349999I0J-249999D01*
G01*
X181550000Y-89250001D01*
G75*
G02*
X181300001Y-89500000I-249999J0D01*
G01*
X180649999Y-89500000D01*
G75*
G02*
X180400000Y-89250001I0J249999D01*
G01*
G37*
G04 #@! TD.AperFunction*
G04 #@! TA.AperFunction,SMDPad,CuDef*
G36*
G01*
X172950000Y-100549999D02*
X172950000Y-101450001D01*
G75*
G02*
X172700001Y-101700000I-249999J0D01*
G01*
X172049999Y-101700000D01*
G75*
G02*
X171800000Y-101450001I0J249999D01*
G01*
X171800000Y-100549999D01*
G75*
G02*
X172049999Y-100300000I249999J0D01*
G01*
X172700001Y-100300000D01*
G75*
G02*
X172950000Y-100549999I0J-249999D01*
G01*
G37*
G04 #@! TD.AperFunction*
G04 #@! TA.AperFunction,SMDPad,CuDef*
G36*
G01*
X175000000Y-100549999D02*
X175000000Y-101450001D01*
G75*
G02*
X174750001Y-101700000I-249999J0D01*
G01*
X174099999Y-101700000D01*
G75*
G02*
X173850000Y-101450001I0J249999D01*
G01*
X173850000Y-100549999D01*
G75*
G02*
X174099999Y-100300000I249999J0D01*
G01*
X174750001Y-100300000D01*
G75*
G02*
X175000000Y-100549999I0J-249999D01*
G01*
G37*
G04 #@! TD.AperFunction*
G04 #@! TA.AperFunction,SMDPad,CuDef*
G36*
G01*
X172950000Y-102749999D02*
X172950000Y-103650001D01*
G75*
G02*
X172700001Y-103900000I-249999J0D01*
G01*
X172049999Y-103900000D01*
G75*
G02*
X171800000Y-103650001I0J249999D01*
G01*
X171800000Y-102749999D01*
G75*
G02*
X172049999Y-102500000I249999J0D01*
G01*
X172700001Y-102500000D01*
G75*
G02*
X172950000Y-102749999I0J-249999D01*
G01*
G37*
G04 #@! TD.AperFunction*
G04 #@! TA.AperFunction,SMDPad,CuDef*
G36*
G01*
X175000000Y-102749999D02*
X175000000Y-103650001D01*
G75*
G02*
X174750001Y-103900000I-249999J0D01*
G01*
X174099999Y-103900000D01*
G75*
G02*
X173850000Y-103650001I0J249999D01*
G01*
X173850000Y-102749999D01*
G75*
G02*
X174099999Y-102500000I249999J0D01*
G01*
X174750001Y-102500000D01*
G75*
G02*
X175000000Y-102749999I0J-249999D01*
G01*
G37*
G04 #@! TD.AperFunction*
G04 #@! TA.AperFunction,SMDPad,CuDef*
G36*
G01*
X186600000Y-99849999D02*
X186600000Y-101150001D01*
G75*
G02*
X186350001Y-101400000I-249999J0D01*
G01*
X185524999Y-101400000D01*
G75*
G02*
X185275000Y-101150001I0J249999D01*
G01*
X185275000Y-99849999D01*
G75*
G02*
X185524999Y-99600000I249999J0D01*
G01*
X186350001Y-99600000D01*
G75*
G02*
X186600000Y-99849999I0J-249999D01*
G01*
G37*
G04 #@! TD.AperFunction*
G04 #@! TA.AperFunction,SMDPad,CuDef*
G36*
G01*
X189725000Y-99849999D02*
X189725000Y-101150001D01*
G75*
G02*
X189475001Y-101400000I-249999J0D01*
G01*
X188649999Y-101400000D01*
G75*
G02*
X188400000Y-101150001I0J249999D01*
G01*
X188400000Y-99849999D01*
G75*
G02*
X188649999Y-99600000I249999J0D01*
G01*
X189475001Y-99600000D01*
G75*
G02*
X189725000Y-99849999I0J-249999D01*
G01*
G37*
G04 #@! TD.AperFunction*
G04 #@! TA.AperFunction,SMDPad,CuDef*
G36*
G01*
X181149999Y-84200000D02*
X182450001Y-84200000D01*
G75*
G02*
X182700000Y-84449999I0J-249999D01*
G01*
X182700000Y-85275001D01*
G75*
G02*
X182450001Y-85525000I-249999J0D01*
G01*
X181149999Y-85525000D01*
G75*
G02*
X180900000Y-85275001I0J249999D01*
G01*
X180900000Y-84449999D01*
G75*
G02*
X181149999Y-84200000I249999J0D01*
G01*
G37*
G04 #@! TD.AperFunction*
G04 #@! TA.AperFunction,SMDPad,CuDef*
G36*
G01*
X181149999Y-81075000D02*
X182450001Y-81075000D01*
G75*
G02*
X182700000Y-81324999I0J-249999D01*
G01*
X182700000Y-82150001D01*
G75*
G02*
X182450001Y-82400000I-249999J0D01*
G01*
X181149999Y-82400000D01*
G75*
G02*
X180900000Y-82150001I0J249999D01*
G01*
X180900000Y-81324999D01*
G75*
G02*
X181149999Y-81075000I249999J0D01*
G01*
G37*
G04 #@! TD.AperFunction*
D27*
X176800000Y-97200000D03*
X178800000Y-97200000D03*
X178800000Y-95200000D03*
X176800000Y-95200000D03*
X177750000Y-96200000D03*
X166600000Y-96400000D03*
X183000000Y-60300000D03*
X172350000Y-105500010D03*
X195422723Y-70334274D03*
X182150000Y-100500000D03*
X196350000Y-78450000D03*
X196349986Y-74200014D03*
X185950000Y-61350000D03*
X185950002Y-65200000D03*
X182000000Y-86650000D03*
X183600000Y-80650000D03*
X185950000Y-56250000D03*
X185950000Y-52450000D03*
X181600000Y-74250000D03*
X171150000Y-96400000D03*
X169300000Y-99675010D03*
X169300000Y-93000000D03*
X180600000Y-103250000D03*
X180600000Y-108250000D03*
X163700000Y-52200000D03*
X194450000Y-57500000D03*
X192900000Y-64800000D03*
X185150004Y-57450000D03*
X193500000Y-56150000D03*
X192899996Y-63350000D03*
X167700000Y-75500000D03*
X186850000Y-60250000D03*
X179649994Y-71100000D03*
X169150000Y-64300000D03*
X181600004Y-70250000D03*
X181600000Y-71900000D03*
X184450000Y-55800000D03*
X184300000Y-58750000D03*
X183600000Y-79400000D03*
X184350000Y-91200000D03*
X193750000Y-68600000D03*
X190550000Y-66450000D03*
X186551041Y-71948959D03*
X172199998Y-84000000D03*
X186551041Y-77301041D03*
X188000000Y-56500000D03*
X190500000Y-62250000D03*
X177350000Y-92000000D03*
X191850000Y-66700000D03*
X191850000Y-56750002D03*
X191700000Y-77350000D03*
X191706546Y-73375010D03*
X194600000Y-75200000D03*
X160600000Y-95400000D03*
X160599994Y-97200000D03*
X161600000Y-96300000D03*
X161600000Y-97914989D03*
X174274990Y-87250000D03*
X174300008Y-91100000D03*
X175950000Y-91850000D03*
X179750000Y-92550000D03*
D28*
X163035000Y-91975000D02*
X162930000Y-92080000D01*
X166600000Y-91975000D02*
X163035000Y-91975000D01*
X166495000Y-100720000D02*
X166600000Y-100825000D01*
X162930000Y-100720000D02*
X166495000Y-100720000D01*
D29*
X163845000Y-99805000D02*
X162930000Y-100720000D01*
X163845000Y-99650000D02*
X163845000Y-99805000D01*
X163845000Y-92995000D02*
X162930000Y-92080000D01*
X163845000Y-93150000D02*
X163845000Y-92995000D01*
D30*
X168275000Y-96400000D02*
X166600000Y-96400000D01*
D31*
X172600000Y-100775000D02*
X172375000Y-101000000D01*
X172375000Y-101000000D02*
X172375000Y-103200000D01*
D29*
X172375000Y-98650000D02*
X172600000Y-98425000D01*
X172375000Y-101000000D02*
X172375000Y-98650000D01*
X171225000Y-99625000D02*
X172375000Y-99625000D01*
X170200000Y-100650000D02*
X171225000Y-99625000D01*
X166775000Y-100650000D02*
X170200000Y-100650000D01*
X166600000Y-100825000D02*
X166775000Y-100650000D01*
X185900000Y-100462500D02*
X185937500Y-100500000D01*
X185900000Y-95837500D02*
X185900000Y-100462500D01*
X185900000Y-95837500D02*
X188500000Y-95837500D01*
X188500000Y-95837500D02*
X191100000Y-95837500D01*
X191100000Y-95837500D02*
X193600000Y-95837500D01*
X183025000Y-86087500D02*
X181800000Y-84862500D01*
X183025000Y-88800000D02*
X183025000Y-86087500D01*
X178425000Y-101000000D02*
X181650000Y-101000000D01*
X182150000Y-100500000D02*
X181650000Y-101000000D01*
X185937500Y-100500000D02*
X182150000Y-100500000D01*
X182550000Y-101900000D02*
X182550000Y-103600000D01*
X181650000Y-101000000D02*
X182550000Y-101900000D01*
D30*
X174600000Y-95700000D02*
X175350000Y-95700000D01*
X173749990Y-94849990D02*
X174600000Y-95700000D01*
X172649990Y-94849990D02*
X173749990Y-94849990D01*
X169775000Y-91975000D02*
X172649990Y-94849990D01*
X166600000Y-91975000D02*
X169775000Y-91975000D01*
D29*
X166600000Y-86050000D02*
X166600000Y-91975000D01*
X170400000Y-82250000D02*
X166600000Y-86050000D01*
X177850000Y-82250000D02*
X170400000Y-82250000D01*
X180462500Y-84862500D02*
X177850000Y-82250000D01*
X181800000Y-84862500D02*
X180462500Y-84862500D01*
X172375000Y-105475010D02*
X172350000Y-105500010D01*
X172375000Y-103200000D02*
X172375000Y-105475010D01*
D28*
X183000000Y-66200000D02*
X183000000Y-60300000D01*
X188000000Y-71200000D02*
X183000000Y-66200000D01*
X193356997Y-72400000D02*
X195422723Y-70334274D01*
X189200000Y-72400000D02*
X193356997Y-72400000D01*
X189400000Y-71200000D02*
X188750000Y-71850000D01*
X188650000Y-71850000D02*
X189200000Y-72400000D01*
X188750000Y-71850000D02*
X188650000Y-71850000D01*
X188000000Y-71200000D02*
X188650000Y-71850000D01*
D29*
X185577500Y-81737500D02*
X186000000Y-82160000D01*
X181800000Y-81737500D02*
X185577500Y-81737500D01*
X196350000Y-78450000D02*
X196350000Y-74200028D01*
X196350000Y-74200028D02*
X196349986Y-74200014D01*
D30*
X175350000Y-97200000D02*
X174500000Y-97200000D01*
X174500000Y-97200000D02*
X174425000Y-97275000D01*
X174500000Y-97700000D02*
X174425000Y-97775000D01*
X175350000Y-97700000D02*
X174500000Y-97700000D01*
X174425000Y-97775000D02*
X174425000Y-101000000D01*
X174425000Y-97275000D02*
X174425000Y-97775000D01*
X174425000Y-101000000D02*
X174425000Y-103200000D01*
D29*
X189062500Y-105687500D02*
X188850000Y-105900000D01*
X189062500Y-100500000D02*
X189062500Y-105687500D01*
X193620000Y-88155000D02*
X193600000Y-88175000D01*
X193620000Y-84700000D02*
X193620000Y-88155000D01*
X182550000Y-105900000D02*
X188850000Y-105900000D01*
X193700000Y-100500000D02*
X189062500Y-100500000D01*
X195950000Y-98250000D02*
X193700000Y-100500000D01*
X195950000Y-87030000D02*
X195950000Y-98250000D01*
X193620000Y-84700000D02*
X195950000Y-87030000D01*
X182550000Y-105900000D02*
X177125000Y-105900000D01*
X177125000Y-105900000D02*
X174425000Y-103200000D01*
D30*
X180575000Y-89200000D02*
X180975000Y-88800000D01*
X189400000Y-68660000D02*
X185950002Y-65210002D01*
X185950002Y-65210002D02*
X185950002Y-65200000D01*
X178200000Y-89200000D02*
X179350000Y-89200000D01*
X179350000Y-89200000D02*
X180575000Y-89200000D01*
X185950000Y-61350000D02*
X185950000Y-56250000D01*
X189400000Y-53600000D02*
X188250000Y-52450000D01*
X188250000Y-52450000D02*
X185950000Y-52450000D01*
X189400000Y-53620000D02*
X189400000Y-53600000D01*
X179550000Y-87400000D02*
X180300000Y-86650000D01*
X179550000Y-89000000D02*
X179550000Y-87400000D01*
X180300000Y-86650000D02*
X182000000Y-86650000D01*
X179350000Y-89200000D02*
X179550000Y-89000000D01*
X183600000Y-80650000D02*
X181600000Y-78650000D01*
X181600000Y-78650000D02*
X181600000Y-74250000D01*
X163634999Y-94160001D02*
X163845000Y-93950000D01*
X160866997Y-98639999D02*
X159774999Y-97548001D01*
X159774999Y-95151999D02*
X160766997Y-94160001D01*
X163845000Y-98850000D02*
X163634999Y-98639999D01*
X163634999Y-98639999D02*
X160866997Y-98639999D01*
X160766997Y-94160001D02*
X163634999Y-94160001D01*
X159774999Y-97548001D02*
X159774999Y-95151999D01*
X166036810Y-93000000D02*
X169300000Y-93000000D01*
X165086810Y-93950000D02*
X166036810Y-93000000D01*
X163845000Y-93950000D02*
X165086810Y-93950000D01*
X164820000Y-98850000D02*
X163845000Y-98850000D01*
X165645010Y-99675010D02*
X164820000Y-98850000D01*
X169324990Y-99675010D02*
X169324990Y-99675010D01*
X172575000Y-96400000D02*
X172600000Y-96375000D01*
X169324990Y-99675010D02*
X165645010Y-99675010D01*
D31*
X171175000Y-96375000D02*
X171150000Y-96400000D01*
X172600000Y-96375000D02*
X171175000Y-96375000D01*
D30*
X170125000Y-96400000D02*
X171150000Y-96400000D01*
D29*
X180550000Y-103200000D02*
X180600000Y-103250000D01*
X178425000Y-103200000D02*
X180550000Y-103200000D01*
X180650000Y-108200000D02*
X180600000Y-108250000D01*
X182550000Y-108200000D02*
X180650000Y-108200000D01*
X191080000Y-88155000D02*
X191100000Y-88175000D01*
X191080000Y-84700000D02*
X191080000Y-88155000D01*
X185900000Y-90225000D02*
X185900000Y-93962500D01*
X188500000Y-90225000D02*
X188500000Y-93962500D01*
X191100000Y-90225000D02*
X191100000Y-93962500D01*
X193600000Y-90225000D02*
X193600000Y-93962500D01*
D30*
X176200000Y-78600000D02*
X176200000Y-77800000D01*
X175150000Y-79650000D02*
X176200000Y-78600000D01*
X172750000Y-79650000D02*
X175150000Y-79650000D01*
X171750000Y-78650000D02*
X172750000Y-79650000D01*
X162070000Y-78650000D02*
X171750000Y-78650000D01*
X160800000Y-77380000D02*
X162070000Y-78650000D01*
X199550000Y-58910000D02*
X198070000Y-57430000D01*
X199550000Y-60000000D02*
X199550000Y-58910000D01*
X199100000Y-60450000D02*
X199550000Y-60000000D01*
X193690000Y-60450000D02*
X199100000Y-60450000D01*
X199100000Y-68900000D02*
X199100000Y-60450000D01*
X198070000Y-69930000D02*
X199100000Y-68900000D01*
X192545000Y-59305000D02*
X193690000Y-60450000D01*
X190670000Y-57430000D02*
X192545000Y-59305000D01*
X169400000Y-46500000D02*
X163700000Y-52200000D01*
X170600000Y-46500000D02*
X169400000Y-46500000D01*
X192774999Y-59075001D02*
X192545000Y-59305000D01*
X192774999Y-51074999D02*
X192774999Y-59075001D01*
X189500000Y-47800000D02*
X192774999Y-51074999D01*
X171900000Y-47800000D02*
X189500000Y-47800000D01*
X170600000Y-46500000D02*
X171900000Y-47800000D01*
X194520000Y-57430000D02*
X194450000Y-57500000D01*
X196800000Y-57430000D02*
X194520000Y-57430000D01*
X180750000Y-53000000D02*
X179330000Y-51580000D01*
X180731000Y-53000000D02*
X180750000Y-53000000D01*
X181150000Y-53419000D02*
X180731000Y-53000000D01*
X181150000Y-55500000D02*
X181150000Y-53419000D01*
X179330000Y-51580000D02*
X179000000Y-51580000D01*
X181150000Y-67000000D02*
X181150000Y-55500000D01*
X173660000Y-77800000D02*
X175024999Y-76435001D01*
X175024999Y-76435001D02*
X176764001Y-76435001D01*
X178924993Y-69225007D02*
X181150000Y-67000000D01*
X176764001Y-76435001D02*
X178924993Y-74274009D01*
X178924993Y-74274009D02*
X178924993Y-69225007D01*
X187100000Y-64800000D02*
X185100000Y-62800000D01*
X185100000Y-62800000D02*
X185100000Y-57700000D01*
X192900000Y-64800000D02*
X187100000Y-64800000D01*
X185100000Y-57700000D02*
X185100000Y-57500004D01*
X185100000Y-57500004D02*
X185150004Y-57450000D01*
X181200000Y-57450000D02*
X185150004Y-57450000D01*
X181150000Y-57400000D02*
X181200000Y-57450000D01*
X181150000Y-55500000D02*
X181150000Y-57400000D01*
X171500000Y-77800000D02*
X173660000Y-77800000D01*
X164750000Y-71050000D02*
X171500000Y-77800000D01*
X162090000Y-71050000D02*
X164750000Y-71050000D01*
X160800000Y-69760000D02*
X162090000Y-71050000D01*
X193510000Y-56160000D02*
X193500000Y-56150000D01*
X196800000Y-56160000D02*
X193510000Y-56160000D01*
X167100000Y-76100000D02*
X167700000Y-75500000D01*
X162060000Y-76100000D02*
X167100000Y-76100000D01*
X160800000Y-74840000D02*
X162060000Y-76100000D01*
X186850000Y-55500000D02*
X186850000Y-60250000D01*
X188740000Y-55500000D02*
X186850000Y-55500000D01*
X189400000Y-56160000D02*
X188740000Y-55500000D01*
X189784314Y-63749999D02*
X192499997Y-63749999D01*
X186850000Y-60815685D02*
X189784314Y-63749999D01*
X192499997Y-63749999D02*
X192899996Y-63350000D01*
X186850000Y-60250000D02*
X186850000Y-60815685D01*
X198070000Y-54670000D02*
X198070000Y-56160000D01*
X189900000Y-46500000D02*
X198070000Y-54670000D01*
X179000000Y-46500000D02*
X189900000Y-46500000D01*
X171010000Y-75260000D02*
X173660000Y-75260000D01*
X164300000Y-68550000D02*
X171010000Y-75260000D01*
X162130000Y-68550000D02*
X164300000Y-68550000D01*
X160800000Y-67220000D02*
X162130000Y-68550000D01*
D29*
X186000000Y-88075000D02*
X185900000Y-88175000D01*
X186000000Y-84700000D02*
X186000000Y-88075000D01*
X179000000Y-64840000D02*
X176200000Y-67640000D01*
X179000000Y-56660000D02*
X179000000Y-64840000D01*
X161550034Y-56660000D02*
X170600000Y-56660000D01*
X159499990Y-58710044D02*
X161550034Y-56660000D01*
X159499990Y-81159990D02*
X159499990Y-58710044D01*
X160800000Y-82460000D02*
X159499990Y-81159990D01*
X184700000Y-83400000D02*
X180200001Y-83400000D01*
X179649994Y-82849993D02*
X179649994Y-71100000D01*
X180200001Y-83400000D02*
X179649994Y-82849993D01*
X186000000Y-84700000D02*
X184700000Y-83400000D01*
D30*
X198200000Y-84640000D02*
X192085002Y-78525002D01*
X183649999Y-76749999D02*
X183649999Y-72299995D01*
X185425002Y-78525002D02*
X183649999Y-76749999D01*
X192085002Y-78525002D02*
X185425002Y-78525002D01*
X183649999Y-72299995D02*
X181600004Y-70250000D01*
X165700000Y-60850000D02*
X169150000Y-64300000D01*
X162050000Y-60850000D02*
X165700000Y-60850000D01*
X160800000Y-59600000D02*
X162050000Y-60850000D01*
D29*
X188540000Y-88135000D02*
X188500000Y-88175000D01*
X188540000Y-84700000D02*
X188540000Y-88135000D01*
X180300001Y-66079999D02*
X176200000Y-70180000D01*
X180300001Y-55420001D02*
X180300001Y-66079999D01*
X179000000Y-54120000D02*
X180300001Y-55420001D01*
D31*
X183100000Y-76965685D02*
X183100000Y-73400000D01*
X187314999Y-81180684D02*
X183100000Y-76965685D01*
X183100000Y-73400000D02*
X181600000Y-71900000D01*
X187314999Y-83474999D02*
X187314999Y-81180684D01*
X188540000Y-84700000D02*
X187314999Y-83474999D01*
D30*
X185360000Y-54890000D02*
X184450000Y-55800000D01*
X189400000Y-54890000D02*
X185360000Y-54890000D01*
X188930000Y-69930000D02*
X189400000Y-69930000D01*
X184300000Y-65300000D02*
X188930000Y-69930000D01*
X184300000Y-58750000D02*
X184300000Y-65300000D01*
X183025000Y-91200000D02*
X184350000Y-91200000D01*
X196800000Y-68660000D02*
X193810000Y-68660000D01*
X193810000Y-68660000D02*
X193750000Y-68600000D01*
X181900000Y-60326998D02*
X183476998Y-58750000D01*
X180824998Y-72198000D02*
X180824998Y-67961412D01*
X181900000Y-66886410D02*
X181900000Y-60326998D01*
X183476998Y-58750000D02*
X184300000Y-58750000D01*
X182599990Y-73972992D02*
X180824998Y-72198000D01*
X180824998Y-67961412D02*
X181900000Y-66886410D01*
X183600000Y-79400000D02*
X182599990Y-78399990D01*
X182599990Y-78399990D02*
X182599990Y-73972992D01*
X190670000Y-66570000D02*
X190550000Y-66450000D01*
X190670000Y-68660000D02*
X190670000Y-66570000D01*
X173200000Y-89200000D02*
X172199998Y-88199998D01*
X172199998Y-88199998D02*
X172199998Y-84000000D01*
X186551041Y-71948959D02*
X186551041Y-77301041D01*
X188000000Y-59750000D02*
X190500000Y-62250000D01*
X188000000Y-56500000D02*
X188000000Y-59750000D01*
X177800000Y-92450000D02*
X177350000Y-92000000D01*
X177800000Y-93750000D02*
X177800000Y-92450000D01*
X191850000Y-56070000D02*
X191850000Y-56750002D01*
X190670000Y-54890000D02*
X191850000Y-56070000D01*
X191850000Y-66700000D02*
X192875000Y-67725000D01*
X192174998Y-68425002D02*
X190670000Y-69930000D01*
X192900000Y-67700000D02*
X192174998Y-68425002D01*
X197110000Y-67700000D02*
X192900000Y-67700000D01*
X198070000Y-68660000D02*
X197110000Y-67700000D01*
X191700002Y-77350000D02*
X191700002Y-73381554D01*
X191700002Y-73381554D02*
X191706546Y-73375010D01*
X170600000Y-51580000D02*
X172200000Y-53180000D01*
X172200000Y-53180000D02*
X172200000Y-73850000D01*
X172200000Y-73850000D02*
X172350000Y-74000000D01*
X172350000Y-74000000D02*
X174940000Y-74000000D01*
X174940000Y-74000000D02*
X176200000Y-75260000D01*
X196800000Y-69930000D02*
X196800000Y-70023004D01*
X196800000Y-70023004D02*
X194600000Y-72223004D01*
X194600000Y-72223004D02*
X194600000Y-75200000D01*
X165475000Y-95150000D02*
X166600000Y-94025000D01*
X163845000Y-95150000D02*
X165475000Y-95150000D01*
X162870000Y-95650000D02*
X162620000Y-95400000D01*
X163845000Y-95650000D02*
X162870000Y-95650000D01*
X162620000Y-95400000D02*
X160600000Y-95400000D01*
X161948001Y-97189988D02*
X160610006Y-97189988D01*
X163845000Y-96650000D02*
X162487989Y-96650000D01*
X162487989Y-96650000D02*
X161948001Y-97189988D01*
X160610006Y-97189988D02*
X160599994Y-97200000D01*
X163845000Y-96650000D02*
X165750000Y-96650000D01*
X166225001Y-97125001D02*
X166974999Y-97125001D01*
X165750000Y-96650000D02*
X166225001Y-97125001D01*
X167162500Y-96937500D02*
X168350000Y-96937500D01*
X166974999Y-97125001D02*
X167162500Y-96937500D01*
X161750000Y-96150000D02*
X161600000Y-96300000D01*
X163845000Y-96150000D02*
X161750000Y-96150000D01*
X162105011Y-97914989D02*
X161600000Y-97914989D01*
X162870000Y-97150000D02*
X162105011Y-97914989D01*
X163845000Y-97150000D02*
X162870000Y-97150000D01*
X166251999Y-95674999D02*
X166974999Y-95674999D01*
X165776998Y-96150000D02*
X166251999Y-95674999D01*
X163845000Y-96150000D02*
X165776998Y-96150000D01*
X167162500Y-95862500D02*
X168350000Y-95862500D01*
X166974999Y-95674999D02*
X167162500Y-95862500D01*
X165975000Y-98150000D02*
X166600000Y-98775000D01*
X163845000Y-98150000D02*
X165975000Y-98150000D01*
X176200000Y-90150000D02*
X176200000Y-91100000D01*
X178300000Y-91650000D02*
X178300000Y-93750000D01*
X177750000Y-91100000D02*
X178300000Y-91650000D01*
X176200000Y-91100000D02*
X177750000Y-91100000D01*
X173225000Y-85800000D02*
X173225000Y-86200010D01*
X173225000Y-86200010D02*
X174274990Y-87250000D01*
X176200000Y-91100000D02*
X174300008Y-91100000D01*
X176200000Y-85825000D02*
X176175000Y-85800000D01*
X176200000Y-88250000D02*
X176200000Y-85825000D01*
X170500000Y-90150000D02*
X171200000Y-90150000D01*
X170150000Y-90500000D02*
X170500000Y-90150000D01*
X171500000Y-92600000D02*
X170150000Y-91250000D01*
X170150000Y-91250000D02*
X170150000Y-90500000D01*
X176300000Y-92900000D02*
X176000000Y-92600000D01*
X176000000Y-92600000D02*
X171500000Y-92600000D01*
X176300000Y-93750000D02*
X176300000Y-92900000D01*
X175000000Y-88835002D02*
X173685002Y-90150000D01*
X175000000Y-85050000D02*
X175000000Y-88835002D01*
X175550000Y-84500000D02*
X175000000Y-85050000D01*
X177850000Y-84500000D02*
X175550000Y-84500000D01*
X178225000Y-85800000D02*
X178225000Y-84875000D01*
X173685002Y-90150000D02*
X171200000Y-90150000D01*
X178225000Y-84875000D02*
X177850000Y-84500000D01*
X171200000Y-85825000D02*
X171175000Y-85800000D01*
X171200000Y-88250000D02*
X171200000Y-85825000D01*
X176375000Y-101000000D02*
X176375000Y-103200000D01*
X176300000Y-100925000D02*
X176375000Y-101000000D01*
X176300000Y-98650000D02*
X176300000Y-100925000D01*
X177300000Y-93750000D02*
X177300000Y-93200000D01*
X177300000Y-93200000D02*
X175950000Y-91850000D01*
X180975000Y-91325000D02*
X179750000Y-92550000D01*
X180975000Y-91200000D02*
X180975000Y-91325000D01*
X174350000Y-96700000D02*
X175350000Y-96700000D01*
X173525010Y-97524990D02*
X174350000Y-96700000D01*
X170637490Y-97524990D02*
X173525010Y-97524990D01*
X170050000Y-96937500D02*
X170637490Y-97524990D01*
X174350000Y-96200000D02*
X175350000Y-96200000D01*
X173450000Y-95300000D02*
X174350000Y-96200000D01*
X170612500Y-95300000D02*
X173450000Y-95300000D01*
X170050000Y-95862500D02*
X170612500Y-95300000D01*
M02*
