G04 #@! TF.GenerationSoftware,KiCad,Pcbnew,(5.1.10)-1*
G04 #@! TF.CreationDate,2021-10-05T03:14:11+03:00*
G04 #@! TF.ProjectId,programming_board,70726f67-7261-46d6-9d69-6e675f626f61,rev?*
G04 #@! TF.SameCoordinates,Original*
G04 #@! TF.FileFunction,Paste,Top*
G04 #@! TF.FilePolarity,Positive*
%FSLAX46Y46*%
G04 Gerber Fmt 4.6, Leading zero omitted, Abs format (unit mm)*
G04 Created by KiCad (PCBNEW (5.1.10)-1) date 2021-10-05 03:14:11*
%MOMM*%
%LPD*%
G01*
G04 APERTURE LIST*
%ADD10R,0.500000X0.375000*%
%ADD11R,0.650000X0.300000*%
%ADD12R,2.000000X1.500000*%
%ADD13R,2.000000X3.800000*%
%ADD14R,0.900000X0.800000*%
%ADD15R,1.450000X0.600000*%
%ADD16R,1.450000X0.300000*%
G04 APERTURE END LIST*
G36*
G01*
X178470000Y-97545000D02*
X178470000Y-97095000D01*
G75*
G02*
X178695000Y-96870000I225000J0D01*
G01*
X179145000Y-96870000D01*
G75*
G02*
X179370000Y-97095000I0J-225000D01*
G01*
X179370000Y-97545000D01*
G75*
G02*
X179145000Y-97770000I-225000J0D01*
G01*
X178695000Y-97770000D01*
G75*
G02*
X178470000Y-97545000I0J225000D01*
G01*
G37*
G36*
G01*
X178470000Y-96425000D02*
X178470000Y-95975000D01*
G75*
G02*
X178695000Y-95750000I225000J0D01*
G01*
X179145000Y-95750000D01*
G75*
G02*
X179370000Y-95975000I0J-225000D01*
G01*
X179370000Y-96425000D01*
G75*
G02*
X179145000Y-96650000I-225000J0D01*
G01*
X178695000Y-96650000D01*
G75*
G02*
X178470000Y-96425000I0J225000D01*
G01*
G37*
G36*
G01*
X178470000Y-95305000D02*
X178470000Y-94855000D01*
G75*
G02*
X178695000Y-94630000I225000J0D01*
G01*
X179145000Y-94630000D01*
G75*
G02*
X179370000Y-94855000I0J-225000D01*
G01*
X179370000Y-95305000D01*
G75*
G02*
X179145000Y-95530000I-225000J0D01*
G01*
X178695000Y-95530000D01*
G75*
G02*
X178470000Y-95305000I0J225000D01*
G01*
G37*
G36*
G01*
X177350000Y-97545000D02*
X177350000Y-97095000D01*
G75*
G02*
X177575000Y-96870000I225000J0D01*
G01*
X178025000Y-96870000D01*
G75*
G02*
X178250000Y-97095000I0J-225000D01*
G01*
X178250000Y-97545000D01*
G75*
G02*
X178025000Y-97770000I-225000J0D01*
G01*
X177575000Y-97770000D01*
G75*
G02*
X177350000Y-97545000I0J225000D01*
G01*
G37*
G36*
G01*
X177350000Y-96425000D02*
X177350000Y-95975000D01*
G75*
G02*
X177575000Y-95750000I225000J0D01*
G01*
X178025000Y-95750000D01*
G75*
G02*
X178250000Y-95975000I0J-225000D01*
G01*
X178250000Y-96425000D01*
G75*
G02*
X178025000Y-96650000I-225000J0D01*
G01*
X177575000Y-96650000D01*
G75*
G02*
X177350000Y-96425000I0J225000D01*
G01*
G37*
G36*
G01*
X177350000Y-95305000D02*
X177350000Y-94855000D01*
G75*
G02*
X177575000Y-94630000I225000J0D01*
G01*
X178025000Y-94630000D01*
G75*
G02*
X178250000Y-94855000I0J-225000D01*
G01*
X178250000Y-95305000D01*
G75*
G02*
X178025000Y-95530000I-225000J0D01*
G01*
X177575000Y-95530000D01*
G75*
G02*
X177350000Y-95305000I0J225000D01*
G01*
G37*
G36*
G01*
X176230000Y-97545000D02*
X176230000Y-97095000D01*
G75*
G02*
X176455000Y-96870000I225000J0D01*
G01*
X176905000Y-96870000D01*
G75*
G02*
X177130000Y-97095000I0J-225000D01*
G01*
X177130000Y-97545000D01*
G75*
G02*
X176905000Y-97770000I-225000J0D01*
G01*
X176455000Y-97770000D01*
G75*
G02*
X176230000Y-97545000I0J225000D01*
G01*
G37*
G36*
G01*
X176230000Y-96425000D02*
X176230000Y-95975000D01*
G75*
G02*
X176455000Y-95750000I225000J0D01*
G01*
X176905000Y-95750000D01*
G75*
G02*
X177130000Y-95975000I0J-225000D01*
G01*
X177130000Y-96425000D01*
G75*
G02*
X176905000Y-96650000I-225000J0D01*
G01*
X176455000Y-96650000D01*
G75*
G02*
X176230000Y-96425000I0J225000D01*
G01*
G37*
G36*
G01*
X176230000Y-95305000D02*
X176230000Y-94855000D01*
G75*
G02*
X176455000Y-94630000I225000J0D01*
G01*
X176905000Y-94630000D01*
G75*
G02*
X177130000Y-94855000I0J-225000D01*
G01*
X177130000Y-95305000D01*
G75*
G02*
X176905000Y-95530000I-225000J0D01*
G01*
X176455000Y-95530000D01*
G75*
G02*
X176230000Y-95305000I0J225000D01*
G01*
G37*
G36*
G01*
X176175000Y-94087500D02*
X176175000Y-93412500D01*
G75*
G02*
X176237500Y-93350000I62500J0D01*
G01*
X176362500Y-93350000D01*
G75*
G02*
X176425000Y-93412500I0J-62500D01*
G01*
X176425000Y-94087500D01*
G75*
G02*
X176362500Y-94150000I-62500J0D01*
G01*
X176237500Y-94150000D01*
G75*
G02*
X176175000Y-94087500I0J62500D01*
G01*
G37*
G36*
G01*
X176675000Y-94087500D02*
X176675000Y-93412500D01*
G75*
G02*
X176737500Y-93350000I62500J0D01*
G01*
X176862500Y-93350000D01*
G75*
G02*
X176925000Y-93412500I0J-62500D01*
G01*
X176925000Y-94087500D01*
G75*
G02*
X176862500Y-94150000I-62500J0D01*
G01*
X176737500Y-94150000D01*
G75*
G02*
X176675000Y-94087500I0J62500D01*
G01*
G37*
G36*
G01*
X177175000Y-94087500D02*
X177175000Y-93412500D01*
G75*
G02*
X177237500Y-93350000I62500J0D01*
G01*
X177362500Y-93350000D01*
G75*
G02*
X177425000Y-93412500I0J-62500D01*
G01*
X177425000Y-94087500D01*
G75*
G02*
X177362500Y-94150000I-62500J0D01*
G01*
X177237500Y-94150000D01*
G75*
G02*
X177175000Y-94087500I0J62500D01*
G01*
G37*
G36*
G01*
X177675000Y-94087500D02*
X177675000Y-93412500D01*
G75*
G02*
X177737500Y-93350000I62500J0D01*
G01*
X177862500Y-93350000D01*
G75*
G02*
X177925000Y-93412500I0J-62500D01*
G01*
X177925000Y-94087500D01*
G75*
G02*
X177862500Y-94150000I-62500J0D01*
G01*
X177737500Y-94150000D01*
G75*
G02*
X177675000Y-94087500I0J62500D01*
G01*
G37*
G36*
G01*
X178175000Y-94087500D02*
X178175000Y-93412500D01*
G75*
G02*
X178237500Y-93350000I62500J0D01*
G01*
X178362500Y-93350000D01*
G75*
G02*
X178425000Y-93412500I0J-62500D01*
G01*
X178425000Y-94087500D01*
G75*
G02*
X178362500Y-94150000I-62500J0D01*
G01*
X178237500Y-94150000D01*
G75*
G02*
X178175000Y-94087500I0J62500D01*
G01*
G37*
G36*
G01*
X178675000Y-94087500D02*
X178675000Y-93412500D01*
G75*
G02*
X178737500Y-93350000I62500J0D01*
G01*
X178862500Y-93350000D01*
G75*
G02*
X178925000Y-93412500I0J-62500D01*
G01*
X178925000Y-94087500D01*
G75*
G02*
X178862500Y-94150000I-62500J0D01*
G01*
X178737500Y-94150000D01*
G75*
G02*
X178675000Y-94087500I0J62500D01*
G01*
G37*
G36*
G01*
X179175000Y-94087500D02*
X179175000Y-93412500D01*
G75*
G02*
X179237500Y-93350000I62500J0D01*
G01*
X179362500Y-93350000D01*
G75*
G02*
X179425000Y-93412500I0J-62500D01*
G01*
X179425000Y-94087500D01*
G75*
G02*
X179362500Y-94150000I-62500J0D01*
G01*
X179237500Y-94150000D01*
G75*
G02*
X179175000Y-94087500I0J62500D01*
G01*
G37*
G36*
G01*
X179850000Y-94762500D02*
X179850000Y-94637500D01*
G75*
G02*
X179912500Y-94575000I62500J0D01*
G01*
X180587500Y-94575000D01*
G75*
G02*
X180650000Y-94637500I0J-62500D01*
G01*
X180650000Y-94762500D01*
G75*
G02*
X180587500Y-94825000I-62500J0D01*
G01*
X179912500Y-94825000D01*
G75*
G02*
X179850000Y-94762500I0J62500D01*
G01*
G37*
G36*
G01*
X179850000Y-95262500D02*
X179850000Y-95137500D01*
G75*
G02*
X179912500Y-95075000I62500J0D01*
G01*
X180587500Y-95075000D01*
G75*
G02*
X180650000Y-95137500I0J-62500D01*
G01*
X180650000Y-95262500D01*
G75*
G02*
X180587500Y-95325000I-62500J0D01*
G01*
X179912500Y-95325000D01*
G75*
G02*
X179850000Y-95262500I0J62500D01*
G01*
G37*
G36*
G01*
X179850000Y-95762500D02*
X179850000Y-95637500D01*
G75*
G02*
X179912500Y-95575000I62500J0D01*
G01*
X180587500Y-95575000D01*
G75*
G02*
X180650000Y-95637500I0J-62500D01*
G01*
X180650000Y-95762500D01*
G75*
G02*
X180587500Y-95825000I-62500J0D01*
G01*
X179912500Y-95825000D01*
G75*
G02*
X179850000Y-95762500I0J62500D01*
G01*
G37*
G36*
G01*
X179850000Y-96262500D02*
X179850000Y-96137500D01*
G75*
G02*
X179912500Y-96075000I62500J0D01*
G01*
X180587500Y-96075000D01*
G75*
G02*
X180650000Y-96137500I0J-62500D01*
G01*
X180650000Y-96262500D01*
G75*
G02*
X180587500Y-96325000I-62500J0D01*
G01*
X179912500Y-96325000D01*
G75*
G02*
X179850000Y-96262500I0J62500D01*
G01*
G37*
G36*
G01*
X179850000Y-96762500D02*
X179850000Y-96637500D01*
G75*
G02*
X179912500Y-96575000I62500J0D01*
G01*
X180587500Y-96575000D01*
G75*
G02*
X180650000Y-96637500I0J-62500D01*
G01*
X180650000Y-96762500D01*
G75*
G02*
X180587500Y-96825000I-62500J0D01*
G01*
X179912500Y-96825000D01*
G75*
G02*
X179850000Y-96762500I0J62500D01*
G01*
G37*
G36*
G01*
X179850000Y-97262500D02*
X179850000Y-97137500D01*
G75*
G02*
X179912500Y-97075000I62500J0D01*
G01*
X180587500Y-97075000D01*
G75*
G02*
X180650000Y-97137500I0J-62500D01*
G01*
X180650000Y-97262500D01*
G75*
G02*
X180587500Y-97325000I-62500J0D01*
G01*
X179912500Y-97325000D01*
G75*
G02*
X179850000Y-97262500I0J62500D01*
G01*
G37*
G36*
G01*
X179850000Y-97762500D02*
X179850000Y-97637500D01*
G75*
G02*
X179912500Y-97575000I62500J0D01*
G01*
X180587500Y-97575000D01*
G75*
G02*
X180650000Y-97637500I0J-62500D01*
G01*
X180650000Y-97762500D01*
G75*
G02*
X180587500Y-97825000I-62500J0D01*
G01*
X179912500Y-97825000D01*
G75*
G02*
X179850000Y-97762500I0J62500D01*
G01*
G37*
G36*
G01*
X179175000Y-98987500D02*
X179175000Y-98312500D01*
G75*
G02*
X179237500Y-98250000I62500J0D01*
G01*
X179362500Y-98250000D01*
G75*
G02*
X179425000Y-98312500I0J-62500D01*
G01*
X179425000Y-98987500D01*
G75*
G02*
X179362500Y-99050000I-62500J0D01*
G01*
X179237500Y-99050000D01*
G75*
G02*
X179175000Y-98987500I0J62500D01*
G01*
G37*
G36*
G01*
X178675000Y-98987500D02*
X178675000Y-98312500D01*
G75*
G02*
X178737500Y-98250000I62500J0D01*
G01*
X178862500Y-98250000D01*
G75*
G02*
X178925000Y-98312500I0J-62500D01*
G01*
X178925000Y-98987500D01*
G75*
G02*
X178862500Y-99050000I-62500J0D01*
G01*
X178737500Y-99050000D01*
G75*
G02*
X178675000Y-98987500I0J62500D01*
G01*
G37*
G36*
G01*
X178175000Y-98987500D02*
X178175000Y-98312500D01*
G75*
G02*
X178237500Y-98250000I62500J0D01*
G01*
X178362500Y-98250000D01*
G75*
G02*
X178425000Y-98312500I0J-62500D01*
G01*
X178425000Y-98987500D01*
G75*
G02*
X178362500Y-99050000I-62500J0D01*
G01*
X178237500Y-99050000D01*
G75*
G02*
X178175000Y-98987500I0J62500D01*
G01*
G37*
G36*
G01*
X177675000Y-98987500D02*
X177675000Y-98312500D01*
G75*
G02*
X177737500Y-98250000I62500J0D01*
G01*
X177862500Y-98250000D01*
G75*
G02*
X177925000Y-98312500I0J-62500D01*
G01*
X177925000Y-98987500D01*
G75*
G02*
X177862500Y-99050000I-62500J0D01*
G01*
X177737500Y-99050000D01*
G75*
G02*
X177675000Y-98987500I0J62500D01*
G01*
G37*
G36*
G01*
X177175000Y-98987500D02*
X177175000Y-98312500D01*
G75*
G02*
X177237500Y-98250000I62500J0D01*
G01*
X177362500Y-98250000D01*
G75*
G02*
X177425000Y-98312500I0J-62500D01*
G01*
X177425000Y-98987500D01*
G75*
G02*
X177362500Y-99050000I-62500J0D01*
G01*
X177237500Y-99050000D01*
G75*
G02*
X177175000Y-98987500I0J62500D01*
G01*
G37*
G36*
G01*
X176675000Y-98987500D02*
X176675000Y-98312500D01*
G75*
G02*
X176737500Y-98250000I62500J0D01*
G01*
X176862500Y-98250000D01*
G75*
G02*
X176925000Y-98312500I0J-62500D01*
G01*
X176925000Y-98987500D01*
G75*
G02*
X176862500Y-99050000I-62500J0D01*
G01*
X176737500Y-99050000D01*
G75*
G02*
X176675000Y-98987500I0J62500D01*
G01*
G37*
G36*
G01*
X176175000Y-98987500D02*
X176175000Y-98312500D01*
G75*
G02*
X176237500Y-98250000I62500J0D01*
G01*
X176362500Y-98250000D01*
G75*
G02*
X176425000Y-98312500I0J-62500D01*
G01*
X176425000Y-98987500D01*
G75*
G02*
X176362500Y-99050000I-62500J0D01*
G01*
X176237500Y-99050000D01*
G75*
G02*
X176175000Y-98987500I0J62500D01*
G01*
G37*
G36*
G01*
X174950000Y-97762500D02*
X174950000Y-97637500D01*
G75*
G02*
X175012500Y-97575000I62500J0D01*
G01*
X175687500Y-97575000D01*
G75*
G02*
X175750000Y-97637500I0J-62500D01*
G01*
X175750000Y-97762500D01*
G75*
G02*
X175687500Y-97825000I-62500J0D01*
G01*
X175012500Y-97825000D01*
G75*
G02*
X174950000Y-97762500I0J62500D01*
G01*
G37*
G36*
G01*
X174950000Y-97262500D02*
X174950000Y-97137500D01*
G75*
G02*
X175012500Y-97075000I62500J0D01*
G01*
X175687500Y-97075000D01*
G75*
G02*
X175750000Y-97137500I0J-62500D01*
G01*
X175750000Y-97262500D01*
G75*
G02*
X175687500Y-97325000I-62500J0D01*
G01*
X175012500Y-97325000D01*
G75*
G02*
X174950000Y-97262500I0J62500D01*
G01*
G37*
G36*
G01*
X174950000Y-96762500D02*
X174950000Y-96637500D01*
G75*
G02*
X175012500Y-96575000I62500J0D01*
G01*
X175687500Y-96575000D01*
G75*
G02*
X175750000Y-96637500I0J-62500D01*
G01*
X175750000Y-96762500D01*
G75*
G02*
X175687500Y-96825000I-62500J0D01*
G01*
X175012500Y-96825000D01*
G75*
G02*
X174950000Y-96762500I0J62500D01*
G01*
G37*
G36*
G01*
X174950000Y-96262500D02*
X174950000Y-96137500D01*
G75*
G02*
X175012500Y-96075000I62500J0D01*
G01*
X175687500Y-96075000D01*
G75*
G02*
X175750000Y-96137500I0J-62500D01*
G01*
X175750000Y-96262500D01*
G75*
G02*
X175687500Y-96325000I-62500J0D01*
G01*
X175012500Y-96325000D01*
G75*
G02*
X174950000Y-96262500I0J62500D01*
G01*
G37*
G36*
G01*
X174950000Y-95762500D02*
X174950000Y-95637500D01*
G75*
G02*
X175012500Y-95575000I62500J0D01*
G01*
X175687500Y-95575000D01*
G75*
G02*
X175750000Y-95637500I0J-62500D01*
G01*
X175750000Y-95762500D01*
G75*
G02*
X175687500Y-95825000I-62500J0D01*
G01*
X175012500Y-95825000D01*
G75*
G02*
X174950000Y-95762500I0J62500D01*
G01*
G37*
G36*
G01*
X174950000Y-95262500D02*
X174950000Y-95137500D01*
G75*
G02*
X175012500Y-95075000I62500J0D01*
G01*
X175687500Y-95075000D01*
G75*
G02*
X175750000Y-95137500I0J-62500D01*
G01*
X175750000Y-95262500D01*
G75*
G02*
X175687500Y-95325000I-62500J0D01*
G01*
X175012500Y-95325000D01*
G75*
G02*
X174950000Y-95262500I0J62500D01*
G01*
G37*
G36*
G01*
X174950000Y-94762500D02*
X174950000Y-94637500D01*
G75*
G02*
X175012500Y-94575000I62500J0D01*
G01*
X175687500Y-94575000D01*
G75*
G02*
X175750000Y-94637500I0J-62500D01*
G01*
X175750000Y-94762500D01*
G75*
G02*
X175687500Y-94825000I-62500J0D01*
G01*
X175012500Y-94825000D01*
G75*
G02*
X174950000Y-94762500I0J62500D01*
G01*
G37*
D10*
X170050000Y-95862500D03*
X170050000Y-96937500D03*
D11*
X168275000Y-96400000D03*
X170125000Y-96400000D03*
D10*
X168350000Y-96937500D03*
X168350000Y-95862500D03*
D12*
X182550000Y-103600000D03*
X182550000Y-108200000D03*
X182550000Y-105900000D03*
D13*
X188850000Y-105900000D03*
G36*
G01*
X167050001Y-99350000D02*
X166149999Y-99350000D01*
G75*
G02*
X165900000Y-99100001I0J249999D01*
G01*
X165900000Y-98449999D01*
G75*
G02*
X166149999Y-98200000I249999J0D01*
G01*
X167050001Y-98200000D01*
G75*
G02*
X167300000Y-98449999I0J-249999D01*
G01*
X167300000Y-99100001D01*
G75*
G02*
X167050001Y-99350000I-249999J0D01*
G01*
G37*
G36*
G01*
X167050001Y-101400000D02*
X166149999Y-101400000D01*
G75*
G02*
X165900000Y-101150001I0J249999D01*
G01*
X165900000Y-100499999D01*
G75*
G02*
X166149999Y-100250000I249999J0D01*
G01*
X167050001Y-100250000D01*
G75*
G02*
X167300000Y-100499999I0J-249999D01*
G01*
X167300000Y-101150001D01*
G75*
G02*
X167050001Y-101400000I-249999J0D01*
G01*
G37*
G36*
G01*
X172650000Y-86250001D02*
X172650000Y-85349999D01*
G75*
G02*
X172899999Y-85100000I249999J0D01*
G01*
X173550001Y-85100000D01*
G75*
G02*
X173800000Y-85349999I0J-249999D01*
G01*
X173800000Y-86250001D01*
G75*
G02*
X173550001Y-86500000I-249999J0D01*
G01*
X172899999Y-86500000D01*
G75*
G02*
X172650000Y-86250001I0J249999D01*
G01*
G37*
G36*
G01*
X170600000Y-86250001D02*
X170600000Y-85349999D01*
G75*
G02*
X170849999Y-85100000I249999J0D01*
G01*
X171500001Y-85100000D01*
G75*
G02*
X171750000Y-85349999I0J-249999D01*
G01*
X171750000Y-86250001D01*
G75*
G02*
X171500001Y-86500000I-249999J0D01*
G01*
X170849999Y-86500000D01*
G75*
G02*
X170600000Y-86250001I0J249999D01*
G01*
G37*
G36*
G01*
X166149999Y-93450000D02*
X167050001Y-93450000D01*
G75*
G02*
X167300000Y-93699999I0J-249999D01*
G01*
X167300000Y-94350001D01*
G75*
G02*
X167050001Y-94600000I-249999J0D01*
G01*
X166149999Y-94600000D01*
G75*
G02*
X165900000Y-94350001I0J249999D01*
G01*
X165900000Y-93699999D01*
G75*
G02*
X166149999Y-93450000I249999J0D01*
G01*
G37*
G36*
G01*
X166149999Y-91400000D02*
X167050001Y-91400000D01*
G75*
G02*
X167300000Y-91649999I0J-249999D01*
G01*
X167300000Y-92300001D01*
G75*
G02*
X167050001Y-92550000I-249999J0D01*
G01*
X166149999Y-92550000D01*
G75*
G02*
X165900000Y-92300001I0J249999D01*
G01*
X165900000Y-91649999D01*
G75*
G02*
X166149999Y-91400000I249999J0D01*
G01*
G37*
G36*
G01*
X177650000Y-86250001D02*
X177650000Y-85349999D01*
G75*
G02*
X177899999Y-85100000I249999J0D01*
G01*
X178550001Y-85100000D01*
G75*
G02*
X178800000Y-85349999I0J-249999D01*
G01*
X178800000Y-86250001D01*
G75*
G02*
X178550001Y-86500000I-249999J0D01*
G01*
X177899999Y-86500000D01*
G75*
G02*
X177650000Y-86250001I0J249999D01*
G01*
G37*
G36*
G01*
X175600000Y-86250001D02*
X175600000Y-85349999D01*
G75*
G02*
X175849999Y-85100000I249999J0D01*
G01*
X176500001Y-85100000D01*
G75*
G02*
X176750000Y-85349999I0J-249999D01*
G01*
X176750000Y-86250001D01*
G75*
G02*
X176500001Y-86500000I-249999J0D01*
G01*
X175849999Y-86500000D01*
G75*
G02*
X175600000Y-86250001I0J249999D01*
G01*
G37*
G36*
G01*
X176950000Y-100549999D02*
X176950000Y-101450001D01*
G75*
G02*
X176700001Y-101700000I-249999J0D01*
G01*
X176049999Y-101700000D01*
G75*
G02*
X175800000Y-101450001I0J249999D01*
G01*
X175800000Y-100549999D01*
G75*
G02*
X176049999Y-100300000I249999J0D01*
G01*
X176700001Y-100300000D01*
G75*
G02*
X176950000Y-100549999I0J-249999D01*
G01*
G37*
G36*
G01*
X179000000Y-100549999D02*
X179000000Y-101450001D01*
G75*
G02*
X178750001Y-101700000I-249999J0D01*
G01*
X178099999Y-101700000D01*
G75*
G02*
X177850000Y-101450001I0J249999D01*
G01*
X177850000Y-100549999D01*
G75*
G02*
X178099999Y-100300000I249999J0D01*
G01*
X178750001Y-100300000D01*
G75*
G02*
X179000000Y-100549999I0J-249999D01*
G01*
G37*
G36*
G01*
X182450000Y-91650001D02*
X182450000Y-90749999D01*
G75*
G02*
X182699999Y-90500000I249999J0D01*
G01*
X183350001Y-90500000D01*
G75*
G02*
X183600000Y-90749999I0J-249999D01*
G01*
X183600000Y-91650001D01*
G75*
G02*
X183350001Y-91900000I-249999J0D01*
G01*
X182699999Y-91900000D01*
G75*
G02*
X182450000Y-91650001I0J249999D01*
G01*
G37*
G36*
G01*
X180400000Y-91650001D02*
X180400000Y-90749999D01*
G75*
G02*
X180649999Y-90500000I249999J0D01*
G01*
X181300001Y-90500000D01*
G75*
G02*
X181550000Y-90749999I0J-249999D01*
G01*
X181550000Y-91650001D01*
G75*
G02*
X181300001Y-91900000I-249999J0D01*
G01*
X180649999Y-91900000D01*
G75*
G02*
X180400000Y-91650001I0J249999D01*
G01*
G37*
G36*
G01*
X177850000Y-103650001D02*
X177850000Y-102749999D01*
G75*
G02*
X178099999Y-102500000I249999J0D01*
G01*
X178750001Y-102500000D01*
G75*
G02*
X179000000Y-102749999I0J-249999D01*
G01*
X179000000Y-103650001D01*
G75*
G02*
X178750001Y-103900000I-249999J0D01*
G01*
X178099999Y-103900000D01*
G75*
G02*
X177850000Y-103650001I0J249999D01*
G01*
G37*
G36*
G01*
X175800000Y-103650001D02*
X175800000Y-102749999D01*
G75*
G02*
X176049999Y-102500000I249999J0D01*
G01*
X176700001Y-102500000D01*
G75*
G02*
X176950000Y-102749999I0J-249999D01*
G01*
X176950000Y-103650001D01*
G75*
G02*
X176700001Y-103900000I-249999J0D01*
G01*
X176049999Y-103900000D01*
G75*
G02*
X175800000Y-103650001I0J249999D01*
G01*
G37*
G36*
G01*
X193149999Y-89650000D02*
X194050001Y-89650000D01*
G75*
G02*
X194300000Y-89899999I0J-249999D01*
G01*
X194300000Y-90550001D01*
G75*
G02*
X194050001Y-90800000I-249999J0D01*
G01*
X193149999Y-90800000D01*
G75*
G02*
X192900000Y-90550001I0J249999D01*
G01*
X192900000Y-89899999D01*
G75*
G02*
X193149999Y-89650000I249999J0D01*
G01*
G37*
G36*
G01*
X193149999Y-87600000D02*
X194050001Y-87600000D01*
G75*
G02*
X194300000Y-87849999I0J-249999D01*
G01*
X194300000Y-88500001D01*
G75*
G02*
X194050001Y-88750000I-249999J0D01*
G01*
X193149999Y-88750000D01*
G75*
G02*
X192900000Y-88500001I0J249999D01*
G01*
X192900000Y-87849999D01*
G75*
G02*
X193149999Y-87600000I249999J0D01*
G01*
G37*
G36*
G01*
X190649999Y-89650000D02*
X191550001Y-89650000D01*
G75*
G02*
X191800000Y-89899999I0J-249999D01*
G01*
X191800000Y-90550001D01*
G75*
G02*
X191550001Y-90800000I-249999J0D01*
G01*
X190649999Y-90800000D01*
G75*
G02*
X190400000Y-90550001I0J249999D01*
G01*
X190400000Y-89899999D01*
G75*
G02*
X190649999Y-89650000I249999J0D01*
G01*
G37*
G36*
G01*
X190649999Y-87600000D02*
X191550001Y-87600000D01*
G75*
G02*
X191800000Y-87849999I0J-249999D01*
G01*
X191800000Y-88500001D01*
G75*
G02*
X191550001Y-88750000I-249999J0D01*
G01*
X190649999Y-88750000D01*
G75*
G02*
X190400000Y-88500001I0J249999D01*
G01*
X190400000Y-87849999D01*
G75*
G02*
X190649999Y-87600000I249999J0D01*
G01*
G37*
G36*
G01*
X188049999Y-89650000D02*
X188950001Y-89650000D01*
G75*
G02*
X189200000Y-89899999I0J-249999D01*
G01*
X189200000Y-90550001D01*
G75*
G02*
X188950001Y-90800000I-249999J0D01*
G01*
X188049999Y-90800000D01*
G75*
G02*
X187800000Y-90550001I0J249999D01*
G01*
X187800000Y-89899999D01*
G75*
G02*
X188049999Y-89650000I249999J0D01*
G01*
G37*
G36*
G01*
X188049999Y-87600000D02*
X188950001Y-87600000D01*
G75*
G02*
X189200000Y-87849999I0J-249999D01*
G01*
X189200000Y-88500001D01*
G75*
G02*
X188950001Y-88750000I-249999J0D01*
G01*
X188049999Y-88750000D01*
G75*
G02*
X187800000Y-88500001I0J249999D01*
G01*
X187800000Y-87849999D01*
G75*
G02*
X188049999Y-87600000I249999J0D01*
G01*
G37*
G36*
G01*
X185449999Y-89650000D02*
X186350001Y-89650000D01*
G75*
G02*
X186600000Y-89899999I0J-249999D01*
G01*
X186600000Y-90550001D01*
G75*
G02*
X186350001Y-90800000I-249999J0D01*
G01*
X185449999Y-90800000D01*
G75*
G02*
X185200000Y-90550001I0J249999D01*
G01*
X185200000Y-89899999D01*
G75*
G02*
X185449999Y-89650000I249999J0D01*
G01*
G37*
G36*
G01*
X185449999Y-87600000D02*
X186350001Y-87600000D01*
G75*
G02*
X186600000Y-87849999I0J-249999D01*
G01*
X186600000Y-88500001D01*
G75*
G02*
X186350001Y-88750000I-249999J0D01*
G01*
X185449999Y-88750000D01*
G75*
G02*
X185200000Y-88500001I0J249999D01*
G01*
X185200000Y-87849999D01*
G75*
G02*
X185449999Y-87600000I249999J0D01*
G01*
G37*
D14*
X173200000Y-89200000D03*
X171200000Y-90150000D03*
X171200000Y-88250000D03*
X178200000Y-89200000D03*
X176200000Y-90150000D03*
X176200000Y-88250000D03*
D15*
X163845000Y-99650000D03*
X163845000Y-98850000D03*
X163845000Y-93950000D03*
X163845000Y-93150000D03*
X163845000Y-93150000D03*
X163845000Y-93950000D03*
X163845000Y-98850000D03*
X163845000Y-99650000D03*
D16*
X163845000Y-94650000D03*
X163845000Y-95150000D03*
X163845000Y-95650000D03*
X163845000Y-96650000D03*
X163845000Y-97150000D03*
X163845000Y-97650000D03*
X163845000Y-98150000D03*
X163845000Y-96150000D03*
G36*
G01*
X194056250Y-94450000D02*
X193143750Y-94450000D01*
G75*
G02*
X192900000Y-94206250I0J243750D01*
G01*
X192900000Y-93718750D01*
G75*
G02*
X193143750Y-93475000I243750J0D01*
G01*
X194056250Y-93475000D01*
G75*
G02*
X194300000Y-93718750I0J-243750D01*
G01*
X194300000Y-94206250D01*
G75*
G02*
X194056250Y-94450000I-243750J0D01*
G01*
G37*
G36*
G01*
X194056250Y-96325000D02*
X193143750Y-96325000D01*
G75*
G02*
X192900000Y-96081250I0J243750D01*
G01*
X192900000Y-95593750D01*
G75*
G02*
X193143750Y-95350000I243750J0D01*
G01*
X194056250Y-95350000D01*
G75*
G02*
X194300000Y-95593750I0J-243750D01*
G01*
X194300000Y-96081250D01*
G75*
G02*
X194056250Y-96325000I-243750J0D01*
G01*
G37*
G36*
G01*
X191556250Y-94450000D02*
X190643750Y-94450000D01*
G75*
G02*
X190400000Y-94206250I0J243750D01*
G01*
X190400000Y-93718750D01*
G75*
G02*
X190643750Y-93475000I243750J0D01*
G01*
X191556250Y-93475000D01*
G75*
G02*
X191800000Y-93718750I0J-243750D01*
G01*
X191800000Y-94206250D01*
G75*
G02*
X191556250Y-94450000I-243750J0D01*
G01*
G37*
G36*
G01*
X191556250Y-96325000D02*
X190643750Y-96325000D01*
G75*
G02*
X190400000Y-96081250I0J243750D01*
G01*
X190400000Y-95593750D01*
G75*
G02*
X190643750Y-95350000I243750J0D01*
G01*
X191556250Y-95350000D01*
G75*
G02*
X191800000Y-95593750I0J-243750D01*
G01*
X191800000Y-96081250D01*
G75*
G02*
X191556250Y-96325000I-243750J0D01*
G01*
G37*
G36*
G01*
X188956250Y-94450000D02*
X188043750Y-94450000D01*
G75*
G02*
X187800000Y-94206250I0J243750D01*
G01*
X187800000Y-93718750D01*
G75*
G02*
X188043750Y-93475000I243750J0D01*
G01*
X188956250Y-93475000D01*
G75*
G02*
X189200000Y-93718750I0J-243750D01*
G01*
X189200000Y-94206250D01*
G75*
G02*
X188956250Y-94450000I-243750J0D01*
G01*
G37*
G36*
G01*
X188956250Y-96325000D02*
X188043750Y-96325000D01*
G75*
G02*
X187800000Y-96081250I0J243750D01*
G01*
X187800000Y-95593750D01*
G75*
G02*
X188043750Y-95350000I243750J0D01*
G01*
X188956250Y-95350000D01*
G75*
G02*
X189200000Y-95593750I0J-243750D01*
G01*
X189200000Y-96081250D01*
G75*
G02*
X188956250Y-96325000I-243750J0D01*
G01*
G37*
G36*
G01*
X186356250Y-94450000D02*
X185443750Y-94450000D01*
G75*
G02*
X185200000Y-94206250I0J243750D01*
G01*
X185200000Y-93718750D01*
G75*
G02*
X185443750Y-93475000I243750J0D01*
G01*
X186356250Y-93475000D01*
G75*
G02*
X186600000Y-93718750I0J-243750D01*
G01*
X186600000Y-94206250D01*
G75*
G02*
X186356250Y-94450000I-243750J0D01*
G01*
G37*
G36*
G01*
X186356250Y-96325000D02*
X185443750Y-96325000D01*
G75*
G02*
X185200000Y-96081250I0J243750D01*
G01*
X185200000Y-95593750D01*
G75*
G02*
X185443750Y-95350000I243750J0D01*
G01*
X186356250Y-95350000D01*
G75*
G02*
X186600000Y-95593750I0J-243750D01*
G01*
X186600000Y-96081250D01*
G75*
G02*
X186356250Y-96325000I-243750J0D01*
G01*
G37*
G36*
G01*
X172149999Y-97850000D02*
X173050001Y-97850000D01*
G75*
G02*
X173300000Y-98099999I0J-249999D01*
G01*
X173300000Y-98750001D01*
G75*
G02*
X173050001Y-99000000I-249999J0D01*
G01*
X172149999Y-99000000D01*
G75*
G02*
X171900000Y-98750001I0J249999D01*
G01*
X171900000Y-98099999D01*
G75*
G02*
X172149999Y-97850000I249999J0D01*
G01*
G37*
G36*
G01*
X172149999Y-95800000D02*
X173050001Y-95800000D01*
G75*
G02*
X173300000Y-96049999I0J-249999D01*
G01*
X173300000Y-96700001D01*
G75*
G02*
X173050001Y-96950000I-249999J0D01*
G01*
X172149999Y-96950000D01*
G75*
G02*
X171900000Y-96700001I0J249999D01*
G01*
X171900000Y-96049999D01*
G75*
G02*
X172149999Y-95800000I249999J0D01*
G01*
G37*
G36*
G01*
X182450000Y-89250001D02*
X182450000Y-88349999D01*
G75*
G02*
X182699999Y-88100000I249999J0D01*
G01*
X183350001Y-88100000D01*
G75*
G02*
X183600000Y-88349999I0J-249999D01*
G01*
X183600000Y-89250001D01*
G75*
G02*
X183350001Y-89500000I-249999J0D01*
G01*
X182699999Y-89500000D01*
G75*
G02*
X182450000Y-89250001I0J249999D01*
G01*
G37*
G36*
G01*
X180400000Y-89250001D02*
X180400000Y-88349999D01*
G75*
G02*
X180649999Y-88100000I249999J0D01*
G01*
X181300001Y-88100000D01*
G75*
G02*
X181550000Y-88349999I0J-249999D01*
G01*
X181550000Y-89250001D01*
G75*
G02*
X181300001Y-89500000I-249999J0D01*
G01*
X180649999Y-89500000D01*
G75*
G02*
X180400000Y-89250001I0J249999D01*
G01*
G37*
G36*
G01*
X172950000Y-100549999D02*
X172950000Y-101450001D01*
G75*
G02*
X172700001Y-101700000I-249999J0D01*
G01*
X172049999Y-101700000D01*
G75*
G02*
X171800000Y-101450001I0J249999D01*
G01*
X171800000Y-100549999D01*
G75*
G02*
X172049999Y-100300000I249999J0D01*
G01*
X172700001Y-100300000D01*
G75*
G02*
X172950000Y-100549999I0J-249999D01*
G01*
G37*
G36*
G01*
X175000000Y-100549999D02*
X175000000Y-101450001D01*
G75*
G02*
X174750001Y-101700000I-249999J0D01*
G01*
X174099999Y-101700000D01*
G75*
G02*
X173850000Y-101450001I0J249999D01*
G01*
X173850000Y-100549999D01*
G75*
G02*
X174099999Y-100300000I249999J0D01*
G01*
X174750001Y-100300000D01*
G75*
G02*
X175000000Y-100549999I0J-249999D01*
G01*
G37*
G36*
G01*
X172950000Y-102749999D02*
X172950000Y-103650001D01*
G75*
G02*
X172700001Y-103900000I-249999J0D01*
G01*
X172049999Y-103900000D01*
G75*
G02*
X171800000Y-103650001I0J249999D01*
G01*
X171800000Y-102749999D01*
G75*
G02*
X172049999Y-102500000I249999J0D01*
G01*
X172700001Y-102500000D01*
G75*
G02*
X172950000Y-102749999I0J-249999D01*
G01*
G37*
G36*
G01*
X175000000Y-102749999D02*
X175000000Y-103650001D01*
G75*
G02*
X174750001Y-103900000I-249999J0D01*
G01*
X174099999Y-103900000D01*
G75*
G02*
X173850000Y-103650001I0J249999D01*
G01*
X173850000Y-102749999D01*
G75*
G02*
X174099999Y-102500000I249999J0D01*
G01*
X174750001Y-102500000D01*
G75*
G02*
X175000000Y-102749999I0J-249999D01*
G01*
G37*
G36*
G01*
X186600000Y-99849999D02*
X186600000Y-101150001D01*
G75*
G02*
X186350001Y-101400000I-249999J0D01*
G01*
X185524999Y-101400000D01*
G75*
G02*
X185275000Y-101150001I0J249999D01*
G01*
X185275000Y-99849999D01*
G75*
G02*
X185524999Y-99600000I249999J0D01*
G01*
X186350001Y-99600000D01*
G75*
G02*
X186600000Y-99849999I0J-249999D01*
G01*
G37*
G36*
G01*
X189725000Y-99849999D02*
X189725000Y-101150001D01*
G75*
G02*
X189475001Y-101400000I-249999J0D01*
G01*
X188649999Y-101400000D01*
G75*
G02*
X188400000Y-101150001I0J249999D01*
G01*
X188400000Y-99849999D01*
G75*
G02*
X188649999Y-99600000I249999J0D01*
G01*
X189475001Y-99600000D01*
G75*
G02*
X189725000Y-99849999I0J-249999D01*
G01*
G37*
G36*
G01*
X181149999Y-84200000D02*
X182450001Y-84200000D01*
G75*
G02*
X182700000Y-84449999I0J-249999D01*
G01*
X182700000Y-85275001D01*
G75*
G02*
X182450001Y-85525000I-249999J0D01*
G01*
X181149999Y-85525000D01*
G75*
G02*
X180900000Y-85275001I0J249999D01*
G01*
X180900000Y-84449999D01*
G75*
G02*
X181149999Y-84200000I249999J0D01*
G01*
G37*
G36*
G01*
X181149999Y-81075000D02*
X182450001Y-81075000D01*
G75*
G02*
X182700000Y-81324999I0J-249999D01*
G01*
X182700000Y-82150001D01*
G75*
G02*
X182450001Y-82400000I-249999J0D01*
G01*
X181149999Y-82400000D01*
G75*
G02*
X180900000Y-82150001I0J249999D01*
G01*
X180900000Y-81324999D01*
G75*
G02*
X181149999Y-81075000I249999J0D01*
G01*
G37*
M02*
