%FSLAX45Y45*%
G04 Gerber Fmt 4.5, Leading zero omitted, Abs format (unit mm)*
G04 Created by KiCad (PCBNEW (5.1.10)-1) date 2021-10-05 03:14:15*
%MOMM*%
%LPD*%
G01*
G04 APERTURE LIST*
%TA.AperFunction,Profile*%
%ADD10C,0.050000*%
%TD*%
%ADD11C,0.200000*%
%ADD12C,0.300000*%
G04 APERTURE END LIST*
D10*
X15700000Y-11300000D02*
X15700000Y-4300000D01*
X20200000Y-11300000D02*
X15700000Y-11300000D01*
X20200000Y-4300000D02*
X20200000Y-11300000D01*
X15700000Y-4300000D02*
X20200000Y-4300000D01*
D11*
X16207500Y-9318500D02*
X16272500Y-9383500D01*
X16272500Y-9318500D02*
X16207500Y-9383500D01*
X16207500Y-9896500D02*
X16272500Y-9961500D01*
X16272500Y-9896500D02*
X16207500Y-9961500D01*
D12*
X15983928Y-11768214D02*
X15983928Y-11468214D01*
X16055357Y-11468214D01*
X16098214Y-11482500D01*
X16126786Y-11511071D01*
X16141071Y-11539643D01*
X16155357Y-11596786D01*
X16155357Y-11639643D01*
X16141071Y-11696786D01*
X16126786Y-11725357D01*
X16098214Y-11753929D01*
X16055357Y-11768214D01*
X15983928Y-11768214D01*
X16283928Y-11768214D02*
X16283928Y-11568214D01*
X16283928Y-11625357D02*
X16298214Y-11596786D01*
X16312500Y-11582500D01*
X16341071Y-11568214D01*
X16369643Y-11568214D01*
X16469643Y-11768214D02*
X16469643Y-11568214D01*
X16469643Y-11468214D02*
X16455357Y-11482500D01*
X16469643Y-11496786D01*
X16483928Y-11482500D01*
X16469643Y-11468214D01*
X16469643Y-11496786D01*
X16655357Y-11768214D02*
X16626786Y-11753929D01*
X16612500Y-11725357D01*
X16612500Y-11468214D01*
X16812500Y-11768214D02*
X16783928Y-11753929D01*
X16769643Y-11725357D01*
X16769643Y-11468214D01*
X17155357Y-11768214D02*
X17155357Y-11468214D01*
X17255357Y-11682500D01*
X17355357Y-11468214D01*
X17355357Y-11768214D01*
X17626786Y-11768214D02*
X17626786Y-11611071D01*
X17612500Y-11582500D01*
X17583928Y-11568214D01*
X17526786Y-11568214D01*
X17498214Y-11582500D01*
X17626786Y-11753929D02*
X17598214Y-11768214D01*
X17526786Y-11768214D01*
X17498214Y-11753929D01*
X17483928Y-11725357D01*
X17483928Y-11696786D01*
X17498214Y-11668214D01*
X17526786Y-11653929D01*
X17598214Y-11653929D01*
X17626786Y-11639643D01*
X17769643Y-11568214D02*
X17769643Y-11868214D01*
X17769643Y-11582500D02*
X17798214Y-11568214D01*
X17855357Y-11568214D01*
X17883928Y-11582500D01*
X17898214Y-11596786D01*
X17912500Y-11625357D01*
X17912500Y-11711071D01*
X17898214Y-11739643D01*
X17883928Y-11753929D01*
X17855357Y-11768214D01*
X17798214Y-11768214D01*
X17769643Y-11753929D01*
X18041071Y-11739643D02*
X18055357Y-11753929D01*
X18041071Y-11768214D01*
X18026786Y-11753929D01*
X18041071Y-11739643D01*
X18041071Y-11768214D01*
X18041071Y-11582500D02*
X18055357Y-11596786D01*
X18041071Y-11611071D01*
X18026786Y-11596786D01*
X18041071Y-11582500D01*
X18041071Y-11611071D01*
X15632500Y-12230000D02*
X15697500Y-12295000D01*
X15697500Y-12230000D02*
X15632500Y-12295000D01*
X16041071Y-12098214D02*
X16069643Y-12098214D01*
X16098214Y-12112500D01*
X16112500Y-12126786D01*
X16126786Y-12155357D01*
X16141071Y-12212500D01*
X16141071Y-12283929D01*
X16126786Y-12341071D01*
X16112500Y-12369643D01*
X16098214Y-12383929D01*
X16069643Y-12398214D01*
X16041071Y-12398214D01*
X16012500Y-12383929D01*
X15998214Y-12369643D01*
X15983928Y-12341071D01*
X15969643Y-12283929D01*
X15969643Y-12212500D01*
X15983928Y-12155357D01*
X15998214Y-12126786D01*
X16012500Y-12112500D01*
X16041071Y-12098214D01*
X16269643Y-12369643D02*
X16283928Y-12383929D01*
X16269643Y-12398214D01*
X16255357Y-12383929D01*
X16269643Y-12369643D01*
X16269643Y-12398214D01*
X16541071Y-12098214D02*
X16483928Y-12098214D01*
X16455357Y-12112500D01*
X16441071Y-12126786D01*
X16412500Y-12169643D01*
X16398214Y-12226786D01*
X16398214Y-12341071D01*
X16412500Y-12369643D01*
X16426786Y-12383929D01*
X16455357Y-12398214D01*
X16512500Y-12398214D01*
X16541071Y-12383929D01*
X16555357Y-12369643D01*
X16569643Y-12341071D01*
X16569643Y-12269643D01*
X16555357Y-12241071D01*
X16541071Y-12226786D01*
X16512500Y-12212500D01*
X16455357Y-12212500D01*
X16426786Y-12226786D01*
X16412500Y-12241071D01*
X16398214Y-12269643D01*
X16841071Y-12098214D02*
X16698214Y-12098214D01*
X16683928Y-12241071D01*
X16698214Y-12226786D01*
X16726786Y-12212500D01*
X16798214Y-12212500D01*
X16826786Y-12226786D01*
X16841071Y-12241071D01*
X16855357Y-12269643D01*
X16855357Y-12341071D01*
X16841071Y-12369643D01*
X16826786Y-12383929D01*
X16798214Y-12398214D01*
X16726786Y-12398214D01*
X16698214Y-12383929D01*
X16683928Y-12369643D01*
X17041071Y-12098214D02*
X17069643Y-12098214D01*
X17098214Y-12112500D01*
X17112500Y-12126786D01*
X17126786Y-12155357D01*
X17141071Y-12212500D01*
X17141071Y-12283929D01*
X17126786Y-12341071D01*
X17112500Y-12369643D01*
X17098214Y-12383929D01*
X17069643Y-12398214D01*
X17041071Y-12398214D01*
X17012500Y-12383929D01*
X16998214Y-12369643D01*
X16983928Y-12341071D01*
X16969643Y-12283929D01*
X16969643Y-12212500D01*
X16983928Y-12155357D01*
X16998214Y-12126786D01*
X17012500Y-12112500D01*
X17041071Y-12098214D01*
X17269643Y-12398214D02*
X17269643Y-12198214D01*
X17269643Y-12226786D02*
X17283928Y-12212500D01*
X17312500Y-12198214D01*
X17355357Y-12198214D01*
X17383928Y-12212500D01*
X17398214Y-12241071D01*
X17398214Y-12398214D01*
X17398214Y-12241071D02*
X17412500Y-12212500D01*
X17441071Y-12198214D01*
X17483928Y-12198214D01*
X17512500Y-12212500D01*
X17526786Y-12241071D01*
X17526786Y-12398214D01*
X17669643Y-12398214D02*
X17669643Y-12198214D01*
X17669643Y-12226786D02*
X17683928Y-12212500D01*
X17712500Y-12198214D01*
X17755357Y-12198214D01*
X17783928Y-12212500D01*
X17798214Y-12241071D01*
X17798214Y-12398214D01*
X17798214Y-12241071D02*
X17812500Y-12212500D01*
X17841071Y-12198214D01*
X17883928Y-12198214D01*
X17912500Y-12212500D01*
X17926786Y-12241071D01*
X17926786Y-12398214D01*
X18512500Y-12083929D02*
X18255357Y-12469643D01*
X18898214Y-12098214D02*
X18926786Y-12098214D01*
X18955357Y-12112500D01*
X18969643Y-12126786D01*
X18983928Y-12155357D01*
X18998214Y-12212500D01*
X18998214Y-12283929D01*
X18983928Y-12341071D01*
X18969643Y-12369643D01*
X18955357Y-12383929D01*
X18926786Y-12398214D01*
X18898214Y-12398214D01*
X18869643Y-12383929D01*
X18855357Y-12369643D01*
X18841071Y-12341071D01*
X18826786Y-12283929D01*
X18826786Y-12212500D01*
X18841071Y-12155357D01*
X18855357Y-12126786D01*
X18869643Y-12112500D01*
X18898214Y-12098214D01*
X19126786Y-12369643D02*
X19141071Y-12383929D01*
X19126786Y-12398214D01*
X19112500Y-12383929D01*
X19126786Y-12369643D01*
X19126786Y-12398214D01*
X19326786Y-12098214D02*
X19355357Y-12098214D01*
X19383928Y-12112500D01*
X19398214Y-12126786D01*
X19412500Y-12155357D01*
X19426786Y-12212500D01*
X19426786Y-12283929D01*
X19412500Y-12341071D01*
X19398214Y-12369643D01*
X19383928Y-12383929D01*
X19355357Y-12398214D01*
X19326786Y-12398214D01*
X19298214Y-12383929D01*
X19283928Y-12369643D01*
X19269643Y-12341071D01*
X19255357Y-12283929D01*
X19255357Y-12212500D01*
X19269643Y-12155357D01*
X19283928Y-12126786D01*
X19298214Y-12112500D01*
X19326786Y-12098214D01*
X19541071Y-12126786D02*
X19555357Y-12112500D01*
X19583928Y-12098214D01*
X19655357Y-12098214D01*
X19683928Y-12112500D01*
X19698214Y-12126786D01*
X19712500Y-12155357D01*
X19712500Y-12183929D01*
X19698214Y-12226786D01*
X19526786Y-12398214D01*
X19712500Y-12398214D01*
X19983928Y-12098214D02*
X19841071Y-12098214D01*
X19826786Y-12241071D01*
X19841071Y-12226786D01*
X19869643Y-12212500D01*
X19941071Y-12212500D01*
X19969643Y-12226786D01*
X19983928Y-12241071D01*
X19998214Y-12269643D01*
X19998214Y-12341071D01*
X19983928Y-12369643D01*
X19969643Y-12383929D01*
X19941071Y-12398214D01*
X19869643Y-12398214D01*
X19841071Y-12383929D01*
X19826786Y-12369643D01*
X20255357Y-12098214D02*
X20198214Y-12098214D01*
X20169643Y-12112500D01*
X20155357Y-12126786D01*
X20126786Y-12169643D01*
X20112500Y-12226786D01*
X20112500Y-12341071D01*
X20126786Y-12369643D01*
X20141071Y-12383929D01*
X20169643Y-12398214D01*
X20226786Y-12398214D01*
X20255357Y-12383929D01*
X20269643Y-12369643D01*
X20283928Y-12341071D01*
X20283928Y-12269643D01*
X20269643Y-12241071D01*
X20255357Y-12226786D01*
X20226786Y-12212500D01*
X20169643Y-12212500D01*
X20141071Y-12226786D01*
X20126786Y-12241071D01*
X20112500Y-12269643D01*
X20398214Y-12098214D02*
X20398214Y-12155357D01*
X20512500Y-12098214D02*
X20512500Y-12155357D01*
X20955357Y-12512500D02*
X20941071Y-12498214D01*
X20912500Y-12455357D01*
X20898214Y-12426786D01*
X20883928Y-12383929D01*
X20869643Y-12312500D01*
X20869643Y-12255357D01*
X20883928Y-12183929D01*
X20898214Y-12141071D01*
X20912500Y-12112500D01*
X20941071Y-12069643D01*
X20955357Y-12055357D01*
X21055357Y-12126786D02*
X21069643Y-12112500D01*
X21098214Y-12098214D01*
X21169643Y-12098214D01*
X21198214Y-12112500D01*
X21212500Y-12126786D01*
X21226786Y-12155357D01*
X21226786Y-12183929D01*
X21212500Y-12226786D01*
X21041071Y-12398214D01*
X21226786Y-12398214D01*
X21583928Y-12398214D02*
X21583928Y-12098214D01*
X21712500Y-12398214D02*
X21712500Y-12241071D01*
X21698214Y-12212500D01*
X21669643Y-12198214D01*
X21626786Y-12198214D01*
X21598214Y-12212500D01*
X21583928Y-12226786D01*
X21898214Y-12398214D02*
X21869643Y-12383929D01*
X21855357Y-12369643D01*
X21841071Y-12341071D01*
X21841071Y-12255357D01*
X21855357Y-12226786D01*
X21869643Y-12212500D01*
X21898214Y-12198214D01*
X21941071Y-12198214D01*
X21969643Y-12212500D01*
X21983928Y-12226786D01*
X21998214Y-12255357D01*
X21998214Y-12341071D01*
X21983928Y-12369643D01*
X21969643Y-12383929D01*
X21941071Y-12398214D01*
X21898214Y-12398214D01*
X22169643Y-12398214D02*
X22141071Y-12383929D01*
X22126786Y-12355357D01*
X22126786Y-12098214D01*
X22398214Y-12383929D02*
X22369643Y-12398214D01*
X22312500Y-12398214D01*
X22283928Y-12383929D01*
X22269643Y-12355357D01*
X22269643Y-12241071D01*
X22283928Y-12212500D01*
X22312500Y-12198214D01*
X22369643Y-12198214D01*
X22398214Y-12212500D01*
X22412500Y-12241071D01*
X22412500Y-12269643D01*
X22269643Y-12298214D01*
X22526786Y-12383929D02*
X22555357Y-12398214D01*
X22612500Y-12398214D01*
X22641071Y-12383929D01*
X22655357Y-12355357D01*
X22655357Y-12341071D01*
X22641071Y-12312500D01*
X22612500Y-12298214D01*
X22569643Y-12298214D01*
X22541071Y-12283929D01*
X22526786Y-12255357D01*
X22526786Y-12241071D01*
X22541071Y-12212500D01*
X22569643Y-12198214D01*
X22612500Y-12198214D01*
X22641071Y-12212500D01*
X22755357Y-12512500D02*
X22769643Y-12498214D01*
X22798214Y-12455357D01*
X22812500Y-12426786D01*
X22826786Y-12383929D01*
X22841071Y-12312500D01*
X22841071Y-12255357D01*
X22826786Y-12183929D01*
X22812500Y-12141071D01*
X22798214Y-12112500D01*
X22769643Y-12069643D01*
X22755357Y-12055357D01*
X23298214Y-12512500D02*
X23283928Y-12498214D01*
X23255357Y-12455357D01*
X23241071Y-12426786D01*
X23226786Y-12383929D01*
X23212500Y-12312500D01*
X23212500Y-12255357D01*
X23226786Y-12183929D01*
X23241071Y-12141071D01*
X23255357Y-12112500D01*
X23283928Y-12069643D01*
X23298214Y-12055357D01*
X23412500Y-12198214D02*
X23412500Y-12398214D01*
X23412500Y-12226786D02*
X23426786Y-12212500D01*
X23455357Y-12198214D01*
X23498214Y-12198214D01*
X23526786Y-12212500D01*
X23541071Y-12241071D01*
X23541071Y-12398214D01*
X23726786Y-12398214D02*
X23698214Y-12383929D01*
X23683928Y-12369643D01*
X23669643Y-12341071D01*
X23669643Y-12255357D01*
X23683928Y-12226786D01*
X23698214Y-12212500D01*
X23726786Y-12198214D01*
X23769643Y-12198214D01*
X23798214Y-12212500D01*
X23812500Y-12226786D01*
X23826786Y-12255357D01*
X23826786Y-12341071D01*
X23812500Y-12369643D01*
X23798214Y-12383929D01*
X23769643Y-12398214D01*
X23726786Y-12398214D01*
X23912500Y-12198214D02*
X24026786Y-12198214D01*
X23955357Y-12098214D02*
X23955357Y-12355357D01*
X23969643Y-12383929D01*
X23998214Y-12398214D01*
X24026786Y-12398214D01*
X24355357Y-12198214D02*
X24355357Y-12498214D01*
X24355357Y-12212500D02*
X24383928Y-12198214D01*
X24441071Y-12198214D01*
X24469643Y-12212500D01*
X24483928Y-12226786D01*
X24498214Y-12255357D01*
X24498214Y-12341071D01*
X24483928Y-12369643D01*
X24469643Y-12383929D01*
X24441071Y-12398214D01*
X24383928Y-12398214D01*
X24355357Y-12383929D01*
X24669643Y-12398214D02*
X24641071Y-12383929D01*
X24626786Y-12355357D01*
X24626786Y-12098214D01*
X24912500Y-12398214D02*
X24912500Y-12241071D01*
X24898214Y-12212500D01*
X24869643Y-12198214D01*
X24812500Y-12198214D01*
X24783928Y-12212500D01*
X24912500Y-12383929D02*
X24883928Y-12398214D01*
X24812500Y-12398214D01*
X24783928Y-12383929D01*
X24769643Y-12355357D01*
X24769643Y-12326786D01*
X24783928Y-12298214D01*
X24812500Y-12283929D01*
X24883928Y-12283929D01*
X24912500Y-12269643D01*
X25012500Y-12198214D02*
X25126786Y-12198214D01*
X25055357Y-12098214D02*
X25055357Y-12355357D01*
X25069643Y-12383929D01*
X25098214Y-12398214D01*
X25126786Y-12398214D01*
X25341071Y-12383929D02*
X25312500Y-12398214D01*
X25255357Y-12398214D01*
X25226786Y-12383929D01*
X25212500Y-12355357D01*
X25212500Y-12241071D01*
X25226786Y-12212500D01*
X25255357Y-12198214D01*
X25312500Y-12198214D01*
X25341071Y-12212500D01*
X25355357Y-12241071D01*
X25355357Y-12269643D01*
X25212500Y-12298214D01*
X25612500Y-12398214D02*
X25612500Y-12098214D01*
X25612500Y-12383929D02*
X25583928Y-12398214D01*
X25526786Y-12398214D01*
X25498214Y-12383929D01*
X25483928Y-12369643D01*
X25469643Y-12341071D01*
X25469643Y-12255357D01*
X25483928Y-12226786D01*
X25498214Y-12212500D01*
X25526786Y-12198214D01*
X25583928Y-12198214D01*
X25612500Y-12212500D01*
X25726786Y-12512500D02*
X25741071Y-12498214D01*
X25769643Y-12455357D01*
X25783928Y-12426786D01*
X25798214Y-12383929D01*
X25812500Y-12312500D01*
X25812500Y-12255357D01*
X25798214Y-12183929D01*
X25783928Y-12141071D01*
X25769643Y-12112500D01*
X25741071Y-12069643D01*
X25726786Y-12055357D01*
M02*
