M48
; DRILL file {KiCad (5.1.10)-1} date 10/05/21 03:14:14
; FORMAT={-:-/ absolute / metric / decimal}
; #@! TF.CreationDate,2021-10-05T03:14:14+03:00
; #@! TF.GenerationSoftware,Kicad,Pcbnew,(5.1.10)-1
; #@! TF.FileFunction,Plated,1,2,PTH
FMAT,2
METRIC
T1C0.400
T2C0.500
T3C0.550
T4C0.600
T5C1.000
T6C3.200
%
G90
G05
T1
X160.6Y-97.2
X160.6Y-95.4
X161.6Y-96.3
X161.6Y-97.915
X163.7Y-52.2
X166.6Y-96.4
X167.7Y-75.5
X169.15Y-64.3
X169.3Y-93.0
X169.3Y-99.675
X171.15Y-96.4
X172.2Y-84.0
X172.35Y-105.5
X174.275Y-87.25
X174.3Y-91.1
X175.95Y-91.85
X176.8Y-95.2
X176.8Y-97.2
X177.35Y-92.0
X177.75Y-96.2
X178.8Y-95.2
X178.8Y-97.2
X179.65Y-71.1
X179.75Y-92.55
X180.6Y-103.25
X180.6Y-108.25
X181.6Y-71.9
X181.6Y-74.25
X181.6Y-70.25
X182.0Y-86.65
X182.15Y-100.5
X183.0Y-60.3
X183.6Y-79.4
X183.6Y-80.65
X184.3Y-58.75
X184.35Y-91.2
X184.45Y-55.8
X185.15Y-57.45
X185.95Y-52.45
X185.95Y-56.25
X185.95Y-61.35
X185.95Y-65.2
X186.551Y-71.949
X186.551Y-77.301
X186.85Y-60.25
X188.0Y-56.5
X190.5Y-62.25
X190.55Y-66.45
X191.7Y-77.35
X191.707Y-73.375
X191.85Y-56.75
X191.85Y-66.7
X192.9Y-63.35
X192.9Y-64.8
X193.5Y-56.15
X193.75Y-68.6
X194.45Y-57.5
X194.6Y-75.2
X195.423Y-70.334
X196.35Y-74.2
X196.35Y-78.45
T2
X159.6Y-48.0
X159.6Y-108.0
X160.303Y-46.303
X160.303Y-49.697
X160.303Y-106.303
X160.303Y-109.697
X162.0Y-45.6
X162.0Y-50.4
X162.0Y-105.6
X162.0Y-110.4
X163.697Y-46.303
X163.697Y-49.697
X163.697Y-106.303
X163.697Y-109.697
X164.4Y-48.0
X164.4Y-108.0
X194.6Y-48.0
X194.6Y-108.0
X195.303Y-46.303
X195.303Y-49.697
X195.303Y-106.303
X195.303Y-109.697
X197.0Y-45.6
X197.0Y-50.4
X197.0Y-105.6
X197.0Y-110.4
X198.697Y-46.303
X198.697Y-49.697
X198.697Y-106.303
X198.697Y-109.697
X199.4Y-48.0
X199.4Y-108.0
T3
X189.4Y-53.62
X189.4Y-54.89
X189.4Y-56.16
X189.4Y-57.43
X189.4Y-58.7
X189.4Y-68.66
X189.4Y-69.93
X189.4Y-71.2
X190.67Y-53.62
X190.67Y-54.89
X190.67Y-56.16
X190.67Y-57.43
X190.67Y-58.7
X190.67Y-68.66
X190.67Y-69.93
X190.67Y-71.2
X196.8Y-56.16
X196.8Y-57.43
X196.8Y-58.7
X196.8Y-68.66
X196.8Y-69.93
X196.8Y-71.2
X198.07Y-56.16
X198.07Y-57.43
X198.07Y-58.7
X198.07Y-68.66
X198.07Y-69.93
X198.07Y-71.2
T5
X160.8Y-59.6
X160.8Y-62.14
X160.8Y-64.68
X160.8Y-67.22
X160.8Y-69.76
X160.8Y-72.3
X160.8Y-74.84
X160.8Y-77.38
X160.8Y-79.92
X160.8Y-82.46
X163.34Y-59.6
X163.34Y-62.14
X163.34Y-64.68
X163.34Y-67.22
X163.34Y-69.76
X163.34Y-72.3
X163.34Y-74.84
X163.34Y-77.38
X163.34Y-79.92
X163.34Y-82.46
X170.6Y-46.5
X170.6Y-49.04
X170.6Y-51.58
X170.6Y-54.12
X170.6Y-56.66
X173.66Y-67.64
X173.66Y-70.18
X173.66Y-72.72
X173.66Y-75.26
X173.66Y-77.8
X176.2Y-67.64
X176.2Y-70.18
X176.2Y-72.72
X176.2Y-75.26
X176.2Y-77.8
X179.0Y-46.5
X179.0Y-49.04
X179.0Y-51.58
X179.0Y-54.12
X179.0Y-56.66
X186.0Y-82.16
X186.0Y-84.7
X188.54Y-82.16
X188.54Y-84.7
X191.08Y-82.16
X191.08Y-84.7
X193.62Y-82.16
X193.62Y-84.7
X198.2Y-82.1
X198.2Y-84.64
T6
X162.0Y-48.0
X162.0Y-108.0
X197.0Y-48.0
X197.0Y-108.0
T4
X159.05Y-92.08G85X158.45Y-92.08
G05
X159.05Y-100.72G85X158.45Y-100.72
G05
X163.48Y-92.08G85X162.38Y-92.08
G05
X163.48Y-100.72G85X162.38Y-100.72
G05
T0
M30
