G04 #@! TF.GenerationSoftware,KiCad,Pcbnew,(5.1.10)-1*
G04 #@! TF.CreationDate,2021-10-05T03:14:11+03:00*
G04 #@! TF.ProjectId,programming_board,70726f67-7261-46d6-9d69-6e675f626f61,rev?*
G04 #@! TF.SameCoordinates,Original*
G04 #@! TF.FileFunction,Legend,Top*
G04 #@! TF.FilePolarity,Positive*
%FSLAX46Y46*%
G04 Gerber Fmt 4.6, Leading zero omitted, Abs format (unit mm)*
G04 Created by KiCad (PCBNEW (5.1.10)-1) date 2021-10-05 03:14:11*
%MOMM*%
%LPD*%
G01*
G04 APERTURE LIST*
%ADD10C,0.150000*%
%ADD11C,0.120000*%
%ADD12C,1.000000*%
%ADD13C,1.700000*%
%ADD14R,3.350000X3.350000*%
%ADD15O,1.700000X1.700000*%
%ADD16R,1.700000X1.700000*%
%ADD17R,0.500000X0.375000*%
%ADD18R,0.650000X0.300000*%
%ADD19R,2.000000X1.500000*%
%ADD20R,2.000000X3.800000*%
%ADD21R,0.900000X0.800000*%
%ADD22R,1.450000X0.600000*%
%ADD23R,1.450000X0.300000*%
%ADD24O,2.100000X1.000000*%
%ADD25C,0.650000*%
%ADD26O,1.600000X1.000000*%
%ADD27C,0.800000*%
%ADD28C,6.400000*%
G04 APERTURE END LIST*
D10*
X158565476Y-59523809D02*
X157958333Y-59523809D01*
X157836904Y-59483333D01*
X157755952Y-59402380D01*
X157715476Y-59280952D01*
X157715476Y-59200000D01*
X157715476Y-60333333D02*
X157715476Y-59928571D01*
X158565476Y-59928571D01*
X157796428Y-61102380D02*
X157755952Y-61061904D01*
X157715476Y-60940476D01*
X157715476Y-60859523D01*
X157755952Y-60738095D01*
X157836904Y-60657142D01*
X157917857Y-60616666D01*
X158079761Y-60576190D01*
X158201190Y-60576190D01*
X158363095Y-60616666D01*
X158444047Y-60657142D01*
X158525000Y-60738095D01*
X158565476Y-60859523D01*
X158565476Y-60940476D01*
X158525000Y-61061904D01*
X158484523Y-61102380D01*
X158565476Y-61709523D02*
X157958333Y-61709523D01*
X157836904Y-61669047D01*
X157755952Y-61588095D01*
X157715476Y-61466666D01*
X157715476Y-61385714D01*
X157715476Y-62519047D02*
X157715476Y-62114285D01*
X158565476Y-62114285D01*
X157796428Y-63288095D02*
X157755952Y-63247619D01*
X157715476Y-63126190D01*
X157715476Y-63045238D01*
X157755952Y-62923809D01*
X157836904Y-62842857D01*
X157917857Y-62802380D01*
X158079761Y-62761904D01*
X158201190Y-62761904D01*
X158363095Y-62802380D01*
X158444047Y-62842857D01*
X158525000Y-62923809D01*
X158565476Y-63045238D01*
X158565476Y-63126190D01*
X158525000Y-63247619D01*
X158484523Y-63288095D01*
X158565476Y-63895238D02*
X157958333Y-63895238D01*
X157836904Y-63854761D01*
X157755952Y-63773809D01*
X157715476Y-63652380D01*
X157715476Y-63571428D01*
X157715476Y-64704761D02*
X157715476Y-64300000D01*
X158565476Y-64300000D01*
X157796428Y-65473809D02*
X157755952Y-65433333D01*
X157715476Y-65311904D01*
X157715476Y-65230952D01*
X157755952Y-65109523D01*
X157836904Y-65028571D01*
X157917857Y-64988095D01*
X158079761Y-64947619D01*
X158201190Y-64947619D01*
X158363095Y-64988095D01*
X158444047Y-65028571D01*
X158525000Y-65109523D01*
X158565476Y-65230952D01*
X158565476Y-65311904D01*
X158525000Y-65433333D01*
X158484523Y-65473809D01*
X158565476Y-66080952D02*
X157958333Y-66080952D01*
X157836904Y-66040476D01*
X157755952Y-65959523D01*
X157715476Y-65838095D01*
X157715476Y-65757142D01*
X157715476Y-66890476D02*
X157715476Y-66485714D01*
X158565476Y-66485714D01*
X157796428Y-67659523D02*
X157755952Y-67619047D01*
X157715476Y-67497619D01*
X157715476Y-67416666D01*
X157755952Y-67295238D01*
X157836904Y-67214285D01*
X157917857Y-67173809D01*
X158079761Y-67133333D01*
X158201190Y-67133333D01*
X158363095Y-67173809D01*
X158444047Y-67214285D01*
X158525000Y-67295238D01*
X158565476Y-67416666D01*
X158565476Y-67497619D01*
X158525000Y-67619047D01*
X158484523Y-67659523D01*
D11*
X185000000Y-44000000D02*
X185000000Y-77000000D01*
D10*
X201404761Y-58757142D02*
X201452380Y-58614285D01*
X201452380Y-58376190D01*
X201404761Y-58280952D01*
X201357142Y-58233333D01*
X201261904Y-58185714D01*
X201166666Y-58185714D01*
X201071428Y-58233333D01*
X201023809Y-58280952D01*
X200976190Y-58376190D01*
X200928571Y-58566666D01*
X200880952Y-58661904D01*
X200833333Y-58709523D01*
X200738095Y-58757142D01*
X200642857Y-58757142D01*
X200547619Y-58709523D01*
X200500000Y-58661904D01*
X200452380Y-58566666D01*
X200452380Y-58328571D01*
X200500000Y-58185714D01*
X200452380Y-57852380D02*
X201452380Y-57614285D01*
X200738095Y-57423809D01*
X201452380Y-57233333D01*
X200452380Y-56995238D01*
X201452380Y-56614285D02*
X200452380Y-56614285D01*
X200452380Y-56376190D01*
X200500000Y-56233333D01*
X200595238Y-56138095D01*
X200690476Y-56090476D01*
X200880952Y-56042857D01*
X201023809Y-56042857D01*
X201214285Y-56090476D01*
X201309523Y-56138095D01*
X201404761Y-56233333D01*
X201452380Y-56376190D01*
X201452380Y-56614285D01*
X201404761Y-71566666D02*
X201452380Y-71423809D01*
X201452380Y-71185714D01*
X201404761Y-71090476D01*
X201357142Y-71042857D01*
X201261904Y-70995238D01*
X201166666Y-70995238D01*
X201071428Y-71042857D01*
X201023809Y-71090476D01*
X200976190Y-71185714D01*
X200928571Y-71376190D01*
X200880952Y-71471428D01*
X200833333Y-71519047D01*
X200738095Y-71566666D01*
X200642857Y-71566666D01*
X200547619Y-71519047D01*
X200500000Y-71471428D01*
X200452380Y-71376190D01*
X200452380Y-71138095D01*
X200500000Y-70995238D01*
X200452380Y-70661904D02*
X201452380Y-70423809D01*
X200738095Y-70233333D01*
X201452380Y-70042857D01*
X200452380Y-69804761D01*
X201452380Y-69423809D02*
X200452380Y-69423809D01*
X201452380Y-68947619D02*
X200452380Y-68947619D01*
X201166666Y-68614285D01*
X200452380Y-68280952D01*
X201452380Y-68280952D01*
X187004761Y-59509523D02*
X187052380Y-59366666D01*
X187052380Y-59128571D01*
X187004761Y-59033333D01*
X186957142Y-58985714D01*
X186861904Y-58938095D01*
X186766666Y-58938095D01*
X186671428Y-58985714D01*
X186623809Y-59033333D01*
X186576190Y-59128571D01*
X186528571Y-59319047D01*
X186480952Y-59414285D01*
X186433333Y-59461904D01*
X186338095Y-59509523D01*
X186242857Y-59509523D01*
X186147619Y-59461904D01*
X186100000Y-59414285D01*
X186052380Y-59319047D01*
X186052380Y-59080952D01*
X186100000Y-58938095D01*
X186052380Y-58604761D02*
X187052380Y-58366666D01*
X186338095Y-58176190D01*
X187052380Y-57985714D01*
X186052380Y-57747619D01*
X187052380Y-57366666D02*
X186052380Y-57366666D01*
X186052380Y-57128571D01*
X186100000Y-56985714D01*
X186195238Y-56890476D01*
X186290476Y-56842857D01*
X186480952Y-56795238D01*
X186623809Y-56795238D01*
X186814285Y-56842857D01*
X186909523Y-56890476D01*
X187004761Y-56985714D01*
X187052380Y-57128571D01*
X187052380Y-57366666D01*
X186004761Y-55652380D02*
X187290476Y-56509523D01*
X186528571Y-55319047D02*
X186528571Y-54985714D01*
X187052380Y-54842857D02*
X187052380Y-55319047D01*
X186052380Y-55319047D01*
X186052380Y-54842857D01*
X187004761Y-54461904D02*
X187052380Y-54319047D01*
X187052380Y-54080952D01*
X187004761Y-53985714D01*
X186957142Y-53938095D01*
X186861904Y-53890476D01*
X186766666Y-53890476D01*
X186671428Y-53938095D01*
X186623809Y-53985714D01*
X186576190Y-54080952D01*
X186528571Y-54271428D01*
X186480952Y-54366666D01*
X186433333Y-54414285D01*
X186338095Y-54461904D01*
X186242857Y-54461904D01*
X186147619Y-54414285D01*
X186100000Y-54366666D01*
X186052380Y-54271428D01*
X186052380Y-54033333D01*
X186100000Y-53890476D01*
X187052380Y-53461904D02*
X186052380Y-53461904D01*
X186052380Y-53080952D01*
X186100000Y-52985714D01*
X186147619Y-52938095D01*
X186242857Y-52890476D01*
X186385714Y-52890476D01*
X186480952Y-52938095D01*
X186528571Y-52985714D01*
X186576190Y-53080952D01*
X186576190Y-53461904D01*
X186528571Y-71090476D02*
X186528571Y-70757142D01*
X187052380Y-70614285D02*
X187052380Y-71090476D01*
X186052380Y-71090476D01*
X186052380Y-70614285D01*
X187004761Y-70233333D02*
X187052380Y-70090476D01*
X187052380Y-69852380D01*
X187004761Y-69757142D01*
X186957142Y-69709523D01*
X186861904Y-69661904D01*
X186766666Y-69661904D01*
X186671428Y-69709523D01*
X186623809Y-69757142D01*
X186576190Y-69852380D01*
X186528571Y-70042857D01*
X186480952Y-70138095D01*
X186433333Y-70185714D01*
X186338095Y-70233333D01*
X186242857Y-70233333D01*
X186147619Y-70185714D01*
X186100000Y-70138095D01*
X186052380Y-70042857D01*
X186052380Y-69804761D01*
X186100000Y-69661904D01*
X187052380Y-69233333D02*
X186052380Y-69233333D01*
X186052380Y-68852380D01*
X186100000Y-68757142D01*
X186147619Y-68709523D01*
X186242857Y-68661904D01*
X186385714Y-68661904D01*
X186480952Y-68709523D01*
X186528571Y-68757142D01*
X186576190Y-68852380D01*
X186576190Y-69233333D01*
X197652380Y-79638095D02*
X198652380Y-79304761D01*
X197652380Y-78971428D01*
X197652380Y-78780952D02*
X197652380Y-78209523D01*
X198652380Y-78495238D02*
X197652380Y-78495238D01*
X198652380Y-77876190D02*
X197985714Y-77876190D01*
X198176190Y-77876190D02*
X198080952Y-77828571D01*
X198033333Y-77780952D01*
X197985714Y-77685714D01*
X197985714Y-77590476D01*
X198604761Y-76876190D02*
X198652380Y-76971428D01*
X198652380Y-77161904D01*
X198604761Y-77257142D01*
X198509523Y-77304761D01*
X198128571Y-77304761D01*
X198033333Y-77257142D01*
X197985714Y-77161904D01*
X197985714Y-76971428D01*
X198033333Y-76876190D01*
X198128571Y-76828571D01*
X198223809Y-76828571D01*
X198319047Y-77304761D01*
X197985714Y-76542857D02*
X197985714Y-76161904D01*
X198652380Y-76400000D02*
X197795238Y-76400000D01*
X197700000Y-76352380D01*
X197652380Y-76257142D01*
X197652380Y-76161904D01*
X193052380Y-79807261D02*
X194052380Y-79473928D01*
X193052380Y-79140595D01*
X193528571Y-78473928D02*
X193576190Y-78331071D01*
X193623809Y-78283452D01*
X193719047Y-78235833D01*
X193861904Y-78235833D01*
X193957142Y-78283452D01*
X194004761Y-78331071D01*
X194052380Y-78426309D01*
X194052380Y-78807261D01*
X193052380Y-78807261D01*
X193052380Y-78473928D01*
X193100000Y-78378690D01*
X193147619Y-78331071D01*
X193242857Y-78283452D01*
X193338095Y-78283452D01*
X193433333Y-78331071D01*
X193480952Y-78378690D01*
X193528571Y-78473928D01*
X193528571Y-78807261D01*
X193052380Y-77807261D02*
X193861904Y-77807261D01*
X193957142Y-77759642D01*
X194004761Y-77712023D01*
X194052380Y-77616785D01*
X194052380Y-77426309D01*
X194004761Y-77331071D01*
X193957142Y-77283452D01*
X193861904Y-77235833D01*
X193052380Y-77235833D01*
X194004761Y-76807261D02*
X194052380Y-76664404D01*
X194052380Y-76426309D01*
X194004761Y-76331071D01*
X193957142Y-76283452D01*
X193861904Y-76235833D01*
X193766666Y-76235833D01*
X193671428Y-76283452D01*
X193623809Y-76331071D01*
X193576190Y-76426309D01*
X193528571Y-76616785D01*
X193480952Y-76712023D01*
X193433333Y-76759642D01*
X193338095Y-76807261D01*
X193242857Y-76807261D01*
X193147619Y-76759642D01*
X193100000Y-76712023D01*
X193052380Y-76616785D01*
X193052380Y-76378690D01*
X193100000Y-76235833D01*
X193671428Y-75807261D02*
X193671428Y-75045357D01*
X193052380Y-74664404D02*
X193052380Y-74045357D01*
X193433333Y-74378690D01*
X193433333Y-74235833D01*
X193480952Y-74140595D01*
X193528571Y-74092976D01*
X193623809Y-74045357D01*
X193861904Y-74045357D01*
X193957142Y-74092976D01*
X194004761Y-74140595D01*
X194052380Y-74235833D01*
X194052380Y-74521547D01*
X194004761Y-74616785D01*
X193957142Y-74664404D01*
X193957142Y-73616785D02*
X194004761Y-73569166D01*
X194052380Y-73616785D01*
X194004761Y-73664404D01*
X193957142Y-73616785D01*
X194052380Y-73616785D01*
X193052380Y-73235833D02*
X193052380Y-72616785D01*
X193433333Y-72950119D01*
X193433333Y-72807261D01*
X193480952Y-72712023D01*
X193528571Y-72664404D01*
X193623809Y-72616785D01*
X193861904Y-72616785D01*
X193957142Y-72664404D01*
X194004761Y-72712023D01*
X194052380Y-72807261D01*
X194052380Y-73092976D01*
X194004761Y-73188214D01*
X193957142Y-73235833D01*
X193052380Y-72331071D02*
X194052380Y-71997738D01*
X193052380Y-71664404D01*
X190552380Y-79807261D02*
X191552380Y-79473928D01*
X190552380Y-79140595D01*
X191028571Y-78473928D02*
X191076190Y-78331071D01*
X191123809Y-78283452D01*
X191219047Y-78235833D01*
X191361904Y-78235833D01*
X191457142Y-78283452D01*
X191504761Y-78331071D01*
X191552380Y-78426309D01*
X191552380Y-78807261D01*
X190552380Y-78807261D01*
X190552380Y-78473928D01*
X190600000Y-78378690D01*
X190647619Y-78331071D01*
X190742857Y-78283452D01*
X190838095Y-78283452D01*
X190933333Y-78331071D01*
X190980952Y-78378690D01*
X191028571Y-78473928D01*
X191028571Y-78807261D01*
X190552380Y-77807261D02*
X191361904Y-77807261D01*
X191457142Y-77759642D01*
X191504761Y-77712023D01*
X191552380Y-77616785D01*
X191552380Y-77426309D01*
X191504761Y-77331071D01*
X191457142Y-77283452D01*
X191361904Y-77235833D01*
X190552380Y-77235833D01*
X191504761Y-76807261D02*
X191552380Y-76664404D01*
X191552380Y-76426309D01*
X191504761Y-76331071D01*
X191457142Y-76283452D01*
X191361904Y-76235833D01*
X191266666Y-76235833D01*
X191171428Y-76283452D01*
X191123809Y-76331071D01*
X191076190Y-76426309D01*
X191028571Y-76616785D01*
X190980952Y-76712023D01*
X190933333Y-76759642D01*
X190838095Y-76807261D01*
X190742857Y-76807261D01*
X190647619Y-76759642D01*
X190600000Y-76712023D01*
X190552380Y-76616785D01*
X190552380Y-76378690D01*
X190600000Y-76235833D01*
X187952380Y-79859642D02*
X187952380Y-79240595D01*
X188333333Y-79573928D01*
X188333333Y-79431071D01*
X188380952Y-79335833D01*
X188428571Y-79288214D01*
X188523809Y-79240595D01*
X188761904Y-79240595D01*
X188857142Y-79288214D01*
X188904761Y-79335833D01*
X188952380Y-79431071D01*
X188952380Y-79716785D01*
X188904761Y-79812023D01*
X188857142Y-79859642D01*
X188857142Y-78812023D02*
X188904761Y-78764404D01*
X188952380Y-78812023D01*
X188904761Y-78859642D01*
X188857142Y-78812023D01*
X188952380Y-78812023D01*
X187952380Y-78431071D02*
X187952380Y-77812023D01*
X188333333Y-78145357D01*
X188333333Y-78002500D01*
X188380952Y-77907261D01*
X188428571Y-77859642D01*
X188523809Y-77812023D01*
X188761904Y-77812023D01*
X188857142Y-77859642D01*
X188904761Y-77907261D01*
X188952380Y-78002500D01*
X188952380Y-78288214D01*
X188904761Y-78383452D01*
X188857142Y-78431071D01*
X187952380Y-77526309D02*
X188952380Y-77192976D01*
X187952380Y-76859642D01*
X185452380Y-79288214D02*
X185452380Y-79764404D01*
X185928571Y-79812023D01*
X185880952Y-79764404D01*
X185833333Y-79669166D01*
X185833333Y-79431071D01*
X185880952Y-79335833D01*
X185928571Y-79288214D01*
X186023809Y-79240595D01*
X186261904Y-79240595D01*
X186357142Y-79288214D01*
X186404761Y-79335833D01*
X186452380Y-79431071D01*
X186452380Y-79669166D01*
X186404761Y-79764404D01*
X186357142Y-79812023D01*
X185452380Y-78954880D02*
X186452380Y-78621547D01*
X185452380Y-78288214D01*
X180997500Y-53716666D02*
X181430833Y-53716666D01*
X181197500Y-53983333D01*
X181297500Y-53983333D01*
X181364166Y-54016666D01*
X181397500Y-54050000D01*
X181430833Y-54116666D01*
X181430833Y-54283333D01*
X181397500Y-54350000D01*
X181364166Y-54383333D01*
X181297500Y-54416666D01*
X181097500Y-54416666D01*
X181030833Y-54383333D01*
X180997500Y-54350000D01*
X181730833Y-54350000D02*
X181764166Y-54383333D01*
X181730833Y-54416666D01*
X181697500Y-54383333D01*
X181730833Y-54350000D01*
X181730833Y-54416666D01*
X181997500Y-53716666D02*
X182430833Y-53716666D01*
X182197500Y-53983333D01*
X182297500Y-53983333D01*
X182364166Y-54016666D01*
X182397500Y-54050000D01*
X182430833Y-54116666D01*
X182430833Y-54283333D01*
X182397500Y-54350000D01*
X182364166Y-54383333D01*
X182297500Y-54416666D01*
X182097500Y-54416666D01*
X182030833Y-54383333D01*
X181997500Y-54350000D01*
X182630833Y-53716666D02*
X182864166Y-54416666D01*
X183097500Y-53716666D01*
X181397500Y-56316666D02*
X181064166Y-56316666D01*
X181030833Y-56650000D01*
X181064166Y-56616666D01*
X181130833Y-56583333D01*
X181297500Y-56583333D01*
X181364166Y-56616666D01*
X181397500Y-56650000D01*
X181430833Y-56716666D01*
X181430833Y-56883333D01*
X181397500Y-56950000D01*
X181364166Y-56983333D01*
X181297500Y-57016666D01*
X181130833Y-57016666D01*
X181064166Y-56983333D01*
X181030833Y-56950000D01*
X181630833Y-56316666D02*
X181864166Y-57016666D01*
X182097500Y-56316666D01*
X181030833Y-51883333D02*
X181130833Y-51916666D01*
X181297500Y-51916666D01*
X181364166Y-51883333D01*
X181397500Y-51850000D01*
X181430833Y-51783333D01*
X181430833Y-51716666D01*
X181397500Y-51650000D01*
X181364166Y-51616666D01*
X181297500Y-51583333D01*
X181164166Y-51550000D01*
X181097500Y-51516666D01*
X181064166Y-51483333D01*
X181030833Y-51416666D01*
X181030833Y-51350000D01*
X181064166Y-51283333D01*
X181097500Y-51250000D01*
X181164166Y-51216666D01*
X181330833Y-51216666D01*
X181430833Y-51250000D01*
X181664166Y-51216666D02*
X181830833Y-51916666D01*
X181964166Y-51416666D01*
X182097500Y-51916666D01*
X182264166Y-51216666D01*
X182930833Y-51850000D02*
X182897500Y-51883333D01*
X182797500Y-51916666D01*
X182730833Y-51916666D01*
X182630833Y-51883333D01*
X182564166Y-51816666D01*
X182530833Y-51750000D01*
X182497500Y-51616666D01*
X182497500Y-51516666D01*
X182530833Y-51383333D01*
X182564166Y-51316666D01*
X182630833Y-51250000D01*
X182730833Y-51216666D01*
X182797500Y-51216666D01*
X182897500Y-51250000D01*
X182930833Y-51283333D01*
X183564166Y-51916666D02*
X183230833Y-51916666D01*
X183230833Y-51216666D01*
X183797500Y-51916666D02*
X183797500Y-51216666D01*
X184197500Y-51916666D02*
X183897500Y-51516666D01*
X184197500Y-51216666D02*
X183797500Y-51616666D01*
X181430833Y-48750000D02*
X181364166Y-48716666D01*
X181264166Y-48716666D01*
X181164166Y-48750000D01*
X181097500Y-48816666D01*
X181064166Y-48883333D01*
X181030833Y-49016666D01*
X181030833Y-49116666D01*
X181064166Y-49250000D01*
X181097500Y-49316666D01*
X181164166Y-49383333D01*
X181264166Y-49416666D01*
X181330833Y-49416666D01*
X181430833Y-49383333D01*
X181464166Y-49350000D01*
X181464166Y-49116666D01*
X181330833Y-49116666D01*
X181764166Y-49416666D02*
X181764166Y-48716666D01*
X182164166Y-49416666D01*
X182164166Y-48716666D01*
X182497500Y-49416666D02*
X182497500Y-48716666D01*
X182664166Y-48716666D01*
X182764166Y-48750000D01*
X182830833Y-48816666D01*
X182864166Y-48883333D01*
X182897500Y-49016666D01*
X182897500Y-49116666D01*
X182864166Y-49250000D01*
X182830833Y-49316666D01*
X182764166Y-49383333D01*
X182664166Y-49416666D01*
X182497500Y-49416666D01*
X181030833Y-46783333D02*
X181130833Y-46816666D01*
X181297500Y-46816666D01*
X181364166Y-46783333D01*
X181397500Y-46750000D01*
X181430833Y-46683333D01*
X181430833Y-46616666D01*
X181397500Y-46550000D01*
X181364166Y-46516666D01*
X181297500Y-46483333D01*
X181164166Y-46450000D01*
X181097500Y-46416666D01*
X181064166Y-46383333D01*
X181030833Y-46316666D01*
X181030833Y-46250000D01*
X181064166Y-46183333D01*
X181097500Y-46150000D01*
X181164166Y-46116666D01*
X181330833Y-46116666D01*
X181430833Y-46150000D01*
X181664166Y-46116666D02*
X181830833Y-46816666D01*
X181964166Y-46316666D01*
X182097500Y-46816666D01*
X182264166Y-46116666D01*
X182530833Y-46816666D02*
X182530833Y-46116666D01*
X182697500Y-46116666D01*
X182797500Y-46150000D01*
X182864166Y-46216666D01*
X182897500Y-46283333D01*
X182930833Y-46416666D01*
X182930833Y-46516666D01*
X182897500Y-46650000D01*
X182864166Y-46716666D01*
X182797500Y-46783333D01*
X182697500Y-46816666D01*
X182530833Y-46816666D01*
X183230833Y-46816666D02*
X183230833Y-46116666D01*
X183697500Y-46116666D02*
X183830833Y-46116666D01*
X183897500Y-46150000D01*
X183964166Y-46216666D01*
X183997500Y-46350000D01*
X183997500Y-46583333D01*
X183964166Y-46716666D01*
X183897500Y-46783333D01*
X183830833Y-46816666D01*
X183697500Y-46816666D01*
X183630833Y-46783333D01*
X183564166Y-46716666D01*
X183530833Y-46583333D01*
X183530833Y-46350000D01*
X183564166Y-46216666D01*
X183630833Y-46150000D01*
X183697500Y-46116666D01*
X172733333Y-61404761D02*
X172876190Y-61452380D01*
X173114285Y-61452380D01*
X173209523Y-61404761D01*
X173257142Y-61357142D01*
X173304761Y-61261904D01*
X173304761Y-61166666D01*
X173257142Y-61071428D01*
X173209523Y-61023809D01*
X173114285Y-60976190D01*
X172923809Y-60928571D01*
X172828571Y-60880952D01*
X172780952Y-60833333D01*
X172733333Y-60738095D01*
X172733333Y-60642857D01*
X172780952Y-60547619D01*
X172828571Y-60500000D01*
X172923809Y-60452380D01*
X173161904Y-60452380D01*
X173304761Y-60500000D01*
X173590476Y-60452380D02*
X174161904Y-60452380D01*
X173876190Y-61452380D02*
X173876190Y-60452380D01*
X174971428Y-61452380D02*
X174495238Y-61452380D01*
X174495238Y-60452380D01*
X175304761Y-61452380D02*
X175304761Y-60785714D01*
X175304761Y-60452380D02*
X175257142Y-60500000D01*
X175304761Y-60547619D01*
X175352380Y-60500000D01*
X175304761Y-60452380D01*
X175304761Y-60547619D01*
X175780952Y-60785714D02*
X175780952Y-61452380D01*
X175780952Y-60880952D02*
X175828571Y-60833333D01*
X175923809Y-60785714D01*
X176066666Y-60785714D01*
X176161904Y-60833333D01*
X176209523Y-60928571D01*
X176209523Y-61452380D01*
X176685714Y-61452380D02*
X176685714Y-60452380D01*
X176780952Y-61071428D02*
X177066666Y-61452380D01*
X177066666Y-60785714D02*
X176685714Y-61166666D01*
X172664166Y-46350000D02*
X172664166Y-46816666D01*
X172664166Y-46416666D02*
X172697500Y-46383333D01*
X172764166Y-46350000D01*
X172864166Y-46350000D01*
X172930833Y-46383333D01*
X172964166Y-46450000D01*
X172964166Y-46816666D01*
X173697500Y-46816666D02*
X173464166Y-46483333D01*
X173297500Y-46816666D02*
X173297500Y-46116666D01*
X173564166Y-46116666D01*
X173630833Y-46150000D01*
X173664166Y-46183333D01*
X173697500Y-46250000D01*
X173697500Y-46350000D01*
X173664166Y-46416666D01*
X173630833Y-46450000D01*
X173564166Y-46483333D01*
X173297500Y-46483333D01*
X173997500Y-46450000D02*
X174230833Y-46450000D01*
X174330833Y-46816666D02*
X173997500Y-46816666D01*
X173997500Y-46116666D01*
X174330833Y-46116666D01*
X174597500Y-46783333D02*
X174697500Y-46816666D01*
X174864166Y-46816666D01*
X174930833Y-46783333D01*
X174964166Y-46750000D01*
X174997500Y-46683333D01*
X174997500Y-46616666D01*
X174964166Y-46550000D01*
X174930833Y-46516666D01*
X174864166Y-46483333D01*
X174730833Y-46450000D01*
X174664166Y-46416666D01*
X174630833Y-46383333D01*
X174597500Y-46316666D01*
X174597500Y-46250000D01*
X174630833Y-46183333D01*
X174664166Y-46150000D01*
X174730833Y-46116666D01*
X174897500Y-46116666D01*
X174997500Y-46150000D01*
X175297500Y-46450000D02*
X175530833Y-46450000D01*
X175630833Y-46816666D02*
X175297500Y-46816666D01*
X175297500Y-46116666D01*
X175630833Y-46116666D01*
X175830833Y-46116666D02*
X176230833Y-46116666D01*
X176030833Y-46816666D02*
X176030833Y-46116666D01*
X173030833Y-48750000D02*
X172964166Y-48716666D01*
X172864166Y-48716666D01*
X172764166Y-48750000D01*
X172697500Y-48816666D01*
X172664166Y-48883333D01*
X172630833Y-49016666D01*
X172630833Y-49116666D01*
X172664166Y-49250000D01*
X172697500Y-49316666D01*
X172764166Y-49383333D01*
X172864166Y-49416666D01*
X172930833Y-49416666D01*
X173030833Y-49383333D01*
X173064166Y-49350000D01*
X173064166Y-49116666D01*
X172930833Y-49116666D01*
X173364166Y-49416666D02*
X173364166Y-48716666D01*
X173764166Y-49416666D01*
X173764166Y-48716666D01*
X174097500Y-49416666D02*
X174097500Y-48716666D01*
X174264166Y-48716666D01*
X174364166Y-48750000D01*
X174430833Y-48816666D01*
X174464166Y-48883333D01*
X174497500Y-49016666D01*
X174497500Y-49116666D01*
X174464166Y-49250000D01*
X174430833Y-49316666D01*
X174364166Y-49383333D01*
X174264166Y-49416666D01*
X174097500Y-49416666D01*
X172630833Y-51883333D02*
X172730833Y-51916666D01*
X172897500Y-51916666D01*
X172964166Y-51883333D01*
X172997500Y-51850000D01*
X173030833Y-51783333D01*
X173030833Y-51716666D01*
X172997500Y-51650000D01*
X172964166Y-51616666D01*
X172897500Y-51583333D01*
X172764166Y-51550000D01*
X172697500Y-51516666D01*
X172664166Y-51483333D01*
X172630833Y-51416666D01*
X172630833Y-51350000D01*
X172664166Y-51283333D01*
X172697500Y-51250000D01*
X172764166Y-51216666D01*
X172930833Y-51216666D01*
X173030833Y-51250000D01*
X173264166Y-51216666D02*
X173430833Y-51916666D01*
X173564166Y-51416666D01*
X173697500Y-51916666D01*
X173864166Y-51216666D01*
X174130833Y-51916666D02*
X174130833Y-51216666D01*
X174464166Y-51916666D02*
X174464166Y-51216666D01*
X174697500Y-51716666D01*
X174930833Y-51216666D01*
X174930833Y-51916666D01*
X172597500Y-53716666D02*
X173030833Y-53716666D01*
X172797500Y-53983333D01*
X172897500Y-53983333D01*
X172964166Y-54016666D01*
X172997500Y-54050000D01*
X173030833Y-54116666D01*
X173030833Y-54283333D01*
X172997500Y-54350000D01*
X172964166Y-54383333D01*
X172897500Y-54416666D01*
X172697500Y-54416666D01*
X172630833Y-54383333D01*
X172597500Y-54350000D01*
X173330833Y-54350000D02*
X173364166Y-54383333D01*
X173330833Y-54416666D01*
X173297500Y-54383333D01*
X173330833Y-54350000D01*
X173330833Y-54416666D01*
X173597500Y-53716666D02*
X174030833Y-53716666D01*
X173797500Y-53983333D01*
X173897500Y-53983333D01*
X173964166Y-54016666D01*
X173997500Y-54050000D01*
X174030833Y-54116666D01*
X174030833Y-54283333D01*
X173997500Y-54350000D01*
X173964166Y-54383333D01*
X173897500Y-54416666D01*
X173697500Y-54416666D01*
X173630833Y-54383333D01*
X173597500Y-54350000D01*
X174230833Y-53716666D02*
X174464166Y-54416666D01*
X174697500Y-53716666D01*
X172997500Y-56316666D02*
X172664166Y-56316666D01*
X172630833Y-56650000D01*
X172664166Y-56616666D01*
X172730833Y-56583333D01*
X172897500Y-56583333D01*
X172964166Y-56616666D01*
X172997500Y-56650000D01*
X173030833Y-56716666D01*
X173030833Y-56883333D01*
X172997500Y-56950000D01*
X172964166Y-56983333D01*
X172897500Y-57016666D01*
X172730833Y-57016666D01*
X172664166Y-56983333D01*
X172630833Y-56950000D01*
X173230833Y-56316666D02*
X173464166Y-57016666D01*
X173697500Y-56316666D01*
X160742857Y-52552380D02*
X160742857Y-53266666D01*
X160695238Y-53409523D01*
X160600000Y-53504761D01*
X160457142Y-53552380D01*
X160361904Y-53552380D01*
X161695238Y-53552380D02*
X161219047Y-53552380D01*
X161219047Y-52552380D01*
X162028571Y-53552380D02*
X162028571Y-52885714D01*
X162028571Y-52552380D02*
X161980952Y-52600000D01*
X162028571Y-52647619D01*
X162076190Y-52600000D01*
X162028571Y-52552380D01*
X162028571Y-52647619D01*
X162504761Y-52885714D02*
X162504761Y-53552380D01*
X162504761Y-52980952D02*
X162552380Y-52933333D01*
X162647619Y-52885714D01*
X162790476Y-52885714D01*
X162885714Y-52933333D01*
X162933333Y-53028571D01*
X162933333Y-53552380D01*
X163409523Y-53552380D02*
X163409523Y-52552380D01*
X163504761Y-53171428D02*
X163790476Y-53552380D01*
X163790476Y-52885714D02*
X163409523Y-53266666D01*
D11*
X187495000Y-71200000D02*
X187495000Y-75010000D01*
X187495000Y-75010000D02*
X192575000Y-75010000D01*
X192575000Y-75010000D02*
X192575000Y-71200000D01*
X187495000Y-71200000D02*
X187495000Y-64850000D01*
X187495000Y-64850000D02*
X192575000Y-64850000D01*
X192575000Y-64850000D02*
X192575000Y-68660000D01*
X192575000Y-49810000D02*
X192575000Y-54890000D01*
X187495000Y-49810000D02*
X192575000Y-49810000D01*
X187495000Y-58700000D02*
X187495000Y-49810000D01*
X192575000Y-62510000D02*
X192575000Y-57430000D01*
X187495000Y-62510000D02*
X192575000Y-62510000D01*
X187495000Y-58700000D02*
X187495000Y-62510000D01*
X194895000Y-58700000D02*
X194895000Y-62510000D01*
X194895000Y-62510000D02*
X199975000Y-62510000D01*
X199975000Y-62510000D02*
X199975000Y-58700000D01*
X194895000Y-58700000D02*
X194895000Y-52350000D01*
X194895000Y-52350000D02*
X199975000Y-52350000D01*
X199975000Y-52350000D02*
X199975000Y-56160000D01*
X157510000Y-54390000D02*
X166630000Y-54390000D01*
X166630000Y-54390000D02*
X166630000Y-87670000D01*
X166630000Y-87670000D02*
X157510000Y-87670000D01*
X157510000Y-87670000D02*
X157510000Y-54390000D01*
X157510000Y-68980000D02*
X158820000Y-68980000D01*
X158820000Y-68980000D02*
X158820000Y-55690000D01*
X158820000Y-55690000D02*
X165320000Y-55690000D01*
X165320000Y-55690000D02*
X165320000Y-86370000D01*
X165320000Y-86370000D02*
X158820000Y-86370000D01*
X158820000Y-86370000D02*
X158820000Y-73080000D01*
X158820000Y-73080000D02*
X158820000Y-73080000D01*
X158820000Y-73080000D02*
X157510000Y-73080000D01*
X157120000Y-59600000D02*
X156120000Y-59100000D01*
X156120000Y-59100000D02*
X156120000Y-60100000D01*
X156120000Y-60100000D02*
X157120000Y-59600000D01*
X194895000Y-71200000D02*
X194895000Y-75010000D01*
X194895000Y-75010000D02*
X199975000Y-75010000D01*
X199975000Y-75010000D02*
X199975000Y-71200000D01*
X194895000Y-71200000D02*
X194895000Y-64850000D01*
X194895000Y-64850000D02*
X199975000Y-64850000D01*
X199975000Y-64850000D02*
X199975000Y-68660000D01*
X175915000Y-93590000D02*
X175190000Y-93590000D01*
X180410000Y-98810000D02*
X180410000Y-98085000D01*
X179685000Y-98810000D02*
X180410000Y-98810000D01*
X175190000Y-98810000D02*
X175190000Y-98085000D01*
X175915000Y-98810000D02*
X175190000Y-98810000D01*
X180410000Y-93590000D02*
X180410000Y-94315000D01*
X179685000Y-93590000D02*
X180410000Y-93590000D01*
X199530000Y-85970000D02*
X198200000Y-85970000D01*
X199530000Y-84640000D02*
X199530000Y-85970000D01*
X199530000Y-83370000D02*
X196870000Y-83370000D01*
X196870000Y-83370000D02*
X196870000Y-80770000D01*
X199530000Y-83370000D02*
X199530000Y-80770000D01*
X199530000Y-80770000D02*
X196870000Y-80770000D01*
X168400000Y-97300000D02*
X170000000Y-97300000D01*
X170000000Y-95500000D02*
X168100000Y-95500000D01*
X181600000Y-102490000D02*
X187610000Y-102490000D01*
X183850000Y-109310000D02*
X187610000Y-109310000D01*
X187610000Y-102490000D02*
X187610000Y-103750000D01*
X187610000Y-109310000D02*
X187610000Y-108050000D01*
X167310000Y-100061252D02*
X167310000Y-99538748D01*
X165890000Y-100061252D02*
X165890000Y-99538748D01*
X171938748Y-86510000D02*
X172461252Y-86510000D01*
X171938748Y-85090000D02*
X172461252Y-85090000D01*
X165890000Y-92738748D02*
X165890000Y-93261252D01*
X167310000Y-92738748D02*
X167310000Y-93261252D01*
X176938748Y-86510000D02*
X177461252Y-86510000D01*
X176938748Y-85090000D02*
X177461252Y-85090000D01*
X177661252Y-100290000D02*
X177138748Y-100290000D01*
X177661252Y-101710000D02*
X177138748Y-101710000D01*
X181738748Y-91910000D02*
X182261252Y-91910000D01*
X181738748Y-90490000D02*
X182261252Y-90490000D01*
X177138748Y-103910000D02*
X177661252Y-103910000D01*
X177138748Y-102490000D02*
X177661252Y-102490000D01*
X192890000Y-88938748D02*
X192890000Y-89461252D01*
X194310000Y-88938748D02*
X194310000Y-89461252D01*
X190390000Y-88938748D02*
X190390000Y-89461252D01*
X191810000Y-88938748D02*
X191810000Y-89461252D01*
X187790000Y-88938748D02*
X187790000Y-89461252D01*
X189210000Y-88938748D02*
X189210000Y-89461252D01*
X185190000Y-88938748D02*
X185190000Y-89461252D01*
X186610000Y-88938748D02*
X186610000Y-89461252D01*
X172960000Y-90780000D02*
X171500000Y-90780000D01*
X172960000Y-87620000D02*
X170800000Y-87620000D01*
X172960000Y-87620000D02*
X172960000Y-88550000D01*
X172960000Y-90780000D02*
X172960000Y-89850000D01*
X177960000Y-90780000D02*
X176500000Y-90780000D01*
X177960000Y-87620000D02*
X175800000Y-87620000D01*
X177960000Y-87620000D02*
X177960000Y-88550000D01*
X177960000Y-90780000D02*
X177960000Y-89850000D01*
X155900000Y-91700000D02*
X155900000Y-101100000D01*
X161700000Y-101100000D02*
X159700000Y-101100000D01*
X157800000Y-101100000D02*
X155900000Y-101100000D01*
X161700000Y-91700000D02*
X159700000Y-91700000D01*
X157800000Y-91700000D02*
X155900000Y-91700000D01*
X177670000Y-45170000D02*
X179000000Y-45170000D01*
X177670000Y-46500000D02*
X177670000Y-45170000D01*
X177670000Y-47770000D02*
X180330000Y-47770000D01*
X180330000Y-47770000D02*
X180330000Y-57990000D01*
X177670000Y-47770000D02*
X177670000Y-57990000D01*
X177670000Y-57990000D02*
X180330000Y-57990000D01*
X169270000Y-45170000D02*
X170600000Y-45170000D01*
X169270000Y-46500000D02*
X169270000Y-45170000D01*
X169270000Y-47770000D02*
X171930000Y-47770000D01*
X171930000Y-47770000D02*
X171930000Y-57990000D01*
X169270000Y-47770000D02*
X169270000Y-57990000D01*
X169270000Y-57990000D02*
X171930000Y-57990000D01*
X180880000Y-77300000D02*
X179880000Y-77800000D01*
X180880000Y-78300000D02*
X180880000Y-77300000D01*
X179880000Y-77800000D02*
X180880000Y-78300000D01*
X178180000Y-70670000D02*
X179490000Y-70670000D01*
X178180000Y-70670000D02*
X178180000Y-70670000D01*
X178180000Y-63730000D02*
X178180000Y-70670000D01*
X171680000Y-63730000D02*
X178180000Y-63730000D01*
X171680000Y-81710000D02*
X171680000Y-63730000D01*
X178180000Y-81710000D02*
X171680000Y-81710000D01*
X178180000Y-74770000D02*
X178180000Y-81710000D01*
X179490000Y-74770000D02*
X178180000Y-74770000D01*
X179490000Y-62430000D02*
X179490000Y-83010000D01*
X170370000Y-62430000D02*
X179490000Y-62430000D01*
X170370000Y-83010000D02*
X170370000Y-62430000D01*
X179490000Y-83010000D02*
X170370000Y-83010000D01*
X184670000Y-86030000D02*
X184670000Y-84700000D01*
X186000000Y-86030000D02*
X184670000Y-86030000D01*
X184670000Y-83430000D02*
X184670000Y-80830000D01*
X187270000Y-83430000D02*
X184670000Y-83430000D01*
X187270000Y-86030000D02*
X187270000Y-83430000D01*
X184670000Y-80830000D02*
X194950000Y-80830000D01*
X187270000Y-86030000D02*
X194950000Y-86030000D01*
X194950000Y-86030000D02*
X194950000Y-80830000D01*
X194560000Y-96585000D02*
X194560000Y-93900000D01*
X192640000Y-96585000D02*
X194560000Y-96585000D01*
X192640000Y-93900000D02*
X192640000Y-96585000D01*
X192060000Y-96585000D02*
X192060000Y-93900000D01*
X190140000Y-96585000D02*
X192060000Y-96585000D01*
X190140000Y-93900000D02*
X190140000Y-96585000D01*
X189460000Y-96585000D02*
X189460000Y-93900000D01*
X187540000Y-96585000D02*
X189460000Y-96585000D01*
X187540000Y-93900000D02*
X187540000Y-96585000D01*
X186860000Y-96585000D02*
X186860000Y-93900000D01*
X184940000Y-96585000D02*
X186860000Y-96585000D01*
X184940000Y-93900000D02*
X184940000Y-96585000D01*
X171890000Y-97138748D02*
X171890000Y-97661252D01*
X173310000Y-97138748D02*
X173310000Y-97661252D01*
X181738748Y-89510000D02*
X182261252Y-89510000D01*
X181738748Y-88090000D02*
X182261252Y-88090000D01*
X173661252Y-100290000D02*
X173138748Y-100290000D01*
X173661252Y-101710000D02*
X173138748Y-101710000D01*
X173661252Y-102490000D02*
X173138748Y-102490000D01*
X173661252Y-103910000D02*
X173138748Y-103910000D01*
X188211252Y-99590000D02*
X186788748Y-99590000D01*
X188211252Y-101410000D02*
X186788748Y-101410000D01*
X180890000Y-82588748D02*
X180890000Y-84011252D01*
X182710000Y-82588748D02*
X182710000Y-84011252D01*
D10*
X181052380Y-94961904D02*
X181861904Y-94961904D01*
X181957142Y-94914285D01*
X182004761Y-94866666D01*
X182052380Y-94771428D01*
X182052380Y-94580952D01*
X182004761Y-94485714D01*
X181957142Y-94438095D01*
X181861904Y-94390476D01*
X181052380Y-94390476D01*
X181147619Y-93961904D02*
X181100000Y-93914285D01*
X181052380Y-93819047D01*
X181052380Y-93580952D01*
X181100000Y-93485714D01*
X181147619Y-93438095D01*
X181242857Y-93390476D01*
X181338095Y-93390476D01*
X181480952Y-93438095D01*
X182052380Y-94009523D01*
X182052380Y-93390476D01*
X169541380Y-95129904D02*
X170350904Y-95129904D01*
X170446142Y-95082285D01*
X170493761Y-95034666D01*
X170541380Y-94939428D01*
X170541380Y-94748952D01*
X170493761Y-94653714D01*
X170446142Y-94606095D01*
X170350904Y-94558476D01*
X169541380Y-94558476D01*
X169541380Y-94177523D02*
X169541380Y-93558476D01*
X169922333Y-93891809D01*
X169922333Y-93748952D01*
X169969952Y-93653714D01*
X170017571Y-93606095D01*
X170112809Y-93558476D01*
X170350904Y-93558476D01*
X170446142Y-93606095D01*
X170493761Y-93653714D01*
X170541380Y-93748952D01*
X170541380Y-94034666D01*
X170493761Y-94129904D01*
X170446142Y-94177523D01*
X190438095Y-102602380D02*
X190438095Y-103411904D01*
X190485714Y-103507142D01*
X190533333Y-103554761D01*
X190628571Y-103602380D01*
X190819047Y-103602380D01*
X190914285Y-103554761D01*
X190961904Y-103507142D01*
X191009523Y-103411904D01*
X191009523Y-102602380D01*
X192009523Y-103602380D02*
X191438095Y-103602380D01*
X191723809Y-103602380D02*
X191723809Y-102602380D01*
X191628571Y-102745238D01*
X191533333Y-102840476D01*
X191438095Y-102888095D01*
X167052380Y-103744857D02*
X166576190Y-104078190D01*
X167052380Y-104316285D02*
X166052380Y-104316285D01*
X166052380Y-103935333D01*
X166100000Y-103840095D01*
X166147619Y-103792476D01*
X166242857Y-103744857D01*
X166385714Y-103744857D01*
X166480952Y-103792476D01*
X166528571Y-103840095D01*
X166576190Y-103935333D01*
X166576190Y-104316285D01*
X167052380Y-102792476D02*
X167052380Y-103363904D01*
X167052380Y-103078190D02*
X166052380Y-103078190D01*
X166195238Y-103173428D01*
X166290476Y-103268666D01*
X166338095Y-103363904D01*
X167052380Y-101840095D02*
X167052380Y-102411523D01*
X167052380Y-102125809D02*
X166052380Y-102125809D01*
X166195238Y-102221047D01*
X166290476Y-102316285D01*
X166338095Y-102411523D01*
X170052380Y-86642857D02*
X169576190Y-86976190D01*
X170052380Y-87214285D02*
X169052380Y-87214285D01*
X169052380Y-86833333D01*
X169100000Y-86738095D01*
X169147619Y-86690476D01*
X169242857Y-86642857D01*
X169385714Y-86642857D01*
X169480952Y-86690476D01*
X169528571Y-86738095D01*
X169576190Y-86833333D01*
X169576190Y-87214285D01*
X170052380Y-85690476D02*
X170052380Y-86261904D01*
X170052380Y-85976190D02*
X169052380Y-85976190D01*
X169195238Y-86071428D01*
X169290476Y-86166666D01*
X169338095Y-86261904D01*
X169052380Y-85071428D02*
X169052380Y-84976190D01*
X169100000Y-84880952D01*
X169147619Y-84833333D01*
X169242857Y-84785714D01*
X169433333Y-84738095D01*
X169671428Y-84738095D01*
X169861904Y-84785714D01*
X169957142Y-84833333D01*
X170004761Y-84880952D01*
X170052380Y-84976190D01*
X170052380Y-85071428D01*
X170004761Y-85166666D01*
X169957142Y-85214285D01*
X169861904Y-85261904D01*
X169671428Y-85309523D01*
X169433333Y-85309523D01*
X169242857Y-85261904D01*
X169147619Y-85214285D01*
X169100000Y-85166666D01*
X169052380Y-85071428D01*
X167052380Y-90172666D02*
X166576190Y-90506000D01*
X167052380Y-90744095D02*
X166052380Y-90744095D01*
X166052380Y-90363142D01*
X166100000Y-90267904D01*
X166147619Y-90220285D01*
X166242857Y-90172666D01*
X166385714Y-90172666D01*
X166480952Y-90220285D01*
X166528571Y-90267904D01*
X166576190Y-90363142D01*
X166576190Y-90744095D01*
X167052380Y-89696476D02*
X167052380Y-89506000D01*
X167004761Y-89410761D01*
X166957142Y-89363142D01*
X166814285Y-89267904D01*
X166623809Y-89220285D01*
X166242857Y-89220285D01*
X166147619Y-89267904D01*
X166100000Y-89315523D01*
X166052380Y-89410761D01*
X166052380Y-89601238D01*
X166100000Y-89696476D01*
X166147619Y-89744095D01*
X166242857Y-89791714D01*
X166480952Y-89791714D01*
X166576190Y-89744095D01*
X166623809Y-89696476D01*
X166671428Y-89601238D01*
X166671428Y-89410761D01*
X166623809Y-89315523D01*
X166576190Y-89267904D01*
X166480952Y-89220285D01*
X180252380Y-85966666D02*
X179776190Y-86300000D01*
X180252380Y-86538095D02*
X179252380Y-86538095D01*
X179252380Y-86157142D01*
X179300000Y-86061904D01*
X179347619Y-86014285D01*
X179442857Y-85966666D01*
X179585714Y-85966666D01*
X179680952Y-86014285D01*
X179728571Y-86061904D01*
X179776190Y-86157142D01*
X179776190Y-86538095D01*
X179680952Y-85395238D02*
X179633333Y-85490476D01*
X179585714Y-85538095D01*
X179490476Y-85585714D01*
X179442857Y-85585714D01*
X179347619Y-85538095D01*
X179300000Y-85490476D01*
X179252380Y-85395238D01*
X179252380Y-85204761D01*
X179300000Y-85109523D01*
X179347619Y-85061904D01*
X179442857Y-85014285D01*
X179490476Y-85014285D01*
X179585714Y-85061904D01*
X179633333Y-85109523D01*
X179680952Y-85204761D01*
X179680952Y-85395238D01*
X179728571Y-85490476D01*
X179776190Y-85538095D01*
X179871428Y-85585714D01*
X180061904Y-85585714D01*
X180157142Y-85538095D01*
X180204761Y-85490476D01*
X180252380Y-85395238D01*
X180252380Y-85204761D01*
X180204761Y-85109523D01*
X180157142Y-85061904D01*
X180061904Y-85014285D01*
X179871428Y-85014285D01*
X179776190Y-85061904D01*
X179728571Y-85109523D01*
X179680952Y-85204761D01*
X180392380Y-101166666D02*
X179916190Y-101500000D01*
X180392380Y-101738095D02*
X179392380Y-101738095D01*
X179392380Y-101357142D01*
X179440000Y-101261904D01*
X179487619Y-101214285D01*
X179582857Y-101166666D01*
X179725714Y-101166666D01*
X179820952Y-101214285D01*
X179868571Y-101261904D01*
X179916190Y-101357142D01*
X179916190Y-101738095D01*
X179392380Y-100833333D02*
X179392380Y-100166666D01*
X180392380Y-100595238D01*
X180052380Y-91366666D02*
X179576190Y-91700000D01*
X180052380Y-91938095D02*
X179052380Y-91938095D01*
X179052380Y-91557142D01*
X179100000Y-91461904D01*
X179147619Y-91414285D01*
X179242857Y-91366666D01*
X179385714Y-91366666D01*
X179480952Y-91414285D01*
X179528571Y-91461904D01*
X179576190Y-91557142D01*
X179576190Y-91938095D01*
X179052380Y-90509523D02*
X179052380Y-90700000D01*
X179100000Y-90795238D01*
X179147619Y-90842857D01*
X179290476Y-90938095D01*
X179480952Y-90985714D01*
X179861904Y-90985714D01*
X179957142Y-90938095D01*
X180004761Y-90890476D01*
X180052380Y-90795238D01*
X180052380Y-90604761D01*
X180004761Y-90509523D01*
X179957142Y-90461904D01*
X179861904Y-90414285D01*
X179623809Y-90414285D01*
X179528571Y-90461904D01*
X179480952Y-90509523D01*
X179433333Y-90604761D01*
X179433333Y-90795238D01*
X179480952Y-90890476D01*
X179528571Y-90938095D01*
X179623809Y-90985714D01*
X180392380Y-103366666D02*
X179916190Y-103700000D01*
X180392380Y-103938095D02*
X179392380Y-103938095D01*
X179392380Y-103557142D01*
X179440000Y-103461904D01*
X179487619Y-103414285D01*
X179582857Y-103366666D01*
X179725714Y-103366666D01*
X179820952Y-103414285D01*
X179868571Y-103461904D01*
X179916190Y-103557142D01*
X179916190Y-103938095D01*
X179392380Y-102461904D02*
X179392380Y-102938095D01*
X179868571Y-102985714D01*
X179820952Y-102938095D01*
X179773333Y-102842857D01*
X179773333Y-102604761D01*
X179820952Y-102509523D01*
X179868571Y-102461904D01*
X179963809Y-102414285D01*
X180201904Y-102414285D01*
X180297142Y-102461904D01*
X180344761Y-102509523D01*
X180392380Y-102604761D01*
X180392380Y-102842857D01*
X180344761Y-102938095D01*
X180297142Y-102985714D01*
X193952380Y-92166666D02*
X193476190Y-92500000D01*
X193952380Y-92738095D02*
X192952380Y-92738095D01*
X192952380Y-92357142D01*
X193000000Y-92261904D01*
X193047619Y-92214285D01*
X193142857Y-92166666D01*
X193285714Y-92166666D01*
X193380952Y-92214285D01*
X193428571Y-92261904D01*
X193476190Y-92357142D01*
X193476190Y-92738095D01*
X193285714Y-91309523D02*
X193952380Y-91309523D01*
X192904761Y-91547619D02*
X193619047Y-91785714D01*
X193619047Y-91166666D01*
X191552380Y-92166666D02*
X191076190Y-92500000D01*
X191552380Y-92738095D02*
X190552380Y-92738095D01*
X190552380Y-92357142D01*
X190600000Y-92261904D01*
X190647619Y-92214285D01*
X190742857Y-92166666D01*
X190885714Y-92166666D01*
X190980952Y-92214285D01*
X191028571Y-92261904D01*
X191076190Y-92357142D01*
X191076190Y-92738095D01*
X190552380Y-91833333D02*
X190552380Y-91214285D01*
X190933333Y-91547619D01*
X190933333Y-91404761D01*
X190980952Y-91309523D01*
X191028571Y-91261904D01*
X191123809Y-91214285D01*
X191361904Y-91214285D01*
X191457142Y-91261904D01*
X191504761Y-91309523D01*
X191552380Y-91404761D01*
X191552380Y-91690476D01*
X191504761Y-91785714D01*
X191457142Y-91833333D01*
X188952380Y-92166666D02*
X188476190Y-92500000D01*
X188952380Y-92738095D02*
X187952380Y-92738095D01*
X187952380Y-92357142D01*
X188000000Y-92261904D01*
X188047619Y-92214285D01*
X188142857Y-92166666D01*
X188285714Y-92166666D01*
X188380952Y-92214285D01*
X188428571Y-92261904D01*
X188476190Y-92357142D01*
X188476190Y-92738095D01*
X188047619Y-91785714D02*
X188000000Y-91738095D01*
X187952380Y-91642857D01*
X187952380Y-91404761D01*
X188000000Y-91309523D01*
X188047619Y-91261904D01*
X188142857Y-91214285D01*
X188238095Y-91214285D01*
X188380952Y-91261904D01*
X188952380Y-91833333D01*
X188952380Y-91214285D01*
X186352380Y-92166666D02*
X185876190Y-92500000D01*
X186352380Y-92738095D02*
X185352380Y-92738095D01*
X185352380Y-92357142D01*
X185400000Y-92261904D01*
X185447619Y-92214285D01*
X185542857Y-92166666D01*
X185685714Y-92166666D01*
X185780952Y-92214285D01*
X185828571Y-92261904D01*
X185876190Y-92357142D01*
X185876190Y-92738095D01*
X186352380Y-91214285D02*
X186352380Y-91785714D01*
X186352380Y-91500000D02*
X185352380Y-91500000D01*
X185495238Y-91595238D01*
X185590476Y-91690476D01*
X185638095Y-91785714D01*
X170547619Y-89495238D02*
X170500000Y-89590476D01*
X170404761Y-89685714D01*
X170261904Y-89828571D01*
X170214285Y-89923809D01*
X170214285Y-90019047D01*
X170452380Y-89971428D02*
X170404761Y-90066666D01*
X170309523Y-90161904D01*
X170119047Y-90209523D01*
X169785714Y-90209523D01*
X169595238Y-90161904D01*
X169500000Y-90066666D01*
X169452380Y-89971428D01*
X169452380Y-89780952D01*
X169500000Y-89685714D01*
X169595238Y-89590476D01*
X169785714Y-89542857D01*
X170119047Y-89542857D01*
X170309523Y-89590476D01*
X170404761Y-89685714D01*
X170452380Y-89780952D01*
X170452380Y-89971428D01*
X169547619Y-89161904D02*
X169500000Y-89114285D01*
X169452380Y-89019047D01*
X169452380Y-88780952D01*
X169500000Y-88685714D01*
X169547619Y-88638095D01*
X169642857Y-88590476D01*
X169738095Y-88590476D01*
X169880952Y-88638095D01*
X170452380Y-89209523D01*
X170452380Y-88590476D01*
X175547619Y-89295238D02*
X175500000Y-89390476D01*
X175404761Y-89485714D01*
X175261904Y-89628571D01*
X175214285Y-89723809D01*
X175214285Y-89819047D01*
X175452380Y-89771428D02*
X175404761Y-89866666D01*
X175309523Y-89961904D01*
X175119047Y-90009523D01*
X174785714Y-90009523D01*
X174595238Y-89961904D01*
X174500000Y-89866666D01*
X174452380Y-89771428D01*
X174452380Y-89580952D01*
X174500000Y-89485714D01*
X174595238Y-89390476D01*
X174785714Y-89342857D01*
X175119047Y-89342857D01*
X175309523Y-89390476D01*
X175404761Y-89485714D01*
X175452380Y-89580952D01*
X175452380Y-89771428D01*
X175452380Y-88390476D02*
X175452380Y-88961904D01*
X175452380Y-88676190D02*
X174452380Y-88676190D01*
X174595238Y-88771428D01*
X174690476Y-88866666D01*
X174738095Y-88961904D01*
X193952380Y-98338095D02*
X192952380Y-98338095D01*
X192952380Y-98100000D01*
X193000000Y-97957142D01*
X193095238Y-97861904D01*
X193190476Y-97814285D01*
X193380952Y-97766666D01*
X193523809Y-97766666D01*
X193714285Y-97814285D01*
X193809523Y-97861904D01*
X193904761Y-97957142D01*
X193952380Y-98100000D01*
X193952380Y-98338095D01*
X193285714Y-96909523D02*
X193952380Y-96909523D01*
X192904761Y-97147619D02*
X193619047Y-97385714D01*
X193619047Y-96766666D01*
X191552380Y-98338095D02*
X190552380Y-98338095D01*
X190552380Y-98100000D01*
X190600000Y-97957142D01*
X190695238Y-97861904D01*
X190790476Y-97814285D01*
X190980952Y-97766666D01*
X191123809Y-97766666D01*
X191314285Y-97814285D01*
X191409523Y-97861904D01*
X191504761Y-97957142D01*
X191552380Y-98100000D01*
X191552380Y-98338095D01*
X190552380Y-97433333D02*
X190552380Y-96814285D01*
X190933333Y-97147619D01*
X190933333Y-97004761D01*
X190980952Y-96909523D01*
X191028571Y-96861904D01*
X191123809Y-96814285D01*
X191361904Y-96814285D01*
X191457142Y-96861904D01*
X191504761Y-96909523D01*
X191552380Y-97004761D01*
X191552380Y-97290476D01*
X191504761Y-97385714D01*
X191457142Y-97433333D01*
X188952380Y-98338095D02*
X187952380Y-98338095D01*
X187952380Y-98100000D01*
X188000000Y-97957142D01*
X188095238Y-97861904D01*
X188190476Y-97814285D01*
X188380952Y-97766666D01*
X188523809Y-97766666D01*
X188714285Y-97814285D01*
X188809523Y-97861904D01*
X188904761Y-97957142D01*
X188952380Y-98100000D01*
X188952380Y-98338095D01*
X188047619Y-97385714D02*
X188000000Y-97338095D01*
X187952380Y-97242857D01*
X187952380Y-97004761D01*
X188000000Y-96909523D01*
X188047619Y-96861904D01*
X188142857Y-96814285D01*
X188238095Y-96814285D01*
X188380952Y-96861904D01*
X188952380Y-97433333D01*
X188952380Y-96814285D01*
X186352380Y-98338095D02*
X185352380Y-98338095D01*
X185352380Y-98100000D01*
X185400000Y-97957142D01*
X185495238Y-97861904D01*
X185590476Y-97814285D01*
X185780952Y-97766666D01*
X185923809Y-97766666D01*
X186114285Y-97814285D01*
X186209523Y-97861904D01*
X186304761Y-97957142D01*
X186352380Y-98100000D01*
X186352380Y-98338095D01*
X186352380Y-96814285D02*
X186352380Y-97385714D01*
X186352380Y-97100000D02*
X185352380Y-97100000D01*
X185495238Y-97195238D01*
X185590476Y-97290476D01*
X185638095Y-97385714D01*
X172957142Y-94518666D02*
X173004761Y-94566285D01*
X173052380Y-94709142D01*
X173052380Y-94804380D01*
X173004761Y-94947238D01*
X172909523Y-95042476D01*
X172814285Y-95090095D01*
X172623809Y-95137714D01*
X172480952Y-95137714D01*
X172290476Y-95090095D01*
X172195238Y-95042476D01*
X172100000Y-94947238D01*
X172052380Y-94804380D01*
X172052380Y-94709142D01*
X172100000Y-94566285D01*
X172147619Y-94518666D01*
X172052380Y-93661523D02*
X172052380Y-93852000D01*
X172100000Y-93947238D01*
X172147619Y-93994857D01*
X172290476Y-94090095D01*
X172480952Y-94137714D01*
X172861904Y-94137714D01*
X172957142Y-94090095D01*
X173004761Y-94042476D01*
X173052380Y-93947238D01*
X173052380Y-93756761D01*
X173004761Y-93661523D01*
X172957142Y-93613904D01*
X172861904Y-93566285D01*
X172623809Y-93566285D01*
X172528571Y-93613904D01*
X172480952Y-93661523D01*
X172433333Y-93756761D01*
X172433333Y-93947238D01*
X172480952Y-94042476D01*
X172528571Y-94090095D01*
X172623809Y-94137714D01*
X179957142Y-88966666D02*
X180004761Y-89014285D01*
X180052380Y-89157142D01*
X180052380Y-89252380D01*
X180004761Y-89395238D01*
X179909523Y-89490476D01*
X179814285Y-89538095D01*
X179623809Y-89585714D01*
X179480952Y-89585714D01*
X179290476Y-89538095D01*
X179195238Y-89490476D01*
X179100000Y-89395238D01*
X179052380Y-89252380D01*
X179052380Y-89157142D01*
X179100000Y-89014285D01*
X179147619Y-88966666D01*
X179052380Y-88061904D02*
X179052380Y-88538095D01*
X179528571Y-88585714D01*
X179480952Y-88538095D01*
X179433333Y-88442857D01*
X179433333Y-88204761D01*
X179480952Y-88109523D01*
X179528571Y-88061904D01*
X179623809Y-88014285D01*
X179861904Y-88014285D01*
X179957142Y-88061904D01*
X180004761Y-88109523D01*
X180052380Y-88204761D01*
X180052380Y-88442857D01*
X180004761Y-88538095D01*
X179957142Y-88585714D01*
X171217142Y-101166666D02*
X171264761Y-101214285D01*
X171312380Y-101357142D01*
X171312380Y-101452380D01*
X171264761Y-101595238D01*
X171169523Y-101690476D01*
X171074285Y-101738095D01*
X170883809Y-101785714D01*
X170740952Y-101785714D01*
X170550476Y-101738095D01*
X170455238Y-101690476D01*
X170360000Y-101595238D01*
X170312380Y-101452380D01*
X170312380Y-101357142D01*
X170360000Y-101214285D01*
X170407619Y-101166666D01*
X170645714Y-100309523D02*
X171312380Y-100309523D01*
X170264761Y-100547619D02*
X170979047Y-100785714D01*
X170979047Y-100166666D01*
X171217142Y-103366666D02*
X171264761Y-103414285D01*
X171312380Y-103557142D01*
X171312380Y-103652380D01*
X171264761Y-103795238D01*
X171169523Y-103890476D01*
X171074285Y-103938095D01*
X170883809Y-103985714D01*
X170740952Y-103985714D01*
X170550476Y-103938095D01*
X170455238Y-103890476D01*
X170360000Y-103795238D01*
X170312380Y-103652380D01*
X170312380Y-103557142D01*
X170360000Y-103414285D01*
X170407619Y-103366666D01*
X170312380Y-103033333D02*
X170312380Y-102414285D01*
X170693333Y-102747619D01*
X170693333Y-102604761D01*
X170740952Y-102509523D01*
X170788571Y-102461904D01*
X170883809Y-102414285D01*
X171121904Y-102414285D01*
X171217142Y-102461904D01*
X171264761Y-102509523D01*
X171312380Y-102604761D01*
X171312380Y-102890476D01*
X171264761Y-102985714D01*
X171217142Y-103033333D01*
X190905142Y-100666666D02*
X190952761Y-100714285D01*
X191000380Y-100857142D01*
X191000380Y-100952380D01*
X190952761Y-101095238D01*
X190857523Y-101190476D01*
X190762285Y-101238095D01*
X190571809Y-101285714D01*
X190428952Y-101285714D01*
X190238476Y-101238095D01*
X190143238Y-101190476D01*
X190048000Y-101095238D01*
X190000380Y-100952380D01*
X190000380Y-100857142D01*
X190048000Y-100714285D01*
X190095619Y-100666666D01*
X190095619Y-100285714D02*
X190048000Y-100238095D01*
X190000380Y-100142857D01*
X190000380Y-99904761D01*
X190048000Y-99809523D01*
X190095619Y-99761904D01*
X190190857Y-99714285D01*
X190286095Y-99714285D01*
X190428952Y-99761904D01*
X191000380Y-100333333D01*
X191000380Y-99714285D01*
X181533333Y-80457142D02*
X181485714Y-80504761D01*
X181342857Y-80552380D01*
X181247619Y-80552380D01*
X181104761Y-80504761D01*
X181009523Y-80409523D01*
X180961904Y-80314285D01*
X180914285Y-80123809D01*
X180914285Y-79980952D01*
X180961904Y-79790476D01*
X181009523Y-79695238D01*
X181104761Y-79600000D01*
X181247619Y-79552380D01*
X181342857Y-79552380D01*
X181485714Y-79600000D01*
X181533333Y-79647619D01*
X182485714Y-80552380D02*
X181914285Y-80552380D01*
X182200000Y-80552380D02*
X182200000Y-79552380D01*
X182104761Y-79695238D01*
X182009523Y-79790476D01*
X181914285Y-79838095D01*
%LPC*%
D12*
X189400000Y-68660000D03*
X190670000Y-68660000D03*
X189400000Y-69930000D03*
X190670000Y-69930000D03*
X189400000Y-71200000D03*
X190670000Y-71200000D03*
X189400000Y-53620000D03*
X190670000Y-53620000D03*
X189400000Y-54890000D03*
X190670000Y-54890000D03*
X189400000Y-56160000D03*
X190670000Y-56160000D03*
X189400000Y-57430000D03*
X190670000Y-57430000D03*
X189400000Y-58700000D03*
X190670000Y-58700000D03*
X196800000Y-56160000D03*
X198070000Y-56160000D03*
X196800000Y-57430000D03*
X198070000Y-57430000D03*
X196800000Y-58700000D03*
X198070000Y-58700000D03*
D13*
X163340000Y-82460000D03*
X163340000Y-79920000D03*
X163340000Y-77380000D03*
X163340000Y-74840000D03*
X163340000Y-72300000D03*
X163340000Y-69760000D03*
X163340000Y-67220000D03*
X163340000Y-64680000D03*
X163340000Y-62140000D03*
X163340000Y-59600000D03*
X160800000Y-82460000D03*
X160800000Y-79920000D03*
X160800000Y-77380000D03*
X160800000Y-74840000D03*
X160800000Y-72300000D03*
X160800000Y-69760000D03*
X160800000Y-67220000D03*
X160800000Y-64680000D03*
X160800000Y-62140000D03*
G36*
G01*
X159950000Y-60200000D02*
X159950000Y-59000000D01*
G75*
G02*
X160200000Y-58750000I250000J0D01*
G01*
X161400000Y-58750000D01*
G75*
G02*
X161650000Y-59000000I0J-250000D01*
G01*
X161650000Y-60200000D01*
G75*
G02*
X161400000Y-60450000I-250000J0D01*
G01*
X160200000Y-60450000D01*
G75*
G02*
X159950000Y-60200000I0J250000D01*
G01*
G37*
D12*
X196800000Y-68660000D03*
X198070000Y-68660000D03*
X196800000Y-69930000D03*
X198070000Y-69930000D03*
X196800000Y-71200000D03*
X198070000Y-71200000D03*
D14*
X177800000Y-96200000D03*
G36*
G01*
X176175000Y-94087500D02*
X176175000Y-93412500D01*
G75*
G02*
X176237500Y-93350000I62500J0D01*
G01*
X176362500Y-93350000D01*
G75*
G02*
X176425000Y-93412500I0J-62500D01*
G01*
X176425000Y-94087500D01*
G75*
G02*
X176362500Y-94150000I-62500J0D01*
G01*
X176237500Y-94150000D01*
G75*
G02*
X176175000Y-94087500I0J62500D01*
G01*
G37*
G36*
G01*
X176675000Y-94087500D02*
X176675000Y-93412500D01*
G75*
G02*
X176737500Y-93350000I62500J0D01*
G01*
X176862500Y-93350000D01*
G75*
G02*
X176925000Y-93412500I0J-62500D01*
G01*
X176925000Y-94087500D01*
G75*
G02*
X176862500Y-94150000I-62500J0D01*
G01*
X176737500Y-94150000D01*
G75*
G02*
X176675000Y-94087500I0J62500D01*
G01*
G37*
G36*
G01*
X177175000Y-94087500D02*
X177175000Y-93412500D01*
G75*
G02*
X177237500Y-93350000I62500J0D01*
G01*
X177362500Y-93350000D01*
G75*
G02*
X177425000Y-93412500I0J-62500D01*
G01*
X177425000Y-94087500D01*
G75*
G02*
X177362500Y-94150000I-62500J0D01*
G01*
X177237500Y-94150000D01*
G75*
G02*
X177175000Y-94087500I0J62500D01*
G01*
G37*
G36*
G01*
X177675000Y-94087500D02*
X177675000Y-93412500D01*
G75*
G02*
X177737500Y-93350000I62500J0D01*
G01*
X177862500Y-93350000D01*
G75*
G02*
X177925000Y-93412500I0J-62500D01*
G01*
X177925000Y-94087500D01*
G75*
G02*
X177862500Y-94150000I-62500J0D01*
G01*
X177737500Y-94150000D01*
G75*
G02*
X177675000Y-94087500I0J62500D01*
G01*
G37*
G36*
G01*
X178175000Y-94087500D02*
X178175000Y-93412500D01*
G75*
G02*
X178237500Y-93350000I62500J0D01*
G01*
X178362500Y-93350000D01*
G75*
G02*
X178425000Y-93412500I0J-62500D01*
G01*
X178425000Y-94087500D01*
G75*
G02*
X178362500Y-94150000I-62500J0D01*
G01*
X178237500Y-94150000D01*
G75*
G02*
X178175000Y-94087500I0J62500D01*
G01*
G37*
G36*
G01*
X178675000Y-94087500D02*
X178675000Y-93412500D01*
G75*
G02*
X178737500Y-93350000I62500J0D01*
G01*
X178862500Y-93350000D01*
G75*
G02*
X178925000Y-93412500I0J-62500D01*
G01*
X178925000Y-94087500D01*
G75*
G02*
X178862500Y-94150000I-62500J0D01*
G01*
X178737500Y-94150000D01*
G75*
G02*
X178675000Y-94087500I0J62500D01*
G01*
G37*
G36*
G01*
X179175000Y-94087500D02*
X179175000Y-93412500D01*
G75*
G02*
X179237500Y-93350000I62500J0D01*
G01*
X179362500Y-93350000D01*
G75*
G02*
X179425000Y-93412500I0J-62500D01*
G01*
X179425000Y-94087500D01*
G75*
G02*
X179362500Y-94150000I-62500J0D01*
G01*
X179237500Y-94150000D01*
G75*
G02*
X179175000Y-94087500I0J62500D01*
G01*
G37*
G36*
G01*
X179850000Y-94762500D02*
X179850000Y-94637500D01*
G75*
G02*
X179912500Y-94575000I62500J0D01*
G01*
X180587500Y-94575000D01*
G75*
G02*
X180650000Y-94637500I0J-62500D01*
G01*
X180650000Y-94762500D01*
G75*
G02*
X180587500Y-94825000I-62500J0D01*
G01*
X179912500Y-94825000D01*
G75*
G02*
X179850000Y-94762500I0J62500D01*
G01*
G37*
G36*
G01*
X179850000Y-95262500D02*
X179850000Y-95137500D01*
G75*
G02*
X179912500Y-95075000I62500J0D01*
G01*
X180587500Y-95075000D01*
G75*
G02*
X180650000Y-95137500I0J-62500D01*
G01*
X180650000Y-95262500D01*
G75*
G02*
X180587500Y-95325000I-62500J0D01*
G01*
X179912500Y-95325000D01*
G75*
G02*
X179850000Y-95262500I0J62500D01*
G01*
G37*
G36*
G01*
X179850000Y-95762500D02*
X179850000Y-95637500D01*
G75*
G02*
X179912500Y-95575000I62500J0D01*
G01*
X180587500Y-95575000D01*
G75*
G02*
X180650000Y-95637500I0J-62500D01*
G01*
X180650000Y-95762500D01*
G75*
G02*
X180587500Y-95825000I-62500J0D01*
G01*
X179912500Y-95825000D01*
G75*
G02*
X179850000Y-95762500I0J62500D01*
G01*
G37*
G36*
G01*
X179850000Y-96262500D02*
X179850000Y-96137500D01*
G75*
G02*
X179912500Y-96075000I62500J0D01*
G01*
X180587500Y-96075000D01*
G75*
G02*
X180650000Y-96137500I0J-62500D01*
G01*
X180650000Y-96262500D01*
G75*
G02*
X180587500Y-96325000I-62500J0D01*
G01*
X179912500Y-96325000D01*
G75*
G02*
X179850000Y-96262500I0J62500D01*
G01*
G37*
G36*
G01*
X179850000Y-96762500D02*
X179850000Y-96637500D01*
G75*
G02*
X179912500Y-96575000I62500J0D01*
G01*
X180587500Y-96575000D01*
G75*
G02*
X180650000Y-96637500I0J-62500D01*
G01*
X180650000Y-96762500D01*
G75*
G02*
X180587500Y-96825000I-62500J0D01*
G01*
X179912500Y-96825000D01*
G75*
G02*
X179850000Y-96762500I0J62500D01*
G01*
G37*
G36*
G01*
X179850000Y-97262500D02*
X179850000Y-97137500D01*
G75*
G02*
X179912500Y-97075000I62500J0D01*
G01*
X180587500Y-97075000D01*
G75*
G02*
X180650000Y-97137500I0J-62500D01*
G01*
X180650000Y-97262500D01*
G75*
G02*
X180587500Y-97325000I-62500J0D01*
G01*
X179912500Y-97325000D01*
G75*
G02*
X179850000Y-97262500I0J62500D01*
G01*
G37*
G36*
G01*
X179850000Y-97762500D02*
X179850000Y-97637500D01*
G75*
G02*
X179912500Y-97575000I62500J0D01*
G01*
X180587500Y-97575000D01*
G75*
G02*
X180650000Y-97637500I0J-62500D01*
G01*
X180650000Y-97762500D01*
G75*
G02*
X180587500Y-97825000I-62500J0D01*
G01*
X179912500Y-97825000D01*
G75*
G02*
X179850000Y-97762500I0J62500D01*
G01*
G37*
G36*
G01*
X179175000Y-98987500D02*
X179175000Y-98312500D01*
G75*
G02*
X179237500Y-98250000I62500J0D01*
G01*
X179362500Y-98250000D01*
G75*
G02*
X179425000Y-98312500I0J-62500D01*
G01*
X179425000Y-98987500D01*
G75*
G02*
X179362500Y-99050000I-62500J0D01*
G01*
X179237500Y-99050000D01*
G75*
G02*
X179175000Y-98987500I0J62500D01*
G01*
G37*
G36*
G01*
X178675000Y-98987500D02*
X178675000Y-98312500D01*
G75*
G02*
X178737500Y-98250000I62500J0D01*
G01*
X178862500Y-98250000D01*
G75*
G02*
X178925000Y-98312500I0J-62500D01*
G01*
X178925000Y-98987500D01*
G75*
G02*
X178862500Y-99050000I-62500J0D01*
G01*
X178737500Y-99050000D01*
G75*
G02*
X178675000Y-98987500I0J62500D01*
G01*
G37*
G36*
G01*
X178175000Y-98987500D02*
X178175000Y-98312500D01*
G75*
G02*
X178237500Y-98250000I62500J0D01*
G01*
X178362500Y-98250000D01*
G75*
G02*
X178425000Y-98312500I0J-62500D01*
G01*
X178425000Y-98987500D01*
G75*
G02*
X178362500Y-99050000I-62500J0D01*
G01*
X178237500Y-99050000D01*
G75*
G02*
X178175000Y-98987500I0J62500D01*
G01*
G37*
G36*
G01*
X177675000Y-98987500D02*
X177675000Y-98312500D01*
G75*
G02*
X177737500Y-98250000I62500J0D01*
G01*
X177862500Y-98250000D01*
G75*
G02*
X177925000Y-98312500I0J-62500D01*
G01*
X177925000Y-98987500D01*
G75*
G02*
X177862500Y-99050000I-62500J0D01*
G01*
X177737500Y-99050000D01*
G75*
G02*
X177675000Y-98987500I0J62500D01*
G01*
G37*
G36*
G01*
X177175000Y-98987500D02*
X177175000Y-98312500D01*
G75*
G02*
X177237500Y-98250000I62500J0D01*
G01*
X177362500Y-98250000D01*
G75*
G02*
X177425000Y-98312500I0J-62500D01*
G01*
X177425000Y-98987500D01*
G75*
G02*
X177362500Y-99050000I-62500J0D01*
G01*
X177237500Y-99050000D01*
G75*
G02*
X177175000Y-98987500I0J62500D01*
G01*
G37*
G36*
G01*
X176675000Y-98987500D02*
X176675000Y-98312500D01*
G75*
G02*
X176737500Y-98250000I62500J0D01*
G01*
X176862500Y-98250000D01*
G75*
G02*
X176925000Y-98312500I0J-62500D01*
G01*
X176925000Y-98987500D01*
G75*
G02*
X176862500Y-99050000I-62500J0D01*
G01*
X176737500Y-99050000D01*
G75*
G02*
X176675000Y-98987500I0J62500D01*
G01*
G37*
G36*
G01*
X176175000Y-98987500D02*
X176175000Y-98312500D01*
G75*
G02*
X176237500Y-98250000I62500J0D01*
G01*
X176362500Y-98250000D01*
G75*
G02*
X176425000Y-98312500I0J-62500D01*
G01*
X176425000Y-98987500D01*
G75*
G02*
X176362500Y-99050000I-62500J0D01*
G01*
X176237500Y-99050000D01*
G75*
G02*
X176175000Y-98987500I0J62500D01*
G01*
G37*
G36*
G01*
X174950000Y-97762500D02*
X174950000Y-97637500D01*
G75*
G02*
X175012500Y-97575000I62500J0D01*
G01*
X175687500Y-97575000D01*
G75*
G02*
X175750000Y-97637500I0J-62500D01*
G01*
X175750000Y-97762500D01*
G75*
G02*
X175687500Y-97825000I-62500J0D01*
G01*
X175012500Y-97825000D01*
G75*
G02*
X174950000Y-97762500I0J62500D01*
G01*
G37*
G36*
G01*
X174950000Y-97262500D02*
X174950000Y-97137500D01*
G75*
G02*
X175012500Y-97075000I62500J0D01*
G01*
X175687500Y-97075000D01*
G75*
G02*
X175750000Y-97137500I0J-62500D01*
G01*
X175750000Y-97262500D01*
G75*
G02*
X175687500Y-97325000I-62500J0D01*
G01*
X175012500Y-97325000D01*
G75*
G02*
X174950000Y-97262500I0J62500D01*
G01*
G37*
G36*
G01*
X174950000Y-96762500D02*
X174950000Y-96637500D01*
G75*
G02*
X175012500Y-96575000I62500J0D01*
G01*
X175687500Y-96575000D01*
G75*
G02*
X175750000Y-96637500I0J-62500D01*
G01*
X175750000Y-96762500D01*
G75*
G02*
X175687500Y-96825000I-62500J0D01*
G01*
X175012500Y-96825000D01*
G75*
G02*
X174950000Y-96762500I0J62500D01*
G01*
G37*
G36*
G01*
X174950000Y-96262500D02*
X174950000Y-96137500D01*
G75*
G02*
X175012500Y-96075000I62500J0D01*
G01*
X175687500Y-96075000D01*
G75*
G02*
X175750000Y-96137500I0J-62500D01*
G01*
X175750000Y-96262500D01*
G75*
G02*
X175687500Y-96325000I-62500J0D01*
G01*
X175012500Y-96325000D01*
G75*
G02*
X174950000Y-96262500I0J62500D01*
G01*
G37*
G36*
G01*
X174950000Y-95762500D02*
X174950000Y-95637500D01*
G75*
G02*
X175012500Y-95575000I62500J0D01*
G01*
X175687500Y-95575000D01*
G75*
G02*
X175750000Y-95637500I0J-62500D01*
G01*
X175750000Y-95762500D01*
G75*
G02*
X175687500Y-95825000I-62500J0D01*
G01*
X175012500Y-95825000D01*
G75*
G02*
X174950000Y-95762500I0J62500D01*
G01*
G37*
G36*
G01*
X174950000Y-95262500D02*
X174950000Y-95137500D01*
G75*
G02*
X175012500Y-95075000I62500J0D01*
G01*
X175687500Y-95075000D01*
G75*
G02*
X175750000Y-95137500I0J-62500D01*
G01*
X175750000Y-95262500D01*
G75*
G02*
X175687500Y-95325000I-62500J0D01*
G01*
X175012500Y-95325000D01*
G75*
G02*
X174950000Y-95262500I0J62500D01*
G01*
G37*
G36*
G01*
X174950000Y-94762500D02*
X174950000Y-94637500D01*
G75*
G02*
X175012500Y-94575000I62500J0D01*
G01*
X175687500Y-94575000D01*
G75*
G02*
X175750000Y-94637500I0J-62500D01*
G01*
X175750000Y-94762500D01*
G75*
G02*
X175687500Y-94825000I-62500J0D01*
G01*
X175012500Y-94825000D01*
G75*
G02*
X174950000Y-94762500I0J62500D01*
G01*
G37*
D15*
X198200000Y-82100000D03*
D16*
X198200000Y-84640000D03*
D17*
X170050000Y-95862500D03*
X170050000Y-96937500D03*
D18*
X168275000Y-96400000D03*
X170125000Y-96400000D03*
D17*
X168350000Y-96937500D03*
X168350000Y-95862500D03*
D19*
X182550000Y-103600000D03*
X182550000Y-108200000D03*
X182550000Y-105900000D03*
D20*
X188850000Y-105900000D03*
G36*
G01*
X167050001Y-99350000D02*
X166149999Y-99350000D01*
G75*
G02*
X165900000Y-99100001I0J249999D01*
G01*
X165900000Y-98449999D01*
G75*
G02*
X166149999Y-98200000I249999J0D01*
G01*
X167050001Y-98200000D01*
G75*
G02*
X167300000Y-98449999I0J-249999D01*
G01*
X167300000Y-99100001D01*
G75*
G02*
X167050001Y-99350000I-249999J0D01*
G01*
G37*
G36*
G01*
X167050001Y-101400000D02*
X166149999Y-101400000D01*
G75*
G02*
X165900000Y-101150001I0J249999D01*
G01*
X165900000Y-100499999D01*
G75*
G02*
X166149999Y-100250000I249999J0D01*
G01*
X167050001Y-100250000D01*
G75*
G02*
X167300000Y-100499999I0J-249999D01*
G01*
X167300000Y-101150001D01*
G75*
G02*
X167050001Y-101400000I-249999J0D01*
G01*
G37*
G36*
G01*
X172650000Y-86250001D02*
X172650000Y-85349999D01*
G75*
G02*
X172899999Y-85100000I249999J0D01*
G01*
X173550001Y-85100000D01*
G75*
G02*
X173800000Y-85349999I0J-249999D01*
G01*
X173800000Y-86250001D01*
G75*
G02*
X173550001Y-86500000I-249999J0D01*
G01*
X172899999Y-86500000D01*
G75*
G02*
X172650000Y-86250001I0J249999D01*
G01*
G37*
G36*
G01*
X170600000Y-86250001D02*
X170600000Y-85349999D01*
G75*
G02*
X170849999Y-85100000I249999J0D01*
G01*
X171500001Y-85100000D01*
G75*
G02*
X171750000Y-85349999I0J-249999D01*
G01*
X171750000Y-86250001D01*
G75*
G02*
X171500001Y-86500000I-249999J0D01*
G01*
X170849999Y-86500000D01*
G75*
G02*
X170600000Y-86250001I0J249999D01*
G01*
G37*
G36*
G01*
X166149999Y-93450000D02*
X167050001Y-93450000D01*
G75*
G02*
X167300000Y-93699999I0J-249999D01*
G01*
X167300000Y-94350001D01*
G75*
G02*
X167050001Y-94600000I-249999J0D01*
G01*
X166149999Y-94600000D01*
G75*
G02*
X165900000Y-94350001I0J249999D01*
G01*
X165900000Y-93699999D01*
G75*
G02*
X166149999Y-93450000I249999J0D01*
G01*
G37*
G36*
G01*
X166149999Y-91400000D02*
X167050001Y-91400000D01*
G75*
G02*
X167300000Y-91649999I0J-249999D01*
G01*
X167300000Y-92300001D01*
G75*
G02*
X167050001Y-92550000I-249999J0D01*
G01*
X166149999Y-92550000D01*
G75*
G02*
X165900000Y-92300001I0J249999D01*
G01*
X165900000Y-91649999D01*
G75*
G02*
X166149999Y-91400000I249999J0D01*
G01*
G37*
G36*
G01*
X177650000Y-86250001D02*
X177650000Y-85349999D01*
G75*
G02*
X177899999Y-85100000I249999J0D01*
G01*
X178550001Y-85100000D01*
G75*
G02*
X178800000Y-85349999I0J-249999D01*
G01*
X178800000Y-86250001D01*
G75*
G02*
X178550001Y-86500000I-249999J0D01*
G01*
X177899999Y-86500000D01*
G75*
G02*
X177650000Y-86250001I0J249999D01*
G01*
G37*
G36*
G01*
X175600000Y-86250001D02*
X175600000Y-85349999D01*
G75*
G02*
X175849999Y-85100000I249999J0D01*
G01*
X176500001Y-85100000D01*
G75*
G02*
X176750000Y-85349999I0J-249999D01*
G01*
X176750000Y-86250001D01*
G75*
G02*
X176500001Y-86500000I-249999J0D01*
G01*
X175849999Y-86500000D01*
G75*
G02*
X175600000Y-86250001I0J249999D01*
G01*
G37*
G36*
G01*
X176950000Y-100549999D02*
X176950000Y-101450001D01*
G75*
G02*
X176700001Y-101700000I-249999J0D01*
G01*
X176049999Y-101700000D01*
G75*
G02*
X175800000Y-101450001I0J249999D01*
G01*
X175800000Y-100549999D01*
G75*
G02*
X176049999Y-100300000I249999J0D01*
G01*
X176700001Y-100300000D01*
G75*
G02*
X176950000Y-100549999I0J-249999D01*
G01*
G37*
G36*
G01*
X179000000Y-100549999D02*
X179000000Y-101450001D01*
G75*
G02*
X178750001Y-101700000I-249999J0D01*
G01*
X178099999Y-101700000D01*
G75*
G02*
X177850000Y-101450001I0J249999D01*
G01*
X177850000Y-100549999D01*
G75*
G02*
X178099999Y-100300000I249999J0D01*
G01*
X178750001Y-100300000D01*
G75*
G02*
X179000000Y-100549999I0J-249999D01*
G01*
G37*
G36*
G01*
X182450000Y-91650001D02*
X182450000Y-90749999D01*
G75*
G02*
X182699999Y-90500000I249999J0D01*
G01*
X183350001Y-90500000D01*
G75*
G02*
X183600000Y-90749999I0J-249999D01*
G01*
X183600000Y-91650001D01*
G75*
G02*
X183350001Y-91900000I-249999J0D01*
G01*
X182699999Y-91900000D01*
G75*
G02*
X182450000Y-91650001I0J249999D01*
G01*
G37*
G36*
G01*
X180400000Y-91650001D02*
X180400000Y-90749999D01*
G75*
G02*
X180649999Y-90500000I249999J0D01*
G01*
X181300001Y-90500000D01*
G75*
G02*
X181550000Y-90749999I0J-249999D01*
G01*
X181550000Y-91650001D01*
G75*
G02*
X181300001Y-91900000I-249999J0D01*
G01*
X180649999Y-91900000D01*
G75*
G02*
X180400000Y-91650001I0J249999D01*
G01*
G37*
G36*
G01*
X177850000Y-103650001D02*
X177850000Y-102749999D01*
G75*
G02*
X178099999Y-102500000I249999J0D01*
G01*
X178750001Y-102500000D01*
G75*
G02*
X179000000Y-102749999I0J-249999D01*
G01*
X179000000Y-103650001D01*
G75*
G02*
X178750001Y-103900000I-249999J0D01*
G01*
X178099999Y-103900000D01*
G75*
G02*
X177850000Y-103650001I0J249999D01*
G01*
G37*
G36*
G01*
X175800000Y-103650001D02*
X175800000Y-102749999D01*
G75*
G02*
X176049999Y-102500000I249999J0D01*
G01*
X176700001Y-102500000D01*
G75*
G02*
X176950000Y-102749999I0J-249999D01*
G01*
X176950000Y-103650001D01*
G75*
G02*
X176700001Y-103900000I-249999J0D01*
G01*
X176049999Y-103900000D01*
G75*
G02*
X175800000Y-103650001I0J249999D01*
G01*
G37*
G36*
G01*
X193149999Y-89650000D02*
X194050001Y-89650000D01*
G75*
G02*
X194300000Y-89899999I0J-249999D01*
G01*
X194300000Y-90550001D01*
G75*
G02*
X194050001Y-90800000I-249999J0D01*
G01*
X193149999Y-90800000D01*
G75*
G02*
X192900000Y-90550001I0J249999D01*
G01*
X192900000Y-89899999D01*
G75*
G02*
X193149999Y-89650000I249999J0D01*
G01*
G37*
G36*
G01*
X193149999Y-87600000D02*
X194050001Y-87600000D01*
G75*
G02*
X194300000Y-87849999I0J-249999D01*
G01*
X194300000Y-88500001D01*
G75*
G02*
X194050001Y-88750000I-249999J0D01*
G01*
X193149999Y-88750000D01*
G75*
G02*
X192900000Y-88500001I0J249999D01*
G01*
X192900000Y-87849999D01*
G75*
G02*
X193149999Y-87600000I249999J0D01*
G01*
G37*
G36*
G01*
X190649999Y-89650000D02*
X191550001Y-89650000D01*
G75*
G02*
X191800000Y-89899999I0J-249999D01*
G01*
X191800000Y-90550001D01*
G75*
G02*
X191550001Y-90800000I-249999J0D01*
G01*
X190649999Y-90800000D01*
G75*
G02*
X190400000Y-90550001I0J249999D01*
G01*
X190400000Y-89899999D01*
G75*
G02*
X190649999Y-89650000I249999J0D01*
G01*
G37*
G36*
G01*
X190649999Y-87600000D02*
X191550001Y-87600000D01*
G75*
G02*
X191800000Y-87849999I0J-249999D01*
G01*
X191800000Y-88500001D01*
G75*
G02*
X191550001Y-88750000I-249999J0D01*
G01*
X190649999Y-88750000D01*
G75*
G02*
X190400000Y-88500001I0J249999D01*
G01*
X190400000Y-87849999D01*
G75*
G02*
X190649999Y-87600000I249999J0D01*
G01*
G37*
G36*
G01*
X188049999Y-89650000D02*
X188950001Y-89650000D01*
G75*
G02*
X189200000Y-89899999I0J-249999D01*
G01*
X189200000Y-90550001D01*
G75*
G02*
X188950001Y-90800000I-249999J0D01*
G01*
X188049999Y-90800000D01*
G75*
G02*
X187800000Y-90550001I0J249999D01*
G01*
X187800000Y-89899999D01*
G75*
G02*
X188049999Y-89650000I249999J0D01*
G01*
G37*
G36*
G01*
X188049999Y-87600000D02*
X188950001Y-87600000D01*
G75*
G02*
X189200000Y-87849999I0J-249999D01*
G01*
X189200000Y-88500001D01*
G75*
G02*
X188950001Y-88750000I-249999J0D01*
G01*
X188049999Y-88750000D01*
G75*
G02*
X187800000Y-88500001I0J249999D01*
G01*
X187800000Y-87849999D01*
G75*
G02*
X188049999Y-87600000I249999J0D01*
G01*
G37*
G36*
G01*
X185449999Y-89650000D02*
X186350001Y-89650000D01*
G75*
G02*
X186600000Y-89899999I0J-249999D01*
G01*
X186600000Y-90550001D01*
G75*
G02*
X186350001Y-90800000I-249999J0D01*
G01*
X185449999Y-90800000D01*
G75*
G02*
X185200000Y-90550001I0J249999D01*
G01*
X185200000Y-89899999D01*
G75*
G02*
X185449999Y-89650000I249999J0D01*
G01*
G37*
G36*
G01*
X185449999Y-87600000D02*
X186350001Y-87600000D01*
G75*
G02*
X186600000Y-87849999I0J-249999D01*
G01*
X186600000Y-88500001D01*
G75*
G02*
X186350001Y-88750000I-249999J0D01*
G01*
X185449999Y-88750000D01*
G75*
G02*
X185200000Y-88500001I0J249999D01*
G01*
X185200000Y-87849999D01*
G75*
G02*
X185449999Y-87600000I249999J0D01*
G01*
G37*
D21*
X173200000Y-89200000D03*
X171200000Y-90150000D03*
X171200000Y-88250000D03*
X178200000Y-89200000D03*
X176200000Y-90150000D03*
X176200000Y-88250000D03*
D22*
X163845000Y-99650000D03*
X163845000Y-98850000D03*
X163845000Y-93950000D03*
X163845000Y-93150000D03*
X163845000Y-93150000D03*
X163845000Y-93950000D03*
X163845000Y-98850000D03*
X163845000Y-99650000D03*
D23*
X163845000Y-94650000D03*
X163845000Y-95150000D03*
X163845000Y-95650000D03*
X163845000Y-96650000D03*
X163845000Y-97150000D03*
X163845000Y-97650000D03*
X163845000Y-98150000D03*
X163845000Y-96150000D03*
D24*
X162930000Y-100720000D03*
X162930000Y-92080000D03*
D25*
X162400000Y-93510000D03*
D26*
X158750000Y-92080000D03*
D25*
X162400000Y-99290000D03*
D26*
X158750000Y-100720000D03*
D15*
X179000000Y-56660000D03*
X179000000Y-54120000D03*
X179000000Y-51580000D03*
X179000000Y-49040000D03*
D16*
X179000000Y-46500000D03*
D15*
X170600000Y-56660000D03*
X170600000Y-54120000D03*
X170600000Y-51580000D03*
X170600000Y-49040000D03*
D16*
X170600000Y-46500000D03*
D13*
X173660000Y-67640000D03*
X173660000Y-70180000D03*
X173660000Y-72720000D03*
X173660000Y-75260000D03*
X173660000Y-77800000D03*
X176200000Y-67640000D03*
X176200000Y-70180000D03*
X176200000Y-72720000D03*
X176200000Y-75260000D03*
G36*
G01*
X177050000Y-77200000D02*
X177050000Y-78400000D01*
G75*
G02*
X176800000Y-78650000I-250000J0D01*
G01*
X175600000Y-78650000D01*
G75*
G02*
X175350000Y-78400000I0J250000D01*
G01*
X175350000Y-77200000D01*
G75*
G02*
X175600000Y-76950000I250000J0D01*
G01*
X176800000Y-76950000D01*
G75*
G02*
X177050000Y-77200000I0J-250000D01*
G01*
G37*
D15*
X193620000Y-82160000D03*
X193620000Y-84700000D03*
X191080000Y-82160000D03*
X191080000Y-84700000D03*
X188540000Y-82160000D03*
X188540000Y-84700000D03*
X186000000Y-82160000D03*
D16*
X186000000Y-84700000D03*
D27*
X195302944Y-106302944D03*
X194600000Y-108000000D03*
X195302944Y-109697056D03*
X197000000Y-110400000D03*
X198697056Y-109697056D03*
X199400000Y-108000000D03*
X198697056Y-106302944D03*
X197000000Y-105600000D03*
D28*
X197000000Y-108000000D03*
D27*
X198697056Y-46302944D03*
X197000000Y-45600000D03*
X195302944Y-46302944D03*
X194600000Y-48000000D03*
X195302944Y-49697056D03*
X197000000Y-50400000D03*
X198697056Y-49697056D03*
X199400000Y-48000000D03*
D28*
X197000000Y-48000000D03*
D27*
X160302944Y-106302944D03*
X159600000Y-108000000D03*
X160302944Y-109697056D03*
X162000000Y-110400000D03*
X163697056Y-109697056D03*
X164400000Y-108000000D03*
X163697056Y-106302944D03*
X162000000Y-105600000D03*
D28*
X162000000Y-108000000D03*
D27*
X163697056Y-46302944D03*
X162000000Y-45600000D03*
X160302944Y-46302944D03*
X159600000Y-48000000D03*
X160302944Y-49697056D03*
X162000000Y-50400000D03*
X163697056Y-49697056D03*
X164400000Y-48000000D03*
D28*
X162000000Y-48000000D03*
G36*
G01*
X194056250Y-94450000D02*
X193143750Y-94450000D01*
G75*
G02*
X192900000Y-94206250I0J243750D01*
G01*
X192900000Y-93718750D01*
G75*
G02*
X193143750Y-93475000I243750J0D01*
G01*
X194056250Y-93475000D01*
G75*
G02*
X194300000Y-93718750I0J-243750D01*
G01*
X194300000Y-94206250D01*
G75*
G02*
X194056250Y-94450000I-243750J0D01*
G01*
G37*
G36*
G01*
X194056250Y-96325000D02*
X193143750Y-96325000D01*
G75*
G02*
X192900000Y-96081250I0J243750D01*
G01*
X192900000Y-95593750D01*
G75*
G02*
X193143750Y-95350000I243750J0D01*
G01*
X194056250Y-95350000D01*
G75*
G02*
X194300000Y-95593750I0J-243750D01*
G01*
X194300000Y-96081250D01*
G75*
G02*
X194056250Y-96325000I-243750J0D01*
G01*
G37*
G36*
G01*
X191556250Y-94450000D02*
X190643750Y-94450000D01*
G75*
G02*
X190400000Y-94206250I0J243750D01*
G01*
X190400000Y-93718750D01*
G75*
G02*
X190643750Y-93475000I243750J0D01*
G01*
X191556250Y-93475000D01*
G75*
G02*
X191800000Y-93718750I0J-243750D01*
G01*
X191800000Y-94206250D01*
G75*
G02*
X191556250Y-94450000I-243750J0D01*
G01*
G37*
G36*
G01*
X191556250Y-96325000D02*
X190643750Y-96325000D01*
G75*
G02*
X190400000Y-96081250I0J243750D01*
G01*
X190400000Y-95593750D01*
G75*
G02*
X190643750Y-95350000I243750J0D01*
G01*
X191556250Y-95350000D01*
G75*
G02*
X191800000Y-95593750I0J-243750D01*
G01*
X191800000Y-96081250D01*
G75*
G02*
X191556250Y-96325000I-243750J0D01*
G01*
G37*
G36*
G01*
X188956250Y-94450000D02*
X188043750Y-94450000D01*
G75*
G02*
X187800000Y-94206250I0J243750D01*
G01*
X187800000Y-93718750D01*
G75*
G02*
X188043750Y-93475000I243750J0D01*
G01*
X188956250Y-93475000D01*
G75*
G02*
X189200000Y-93718750I0J-243750D01*
G01*
X189200000Y-94206250D01*
G75*
G02*
X188956250Y-94450000I-243750J0D01*
G01*
G37*
G36*
G01*
X188956250Y-96325000D02*
X188043750Y-96325000D01*
G75*
G02*
X187800000Y-96081250I0J243750D01*
G01*
X187800000Y-95593750D01*
G75*
G02*
X188043750Y-95350000I243750J0D01*
G01*
X188956250Y-95350000D01*
G75*
G02*
X189200000Y-95593750I0J-243750D01*
G01*
X189200000Y-96081250D01*
G75*
G02*
X188956250Y-96325000I-243750J0D01*
G01*
G37*
G36*
G01*
X186356250Y-94450000D02*
X185443750Y-94450000D01*
G75*
G02*
X185200000Y-94206250I0J243750D01*
G01*
X185200000Y-93718750D01*
G75*
G02*
X185443750Y-93475000I243750J0D01*
G01*
X186356250Y-93475000D01*
G75*
G02*
X186600000Y-93718750I0J-243750D01*
G01*
X186600000Y-94206250D01*
G75*
G02*
X186356250Y-94450000I-243750J0D01*
G01*
G37*
G36*
G01*
X186356250Y-96325000D02*
X185443750Y-96325000D01*
G75*
G02*
X185200000Y-96081250I0J243750D01*
G01*
X185200000Y-95593750D01*
G75*
G02*
X185443750Y-95350000I243750J0D01*
G01*
X186356250Y-95350000D01*
G75*
G02*
X186600000Y-95593750I0J-243750D01*
G01*
X186600000Y-96081250D01*
G75*
G02*
X186356250Y-96325000I-243750J0D01*
G01*
G37*
G36*
G01*
X172149999Y-97850000D02*
X173050001Y-97850000D01*
G75*
G02*
X173300000Y-98099999I0J-249999D01*
G01*
X173300000Y-98750001D01*
G75*
G02*
X173050001Y-99000000I-249999J0D01*
G01*
X172149999Y-99000000D01*
G75*
G02*
X171900000Y-98750001I0J249999D01*
G01*
X171900000Y-98099999D01*
G75*
G02*
X172149999Y-97850000I249999J0D01*
G01*
G37*
G36*
G01*
X172149999Y-95800000D02*
X173050001Y-95800000D01*
G75*
G02*
X173300000Y-96049999I0J-249999D01*
G01*
X173300000Y-96700001D01*
G75*
G02*
X173050001Y-96950000I-249999J0D01*
G01*
X172149999Y-96950000D01*
G75*
G02*
X171900000Y-96700001I0J249999D01*
G01*
X171900000Y-96049999D01*
G75*
G02*
X172149999Y-95800000I249999J0D01*
G01*
G37*
G36*
G01*
X182450000Y-89250001D02*
X182450000Y-88349999D01*
G75*
G02*
X182699999Y-88100000I249999J0D01*
G01*
X183350001Y-88100000D01*
G75*
G02*
X183600000Y-88349999I0J-249999D01*
G01*
X183600000Y-89250001D01*
G75*
G02*
X183350001Y-89500000I-249999J0D01*
G01*
X182699999Y-89500000D01*
G75*
G02*
X182450000Y-89250001I0J249999D01*
G01*
G37*
G36*
G01*
X180400000Y-89250001D02*
X180400000Y-88349999D01*
G75*
G02*
X180649999Y-88100000I249999J0D01*
G01*
X181300001Y-88100000D01*
G75*
G02*
X181550000Y-88349999I0J-249999D01*
G01*
X181550000Y-89250001D01*
G75*
G02*
X181300001Y-89500000I-249999J0D01*
G01*
X180649999Y-89500000D01*
G75*
G02*
X180400000Y-89250001I0J249999D01*
G01*
G37*
G36*
G01*
X172950000Y-100549999D02*
X172950000Y-101450001D01*
G75*
G02*
X172700001Y-101700000I-249999J0D01*
G01*
X172049999Y-101700000D01*
G75*
G02*
X171800000Y-101450001I0J249999D01*
G01*
X171800000Y-100549999D01*
G75*
G02*
X172049999Y-100300000I249999J0D01*
G01*
X172700001Y-100300000D01*
G75*
G02*
X172950000Y-100549999I0J-249999D01*
G01*
G37*
G36*
G01*
X175000000Y-100549999D02*
X175000000Y-101450001D01*
G75*
G02*
X174750001Y-101700000I-249999J0D01*
G01*
X174099999Y-101700000D01*
G75*
G02*
X173850000Y-101450001I0J249999D01*
G01*
X173850000Y-100549999D01*
G75*
G02*
X174099999Y-100300000I249999J0D01*
G01*
X174750001Y-100300000D01*
G75*
G02*
X175000000Y-100549999I0J-249999D01*
G01*
G37*
G36*
G01*
X172950000Y-102749999D02*
X172950000Y-103650001D01*
G75*
G02*
X172700001Y-103900000I-249999J0D01*
G01*
X172049999Y-103900000D01*
G75*
G02*
X171800000Y-103650001I0J249999D01*
G01*
X171800000Y-102749999D01*
G75*
G02*
X172049999Y-102500000I249999J0D01*
G01*
X172700001Y-102500000D01*
G75*
G02*
X172950000Y-102749999I0J-249999D01*
G01*
G37*
G36*
G01*
X175000000Y-102749999D02*
X175000000Y-103650001D01*
G75*
G02*
X174750001Y-103900000I-249999J0D01*
G01*
X174099999Y-103900000D01*
G75*
G02*
X173850000Y-103650001I0J249999D01*
G01*
X173850000Y-102749999D01*
G75*
G02*
X174099999Y-102500000I249999J0D01*
G01*
X174750001Y-102500000D01*
G75*
G02*
X175000000Y-102749999I0J-249999D01*
G01*
G37*
G36*
G01*
X186600000Y-99849999D02*
X186600000Y-101150001D01*
G75*
G02*
X186350001Y-101400000I-249999J0D01*
G01*
X185524999Y-101400000D01*
G75*
G02*
X185275000Y-101150001I0J249999D01*
G01*
X185275000Y-99849999D01*
G75*
G02*
X185524999Y-99600000I249999J0D01*
G01*
X186350001Y-99600000D01*
G75*
G02*
X186600000Y-99849999I0J-249999D01*
G01*
G37*
G36*
G01*
X189725000Y-99849999D02*
X189725000Y-101150001D01*
G75*
G02*
X189475001Y-101400000I-249999J0D01*
G01*
X188649999Y-101400000D01*
G75*
G02*
X188400000Y-101150001I0J249999D01*
G01*
X188400000Y-99849999D01*
G75*
G02*
X188649999Y-99600000I249999J0D01*
G01*
X189475001Y-99600000D01*
G75*
G02*
X189725000Y-99849999I0J-249999D01*
G01*
G37*
G36*
G01*
X181149999Y-84200000D02*
X182450001Y-84200000D01*
G75*
G02*
X182700000Y-84449999I0J-249999D01*
G01*
X182700000Y-85275001D01*
G75*
G02*
X182450001Y-85525000I-249999J0D01*
G01*
X181149999Y-85525000D01*
G75*
G02*
X180900000Y-85275001I0J249999D01*
G01*
X180900000Y-84449999D01*
G75*
G02*
X181149999Y-84200000I249999J0D01*
G01*
G37*
G36*
G01*
X181149999Y-81075000D02*
X182450001Y-81075000D01*
G75*
G02*
X182700000Y-81324999I0J-249999D01*
G01*
X182700000Y-82150001D01*
G75*
G02*
X182450001Y-82400000I-249999J0D01*
G01*
X181149999Y-82400000D01*
G75*
G02*
X180900000Y-82150001I0J249999D01*
G01*
X180900000Y-81324999D01*
G75*
G02*
X181149999Y-81075000I249999J0D01*
G01*
G37*
M02*
